<svg width="20" height="20" viewBox="0 0 20 20" fill="none" xmlns="http://www.w3.org/2000/svg">
<g clip-path="url(#clip0)">
<path d="M4.16401 10.0679C4.16401 9.4139 4.27401 8.7869 4.46901 8.1989L1.04401 5.6084C0.355061 6.99389 -0.00234747 8.52058 1.16027e-05 10.0679C1.16027e-05 11.6704 0.375012 13.1819 1.04201 14.5239L4.46601 11.9289C4.26601 11.3289 4.16451 10.7004 4.16401 10.0679Z" fill="#222F65"/>
<path d="M10.1805 4.11997C11.5451 4.11723 12.8688 4.58561 13.928 5.44596L16.8895 2.51796C15.085 0.962965 12.7715 0.00146484 10.1805 0.00146484C6.15751 0.00146484 2.69951 2.27996 1.04401 5.60846L4.47151 8.19896C5.26051 5.82596 7.51051 4.11946 10.1815 4.11946" fill="#222F65"/>
<path d="M10.224 15.8836C7.539 15.8836 5.278 14.1881 4.484 11.8296L1.0415 14.4046C2.705 17.7126 6.18 19.9761 10.224 19.9761C12.7185 19.9761 15.1005 19.1091 16.889 17.4831L13.6205 15.0091C12.699 15.5776 11.5375 15.8841 10.223 15.8841" fill="#222F65"/>
<path d="M19.989 9.97281C19.989 9.38181 19.8955 8.74481 19.7565 8.15381H10.223V12.0188H15.71C15.4365 13.3368 14.69 14.3498 13.621 15.0088L16.889 17.4828C18.7675 15.7763 19.989 13.2338 19.989 9.97281Z" fill="#222F65"/>
</g>
<defs>
<clipPath id="clip0">
<rect width="20" height="20" fill="white"/>
</clipPath>
</defs>
</svg>
