<svg width="44" height="44" viewBox="0 0 44 44" fill="none" xmlns="http://www.w3.org/2000/svg">
<path d="M22 44C34.1503 44 44 34.1503 44 22C44 9.84974 34.1503 0 22 0C9.84974 0 0 9.84974 0 22C0 34.1503 9.84974 44 22 44Z" fill="#0FA052"/>
<path d="M20.3498 32.084C20.1012 32.084 19.8592 31.9979 19.6623 31.836L11.4126 25.0414C10.9386 24.6507 10.8616 23.9384 11.2411 23.4504C11.6227 22.9623 12.3135 22.883 12.7876 23.2737L20.121 29.3141L30.9985 13.3174C31.3461 12.8033 32.0325 12.681 32.5307 13.0388C33.029 13.3978 33.1489 14.1033 32.8013 14.6163L21.2518 31.6027C21.078 31.8598 20.8085 32.0296 20.5071 32.0749C20.4543 32.0806 20.4015 32.084 20.3498 32.084Z" fill="white"/>
</svg>
