<svg width="19" height="15" viewBox="0 0 19 15" fill="none" xmlns="http://www.w3.org/2000/svg">
<path d="M8.08454 2.9538L7.14193 4.24073C6.10738 4.06416 5.13313 4.23878 4.21918 4.7646C3.30523 5.29042 2.66808 6.06388 2.30773 7.08499C1.90435 8.22803 1.96154 9.34079 2.47929 10.4233C2.99705 11.5058 3.82744 12.2487 4.97048 12.6521C6.00683 13.0178 7.01268 13.0086 7.98805 12.6244C8.96341 12.2402 9.70702 11.59 10.2189 10.6738L11.8205 10.7249C11.2225 12.1763 10.2203 13.2194 8.81375 13.8541C7.40718 14.4889 5.96474 14.5454 4.48642 14.0237C2.96238 13.4859 1.85518 12.4953 1.16484 11.052C0.474501 9.60866 0.398252 8.12498 0.936092 6.60094C1.4578 5.12262 2.40714 4.03515 3.78412 3.33853C5.16109 2.64192 6.59457 2.51367 8.08454 2.9538ZM17.6065 1.68675L18.7752 4.13008L13.4864 6.65969L16.535 9.02093L6.42265 8.53716L12.393 0.361017L12.3178 4.21635L17.6065 1.68675Z" fill="#37447E"/>
</svg>
