<svg width="431" height="219" viewBox="0 0 431 219" fill="none" xmlns="http://www.w3.org/2000/svg">
<path d="M19.3146 216.613C16.277 216.613 13.8146 214.151 13.8146 211.113L13.8146 127.523C13.8146 124.643 12.8202 121.852 10.9996 119.62L2.36723 109.041L11.5787 95.7886C13.0344 93.6943 13.8146 91.2048 13.8146 88.6543L13.8146 7.11328C13.8146 4.07571 16.277 1.61328 19.3146 1.61328L423.264 1.61326C426.301 1.61326 428.764 4.07569 428.764 7.11326L428.764 211.113C428.764 214.151 426.301 216.613 423.264 216.613L19.3146 216.613Z" stroke="#FFC93C" stroke-width="3"/>
<path d="M72.108 53.9933L72.428 56.3133H72.448L72.788 53.9533L75.668 44.6133H76.468L79.368 53.9933L79.708 56.3133H79.728L80.088 53.9533L82.448 44.6133H84.068L80.168 58.8333H79.248L76.408 49.4533L76.048 47.3333H75.948L75.588 49.4733L72.748 58.8333H71.828L67.828 44.6133H69.588L72.108 53.9933ZM92.2306 57.8133C91.8306 58.1333 91.324 58.3866 90.7106 58.5733C90.1106 58.7599 89.4706 58.8533 88.7906 58.8533C88.0306 58.8533 87.3706 58.7333 86.8106 58.4933C86.2506 58.2399 85.7906 57.8866 85.4306 57.4333C85.0706 56.9666 84.804 56.4133 84.6306 55.7733C84.4573 55.1333 84.3706 54.4133 84.3706 53.6133C84.3706 51.9066 84.7506 50.6066 85.5106 49.7133C86.2706 48.8199 87.3573 48.3733 88.7706 48.3733C89.224 48.3733 89.6773 48.4266 90.1306 48.5333C90.584 48.6266 90.9906 48.8133 91.3506 49.0933C91.7106 49.3733 92.004 49.7733 92.2306 50.2933C92.4573 50.7999 92.5706 51.4733 92.5706 52.3133C92.5706 52.7533 92.5306 53.2399 92.4506 53.7733H86.0306C86.0306 54.3599 86.0906 54.8799 86.2106 55.3333C86.3306 55.7866 86.5173 56.1733 86.7706 56.4933C87.024 56.7999 87.3506 57.0399 87.7506 57.2133C88.164 57.3733 88.664 57.4533 89.2506 57.4533C89.704 57.4533 90.1573 57.3733 90.6106 57.2133C91.064 57.0533 91.404 56.8666 91.6306 56.6533L92.2306 57.8133ZM88.7906 49.7733C88.004 49.7733 87.3706 49.9799 86.8906 50.3933C86.424 50.8066 86.144 51.5133 86.0506 52.5133H91.0106C91.0106 51.4999 90.8173 50.7933 90.4306 50.3933C90.044 49.9799 89.4973 49.7733 88.7906 49.7733ZM105.139 50.1533C104.739 50.0199 104.359 49.9533 103.999 49.9533C103.426 49.9533 102.972 50.1133 102.639 50.4333C102.306 50.7399 102.099 51.1333 102.019 51.6133V58.6133H100.419V48.6133H101.539L101.839 49.8333H101.919C102.172 49.3799 102.472 49.0333 102.819 48.7933C103.179 48.5399 103.632 48.4133 104.179 48.4133C104.566 48.4133 104.999 48.4799 105.479 48.6133L105.139 50.1533ZM114.516 57.8133C114.116 58.1333 113.609 58.3866 112.996 58.5733C112.396 58.7599 111.756 58.8533 111.076 58.8533C110.316 58.8533 109.656 58.7333 109.096 58.4933C108.536 58.2399 108.076 57.8866 107.716 57.4333C107.356 56.9666 107.089 56.4133 106.916 55.7733C106.742 55.1333 106.656 54.4133 106.656 53.6133C106.656 51.9066 107.036 50.6066 107.796 49.7133C108.556 48.8199 109.642 48.3733 111.056 48.3733C111.509 48.3733 111.962 48.4266 112.416 48.5333C112.869 48.6266 113.276 48.8133 113.636 49.0933C113.996 49.3733 114.289 49.7733 114.516 50.2933C114.742 50.7999 114.856 51.4733 114.856 52.3133C114.856 52.7533 114.816 53.2399 114.736 53.7733H108.316C108.316 54.3599 108.376 54.8799 108.496 55.3333C108.616 55.7866 108.802 56.1733 109.056 56.4933C109.309 56.7999 109.636 57.0399 110.036 57.2133C110.449 57.3733 110.949 57.4533 111.536 57.4533C111.989 57.4533 112.442 57.3733 112.896 57.2133C113.349 57.0533 113.689 56.8666 113.916 56.6533L114.516 57.8133ZM111.076 49.7733C110.289 49.7733 109.656 49.9799 109.176 50.3933C108.709 50.8066 108.429 51.5133 108.336 52.5133H113.296C113.296 51.4999 113.102 50.7933 112.716 50.3933C112.329 49.9799 111.782 49.7733 111.076 49.7733ZM123.977 57.9533C123.577 58.2466 123.104 58.4666 122.557 58.6133C122.011 58.7733 121.437 58.8533 120.837 58.8533C120.064 58.8533 119.411 58.7333 118.877 58.4933C118.344 58.2399 117.904 57.8866 117.557 57.4333C117.224 56.9666 116.977 56.4133 116.817 55.7733C116.671 55.1199 116.597 54.3999 116.597 53.6133C116.597 51.9199 116.971 50.6266 117.717 49.7333C118.464 48.8266 119.537 48.3733 120.937 48.3733C121.577 48.3733 122.117 48.4266 122.557 48.5333C123.011 48.6266 123.417 48.7666 123.777 48.9533L123.317 50.3333C123.011 50.1599 122.671 50.0266 122.297 49.9333C121.924 49.8266 121.524 49.7733 121.097 49.7733C119.204 49.7733 118.257 51.0533 118.257 53.6133C118.257 54.1199 118.304 54.6066 118.397 55.0733C118.504 55.5266 118.671 55.9333 118.897 56.2933C119.137 56.6399 119.444 56.9199 119.817 57.1333C120.204 57.3466 120.677 57.4533 121.237 57.4533C121.717 57.4533 122.144 57.3799 122.517 57.2333C122.904 57.0866 123.217 56.9199 123.457 56.7333L123.977 57.9533ZM125.152 53.6133C125.152 51.9199 125.525 50.6266 126.272 49.7333C127.032 48.8266 128.119 48.3733 129.532 48.3733C130.279 48.3733 130.925 48.4999 131.472 48.7533C132.032 48.9933 132.492 49.3466 132.852 49.8133C133.212 50.2666 133.479 50.8199 133.652 51.4733C133.825 52.1133 133.912 52.8266 133.912 53.6133C133.912 55.3066 133.532 56.6066 132.772 57.5133C132.025 58.4066 130.945 58.8533 129.532 58.8533C128.785 58.8533 128.132 58.7333 127.572 58.4933C127.025 58.2399 126.572 57.8866 126.212 57.4333C125.852 56.9666 125.585 56.4133 125.412 55.7733C125.239 55.1199 125.152 54.3999 125.152 53.6133ZM126.812 53.6133C126.812 54.1199 126.859 54.6066 126.952 55.0733C127.059 55.5399 127.219 55.9466 127.432 56.2933C127.645 56.6399 127.925 56.9199 128.272 57.1333C128.619 57.3466 129.039 57.4533 129.532 57.4533C131.345 57.4666 132.252 56.1866 132.252 53.6133C132.252 53.0933 132.199 52.5999 132.092 52.1333C131.999 51.6666 131.845 51.2599 131.632 50.9133C131.419 50.5666 131.139 50.2933 130.792 50.0933C130.445 49.8799 130.025 49.7733 129.532 49.7733C127.719 49.7599 126.812 51.0399 126.812 53.6133ZM142.295 58.6133V52.9533C142.295 52.4199 142.268 51.9599 142.215 51.5733C142.175 51.1733 142.088 50.8399 141.955 50.5733C141.821 50.3066 141.628 50.1066 141.375 49.9733C141.135 49.8399 140.815 49.7733 140.415 49.7733C139.801 49.7733 139.288 49.9599 138.875 50.3333C138.475 50.7066 138.195 51.1733 138.035 51.7333V58.6133H136.435V48.6133H137.555L137.855 49.8333H137.935C138.295 49.4066 138.708 49.0599 139.175 48.7933C139.655 48.5133 140.275 48.3733 141.035 48.3733C141.675 48.3733 142.195 48.4999 142.595 48.7533C143.008 48.9933 143.328 49.4199 143.555 50.0333C143.861 49.5133 144.281 49.1066 144.815 48.8133C145.361 48.5199 145.975 48.3733 146.655 48.3733C147.215 48.3733 147.688 48.4399 148.075 48.5733C148.461 48.6933 148.781 48.9133 149.035 49.2333C149.288 49.5533 149.468 49.9866 149.575 50.5333C149.695 51.0799 149.755 51.7733 149.755 52.6133V58.6133H148.155V52.5933C148.155 52.1133 148.128 51.6999 148.075 51.3533C148.035 50.9933 147.941 50.6999 147.795 50.4733C147.661 50.2333 147.468 50.0599 147.215 49.9533C146.975 49.8333 146.655 49.7733 146.255 49.7733C145.588 49.7733 145.068 49.9599 144.695 50.3333C144.321 50.7066 144.055 51.2399 143.895 51.9333V58.6133H142.295ZM158.525 58.6133V52.9533C158.525 52.4199 158.498 51.9599 158.445 51.5733C158.405 51.1733 158.318 50.8399 158.185 50.5733C158.052 50.3066 157.858 50.1066 157.605 49.9733C157.365 49.8399 157.045 49.7733 156.645 49.7733C156.032 49.7733 155.518 49.9599 155.105 50.3333C154.705 50.7066 154.425 51.1733 154.265 51.7333V58.6133H152.665V48.6133H153.785L154.085 49.8333H154.165C154.525 49.4066 154.938 49.0599 155.405 48.7933C155.885 48.5133 156.505 48.3733 157.265 48.3733C157.905 48.3733 158.425 48.4999 158.825 48.7533C159.238 48.9933 159.558 49.4199 159.785 50.0333C160.092 49.5133 160.512 49.1066 161.045 48.8133C161.592 48.5199 162.205 48.3733 162.885 48.3733C163.445 48.3733 163.918 48.4399 164.305 48.5733C164.692 48.6933 165.012 48.9133 165.265 49.2333C165.518 49.5533 165.698 49.9866 165.805 50.5333C165.925 51.0799 165.985 51.7733 165.985 52.6133V58.6133H164.385V52.5933C164.385 52.1133 164.358 51.6999 164.305 51.3533C164.265 50.9933 164.172 50.6999 164.025 50.4733C163.892 50.2333 163.698 50.0599 163.445 49.9533C163.205 49.8333 162.885 49.7733 162.485 49.7733C161.818 49.7733 161.298 49.9599 160.925 50.3333C160.552 50.7066 160.285 51.2399 160.125 51.9333V58.6133H158.525ZM176.195 57.8133C175.795 58.1333 175.289 58.3866 174.675 58.5733C174.075 58.7599 173.435 58.8533 172.755 58.8533C171.995 58.8533 171.335 58.7333 170.775 58.4933C170.215 58.2399 169.755 57.8866 169.395 57.4333C169.035 56.9666 168.769 56.4133 168.595 55.7733C168.422 55.1333 168.335 54.4133 168.335 53.6133C168.335 51.9066 168.715 50.6066 169.475 49.7133C170.235 48.8199 171.322 48.3733 172.735 48.3733C173.189 48.3733 173.642 48.4266 174.095 48.5333C174.549 48.6266 174.955 48.8133 175.315 49.0933C175.675 49.3733 175.969 49.7733 176.195 50.2933C176.422 50.7999 176.535 51.4733 176.535 52.3133C176.535 52.7533 176.495 53.2399 176.415 53.7733H169.995C169.995 54.3599 170.055 54.8799 170.175 55.3333C170.295 55.7866 170.482 56.1733 170.735 56.4933C170.989 56.7999 171.315 57.0399 171.715 57.2133C172.129 57.3733 172.629 57.4533 173.215 57.4533C173.669 57.4533 174.122 57.3733 174.575 57.2133C175.029 57.0533 175.369 56.8666 175.595 56.6533L176.195 57.8133ZM172.755 49.7733C171.969 49.7733 171.335 49.9799 170.855 50.3933C170.389 50.8066 170.109 51.5133 170.015 52.5133H174.975C174.975 51.4999 174.782 50.7933 174.395 50.3933C174.009 49.9799 173.462 49.7733 172.755 49.7733ZM185.472 58.6133V52.9133C185.472 51.8733 185.318 51.0933 185.012 50.5733C184.718 50.0399 184.172 49.7733 183.372 49.7733C182.665 49.7733 182.078 49.9666 181.612 50.3533C181.158 50.7266 180.838 51.1999 180.652 51.7733V58.6133H179.052V48.6133H180.172L180.472 49.8333H180.552C180.872 49.4066 181.298 49.0599 181.832 48.7933C182.378 48.5133 183.025 48.3733 183.772 48.3733C184.318 48.3733 184.798 48.4399 185.212 48.5733C185.625 48.6933 185.965 48.9133 186.232 49.2333C186.512 49.5533 186.718 49.9866 186.852 50.5333C186.998 51.0666 187.072 51.7466 187.072 52.5733V58.6133H185.472ZM197.669 55.1733C197.669 55.8533 197.676 56.4733 197.689 57.0333C197.703 57.5799 197.763 58.1199 197.869 58.6533H196.789L196.389 57.2333H196.309C196.043 57.6999 195.656 58.0866 195.149 58.3933C194.643 58.6999 194.049 58.8533 193.369 58.8533C192.036 58.8533 191.043 58.4333 190.389 57.5933C189.749 56.7533 189.429 55.4399 189.429 53.6533C189.429 51.9466 189.829 50.6533 190.629 49.7733C191.443 48.8799 192.556 48.4333 193.969 48.4333C194.463 48.4333 194.849 48.4599 195.129 48.5133C195.423 48.5666 195.736 48.6533 196.069 48.7733V44.6133H197.669V55.1733ZM193.629 57.4533C194.309 57.4533 194.849 57.2799 195.249 56.9333C195.649 56.5733 195.923 56.0333 196.069 55.3133V50.3533C195.829 50.1666 195.556 50.0333 195.249 49.9533C194.943 49.8733 194.536 49.8333 194.029 49.8333C193.109 49.8333 192.389 50.1399 191.869 50.7533C191.349 51.3533 191.089 52.3199 191.089 53.6533C191.089 54.1999 191.129 54.7066 191.209 55.1733C191.303 55.6399 191.449 56.0399 191.649 56.3733C191.849 56.7066 192.109 56.9733 192.429 57.1733C192.763 57.3599 193.163 57.4533 193.629 57.4533ZM201.031 49.6333C201.031 49.2733 201.131 48.9933 201.331 48.7933C201.544 48.5799 201.824 48.4733 202.171 48.4733C202.531 48.4733 202.818 48.5799 203.031 48.7933C203.244 48.9933 203.351 49.2733 203.351 49.6333C203.351 49.9799 203.244 50.2599 203.031 50.4733C202.818 50.6866 202.531 50.7933 202.171 50.7933C201.824 50.7933 201.544 50.6866 201.331 50.4733C201.131 50.2599 201.031 49.9799 201.031 49.6333ZM201.031 57.6933C201.031 57.3333 201.131 57.0533 201.331 56.8533C201.544 56.6399 201.824 56.5333 202.171 56.5333C202.531 56.5333 202.818 56.6399 203.031 56.8533C203.244 57.0533 203.351 57.3333 203.351 57.6933C203.351 58.0399 203.244 58.3199 203.031 58.5333C202.818 58.7466 202.531 58.8533 202.171 58.8533C201.824 58.8533 201.544 58.7466 201.331 58.5333C201.131 58.3199 201.031 58.0399 201.031 57.6933ZM79.8865 89.3933C79.8865 88.9799 79.9598 88.6066 80.1065 88.2733C80.2532 87.9266 80.4465 87.6333 80.6865 87.3933C80.9398 87.1399 81.2332 86.9466 81.5665 86.8133C81.9132 86.6799 82.2798 86.6133 82.6665 86.6133C83.0532 86.6133 83.4132 86.6799 83.7465 86.8133C84.0932 86.9333 84.3865 87.1133 84.6265 87.3533C84.8798 87.5933 85.0798 87.8866 85.2265 88.2333C85.3732 88.5666 85.4465 88.9533 85.4465 89.3933C85.4465 89.8333 85.3732 90.2266 85.2265 90.5733C85.0798 90.9066 84.8798 91.1933 84.6265 91.4333C84.3865 91.6733 84.0932 91.8599 83.7465 91.9933C83.4132 92.1133 83.0532 92.1733 82.6665 92.1733C82.2798 92.1733 81.9132 92.1133 81.5665 91.9933C81.2332 91.8599 80.9398 91.6733 80.6865 91.4333C80.4465 91.1933 80.2532 90.9066 80.1065 90.5733C79.9598 90.2266 79.8865 89.8333 79.8865 89.3933ZM102.508 95.8533C101.775 95.8399 101.121 95.7733 100.548 95.6533C99.988 95.5466 99.5346 95.3999 99.188 95.2133L99.728 93.7533C99.9946 93.9133 100.355 94.0599 100.808 94.1933C101.275 94.3266 101.841 94.3999 102.508 94.4133V89.0133C102.108 88.8133 101.708 88.5999 101.308 88.3733C100.921 88.1466 100.575 87.8799 100.268 87.5733C99.9613 87.2533 99.7146 86.8799 99.528 86.4533C99.3413 86.0266 99.248 85.5199 99.248 84.9333C99.248 83.9733 99.5146 83.1866 100.048 82.5733C100.595 81.9599 101.415 81.5799 102.508 81.4333V79.6133H103.868V81.3733C104.548 81.3999 105.101 81.4666 105.528 81.5733C105.968 81.6666 106.361 81.7933 106.708 81.9533L106.228 83.3533C105.961 83.2199 105.641 83.1066 105.268 83.0133C104.895 82.9066 104.428 82.8399 103.868 82.8133V87.7533C104.281 87.9666 104.695 88.1999 105.108 88.4533C105.521 88.6933 105.888 88.9733 106.208 89.2933C106.541 89.6133 106.808 89.9866 107.008 90.4133C107.208 90.8399 107.308 91.3399 107.308 91.9133C107.308 92.9533 107.015 93.8133 106.428 94.4933C105.855 95.1599 105.001 95.5866 103.868 95.7733V97.6133H102.508V95.8533ZM105.648 92.0533C105.648 91.7333 105.588 91.4466 105.468 91.1933C105.361 90.9399 105.215 90.7133 105.028 90.5133C104.841 90.3133 104.621 90.1333 104.368 89.9733C104.115 89.8133 103.841 89.6599 103.548 89.5133V94.3733C104.161 94.2799 104.661 94.0466 105.048 93.6733C105.448 93.2866 105.648 92.7466 105.648 92.0533ZM100.908 84.8333C100.908 85.4066 101.088 85.8733 101.448 86.2333C101.821 86.5933 102.281 86.9199 102.828 87.2133V82.8333C102.121 82.9133 101.621 83.1466 101.328 83.5333C101.048 83.9199 100.908 84.3533 100.908 84.8333ZM109.426 88.6133C109.426 86.2133 109.813 84.4066 110.586 83.1933C111.373 81.9799 112.513 81.3733 114.006 81.3733C115.62 81.3733 116.786 81.9733 117.506 83.1733C118.24 84.3599 118.606 86.1733 118.606 88.6133C118.606 91.0133 118.213 92.8199 117.426 94.0333C116.653 95.2466 115.513 95.8533 114.006 95.8533C112.42 95.8533 111.26 95.2199 110.526 93.9533C109.793 92.6866 109.426 90.9066 109.426 88.6133ZM111.086 88.6133C111.086 89.4799 111.14 90.2733 111.246 90.9933C111.366 91.6999 111.546 92.3133 111.786 92.8333C112.026 93.3399 112.326 93.7399 112.686 94.0333C113.06 94.3133 113.5 94.4533 114.006 94.4533C115.02 94.4533 115.76 93.9866 116.226 93.0533C116.706 92.1066 116.946 90.6266 116.946 88.6133C116.946 87.7599 116.893 86.9733 116.786 86.2533C116.693 85.5333 116.526 84.9133 116.286 84.3933C116.06 83.8733 115.76 83.4733 115.386 83.1933C115.013 82.9133 114.553 82.7733 114.006 82.7733C113.006 82.7733 112.266 83.2466 111.786 84.1933C111.32 85.1399 111.086 86.6133 111.086 88.6133ZM125.237 85.6133H126.797V85.0533C126.797 84.4399 126.844 83.9066 126.937 83.4533C127.044 82.9999 127.21 82.6333 127.437 82.3533C127.664 82.0599 127.957 81.8466 128.317 81.7133C128.677 81.5666 129.124 81.4933 129.657 81.4933C130.084 81.4933 130.457 81.5199 130.777 81.5733C131.11 81.6266 131.457 81.7266 131.817 81.8733L131.457 83.2133C131.15 83.0799 130.857 82.9933 130.577 82.9533C130.31 82.9133 130.057 82.8933 129.817 82.8933C129.47 82.8933 129.197 82.9466 128.997 83.0533C128.81 83.1599 128.67 83.3199 128.577 83.5333C128.497 83.7333 128.444 83.9866 128.417 84.2933C128.404 84.5866 128.397 84.9333 128.397 85.3333V85.6133H131.057V87.0133H128.397V95.6133H126.797V87.0133H125.237V85.6133ZM131.949 90.6133C131.949 88.9199 132.322 87.6266 133.069 86.7333C133.829 85.8266 134.915 85.3733 136.329 85.3733C137.075 85.3733 137.722 85.4999 138.269 85.7533C138.829 85.9933 139.289 86.3466 139.649 86.8133C140.009 87.2666 140.275 87.8199 140.449 88.4733C140.622 89.1133 140.709 89.8266 140.709 90.6133C140.709 92.3066 140.329 93.6066 139.569 94.5133C138.822 95.4066 137.742 95.8533 136.329 95.8533C135.582 95.8533 134.929 95.7333 134.369 95.4933C133.822 95.2399 133.369 94.8866 133.009 94.4333C132.649 93.9666 132.382 93.4133 132.209 92.7733C132.035 92.1199 131.949 91.3999 131.949 90.6133ZM133.609 90.6133C133.609 91.1199 133.655 91.6066 133.749 92.0733C133.855 92.5399 134.015 92.9466 134.229 93.2933C134.442 93.6399 134.722 93.9199 135.069 94.1333C135.415 94.3466 135.835 94.4533 136.329 94.4533C138.142 94.4666 139.049 93.1866 139.049 90.6133C139.049 90.0933 138.995 89.5999 138.889 89.1333C138.795 88.6666 138.642 88.2599 138.429 87.9133C138.215 87.5666 137.935 87.2933 137.589 87.0933C137.242 86.8799 136.822 86.7733 136.329 86.7733C134.515 86.7599 133.609 88.0399 133.609 90.6133ZM147.951 87.1533C147.551 87.0199 147.171 86.9533 146.811 86.9533C146.238 86.9533 145.785 87.1133 145.451 87.4333C145.118 87.7399 144.911 88.1333 144.831 88.6133V95.6133H143.231V85.6133H144.351L144.651 86.8333H144.731C144.985 86.3799 145.285 86.0333 145.631 85.7933C145.991 85.5399 146.445 85.4133 146.991 85.4133C147.378 85.4133 147.811 85.4799 148.291 85.6133L147.951 87.1533ZM160.08 87.1533C159.68 87.0199 159.3 86.9533 158.94 86.9533C158.367 86.9533 157.914 87.1133 157.58 87.4333C157.247 87.7399 157.04 88.1333 156.96 88.6133V95.6133H155.36V85.6133H156.48L156.78 86.8333H156.86C157.114 86.3799 157.414 86.0333 157.76 85.7933C158.12 85.5399 158.574 85.4133 159.12 85.4133C159.507 85.4133 159.94 85.4799 160.42 85.6133L160.08 87.1533ZM169.457 94.8133C169.057 95.1333 168.551 95.3866 167.937 95.5733C167.337 95.7599 166.697 95.8533 166.017 95.8533C165.257 95.8533 164.597 95.7333 164.037 95.4933C163.477 95.2399 163.017 94.8866 162.657 94.4333C162.297 93.9666 162.031 93.4133 161.857 92.7733C161.684 92.1333 161.597 91.4133 161.597 90.6133C161.597 88.9066 161.977 87.6066 162.737 86.7133C163.497 85.8199 164.584 85.3733 165.997 85.3733C166.451 85.3733 166.904 85.4266 167.357 85.5333C167.811 85.6266 168.217 85.8133 168.577 86.0933C168.937 86.3733 169.231 86.7733 169.457 87.2933C169.684 87.7999 169.797 88.4733 169.797 89.3133C169.797 89.7533 169.757 90.2399 169.677 90.7733H163.257C163.257 91.3599 163.317 91.8799 163.437 92.3333C163.557 92.7866 163.744 93.1733 163.997 93.4933C164.251 93.7999 164.577 94.0399 164.977 94.2133C165.391 94.3733 165.891 94.4533 166.477 94.4533C166.931 94.4533 167.384 94.3733 167.837 94.2133C168.291 94.0533 168.631 93.8666 168.857 93.6533L169.457 94.8133ZM166.017 86.7733C165.231 86.7733 164.597 86.9799 164.117 87.3933C163.651 87.8066 163.371 88.5133 163.277 89.5133H168.237C168.237 88.4999 168.044 87.7933 167.657 87.3933C167.271 86.9799 166.724 86.7733 166.017 86.7733ZM171.213 85.6133H172.773V85.0533C172.773 84.4399 172.82 83.9066 172.913 83.4533C173.02 82.9999 173.187 82.6333 173.413 82.3533C173.64 82.0599 173.933 81.8466 174.293 81.7133C174.653 81.5666 175.1 81.4933 175.633 81.4933C176.06 81.4933 176.433 81.5199 176.753 81.5733C177.087 81.6266 177.433 81.7266 177.793 81.8733L177.433 83.2133C177.127 83.0799 176.833 82.9933 176.553 82.9533C176.287 82.9133 176.033 82.8933 175.793 82.8933C175.447 82.8933 175.173 82.9466 174.973 83.0533C174.787 83.1599 174.647 83.3199 174.553 83.5333C174.473 83.7333 174.42 83.9866 174.393 84.2933C174.38 84.5866 174.373 84.9333 174.373 85.3333V85.6133H177.033V87.0133H174.373V95.6133H172.773V87.0133H171.213V85.6133ZM185.785 94.8133C185.385 95.1333 184.879 95.3866 184.265 95.5733C183.665 95.7599 183.025 95.8533 182.345 95.8533C181.585 95.8533 180.925 95.7333 180.365 95.4933C179.805 95.2399 179.345 94.8866 178.985 94.4333C178.625 93.9666 178.359 93.4133 178.185 92.7733C178.012 92.1333 177.925 91.4133 177.925 90.6133C177.925 88.9066 178.305 87.6066 179.065 86.7133C179.825 85.8199 180.912 85.3733 182.325 85.3733C182.779 85.3733 183.232 85.4266 183.685 85.5333C184.139 85.6266 184.545 85.8133 184.905 86.0933C185.265 86.3733 185.559 86.7733 185.785 87.2933C186.012 87.7999 186.125 88.4733 186.125 89.3133C186.125 89.7533 186.085 90.2399 186.005 90.7733H179.585C179.585 91.3599 179.645 91.8799 179.765 92.3333C179.885 92.7866 180.072 93.1733 180.325 93.4933C180.579 93.7999 180.905 94.0399 181.305 94.2133C181.719 94.3733 182.219 94.4533 182.805 94.4533C183.259 94.4533 183.712 94.3733 184.165 94.2133C184.619 94.0533 184.959 93.8666 185.185 93.6533L185.785 94.8133ZM182.345 86.7733C181.559 86.7733 180.925 86.9799 180.445 87.3933C179.979 87.8066 179.699 88.5133 179.605 89.5133H184.565C184.565 88.4999 184.372 87.7933 183.985 87.3933C183.599 86.9799 183.052 86.7733 182.345 86.7733ZM193.362 87.1533C192.962 87.0199 192.582 86.9533 192.222 86.9533C191.648 86.9533 191.195 87.1133 190.862 87.4333C190.528 87.7399 190.322 88.1333 190.242 88.6133V95.6133H188.642V85.6133H189.762L190.062 86.8333H190.142C190.395 86.3799 190.695 86.0333 191.042 85.7933C191.402 85.5399 191.855 85.4133 192.402 85.4133C192.788 85.4133 193.222 85.4799 193.702 85.6133L193.362 87.1533ZM200.158 87.1533C199.758 87.0199 199.378 86.9533 199.018 86.9533C198.445 86.9533 197.992 87.1133 197.658 87.4333C197.325 87.7399 197.118 88.1333 197.038 88.6133V95.6133H195.438V85.6133H196.558L196.858 86.8333H196.938C197.192 86.3799 197.492 86.0333 197.838 85.7933C198.198 85.5399 198.652 85.4133 199.198 85.4133C199.585 85.4133 200.018 85.4799 200.498 85.6133L200.158 87.1533ZM202.075 86.3533C202.582 86.0466 203.169 85.8199 203.835 85.6733C204.515 85.5266 205.222 85.4533 205.955 85.4533C206.649 85.4533 207.202 85.5466 207.615 85.7333C208.042 85.9199 208.362 86.1666 208.575 86.4733C208.802 86.7666 208.949 87.0933 209.015 87.4533C209.095 87.8133 209.135 88.1733 209.135 88.5333C209.135 89.3333 209.115 90.1133 209.075 90.8733C209.035 91.6333 209.015 92.3533 209.015 93.0333C209.015 93.5266 209.035 93.9933 209.075 94.4333C209.115 94.8733 209.189 95.2799 209.295 95.6533H208.115L207.695 94.2533H207.595C207.475 94.4399 207.322 94.6266 207.135 94.8133C206.962 94.9866 206.749 95.1466 206.495 95.2933C206.242 95.4266 205.949 95.5399 205.615 95.6333C205.282 95.7266 204.902 95.7733 204.475 95.7733C204.049 95.7733 203.649 95.7066 203.275 95.5733C202.915 95.4399 202.602 95.2533 202.335 95.0133C202.069 94.7599 201.855 94.4599 201.695 94.1133C201.549 93.7666 201.475 93.3733 201.475 92.9333C201.475 92.3466 201.595 91.8599 201.835 91.4733C202.075 91.0733 202.409 90.7599 202.835 90.5333C203.275 90.2933 203.795 90.1266 204.395 90.0333C205.009 89.9266 205.682 89.8733 206.415 89.8733C206.602 89.8733 206.782 89.8733 206.955 89.8733C207.142 89.8733 207.329 89.8866 207.515 89.9133C207.555 89.5133 207.575 89.1533 207.575 88.8333C207.575 88.0999 207.429 87.5866 207.135 87.2933C206.842 86.9999 206.309 86.8533 205.535 86.8533C205.309 86.8533 205.062 86.8733 204.795 86.9133C204.542 86.9399 204.275 86.9866 203.995 87.0533C203.729 87.1066 203.469 87.1799 203.215 87.2733C202.975 87.3533 202.762 87.4466 202.575 87.5533L202.075 86.3533ZM204.915 94.3733C205.289 94.3733 205.622 94.3266 205.915 94.2333C206.209 94.1266 206.462 93.9999 206.675 93.8533C206.889 93.6933 207.062 93.5199 207.195 93.3333C207.342 93.1466 207.449 92.9666 207.515 92.7933V91.1333C207.329 91.1199 207.135 91.1133 206.935 91.1133C206.749 91.0999 206.562 91.0933 206.375 91.0933C205.962 91.0933 205.555 91.1199 205.155 91.1733C204.769 91.2133 204.422 91.2999 204.115 91.4333C203.822 91.5533 203.582 91.7266 203.395 91.9533C203.222 92.1666 203.135 92.4399 203.135 92.7733C203.135 93.2399 203.302 93.6266 203.635 93.9333C203.969 94.2266 204.395 94.3733 204.915 94.3733ZM213.937 93.1533C213.937 93.6199 214.017 93.9533 214.177 94.1533C214.337 94.3533 214.564 94.4533 214.857 94.4533C215.031 94.4533 215.217 94.4399 215.417 94.4133C215.617 94.3866 215.844 94.3266 216.097 94.2333L216.277 95.4933C216.064 95.5999 215.764 95.6866 215.377 95.7533C215.004 95.8199 214.677 95.8533 214.397 95.8533C213.797 95.8533 213.304 95.6866 212.917 95.3533C212.531 95.0066 212.337 94.4266 212.337 93.6133V81.6133H213.937V93.1533ZM222.397 92.8933C222.397 92.4933 222.277 92.1799 222.037 91.9533C221.797 91.7266 221.497 91.5399 221.137 91.3933C220.79 91.2333 220.404 91.0866 219.977 90.9533C219.564 90.8066 219.177 90.6266 218.817 90.4133C218.47 90.1866 218.177 89.8999 217.937 89.5533C217.697 89.2066 217.577 88.7399 217.577 88.1533C217.577 87.1933 217.85 86.4933 218.397 86.0533C218.944 85.5999 219.704 85.3733 220.677 85.3733C221.397 85.3733 221.997 85.4399 222.477 85.5733C222.97 85.6933 223.397 85.8399 223.757 86.0133L223.377 87.3333C223.07 87.1866 222.697 87.0599 222.257 86.9533C221.83 86.8333 221.37 86.7733 220.877 86.7733C220.29 86.7733 219.857 86.8733 219.577 87.0733C219.31 87.2733 219.177 87.6199 219.177 88.1133C219.177 88.4599 219.297 88.7333 219.537 88.9333C219.777 89.1199 220.07 89.2933 220.417 89.4533C220.777 89.5999 221.164 89.7466 221.577 89.8933C222.004 90.0399 222.39 90.2333 222.737 90.4733C223.097 90.7133 223.397 91.0199 223.637 91.3933C223.877 91.7533 223.997 92.2333 223.997 92.8333C223.997 93.2599 223.924 93.6599 223.777 94.0333C223.644 94.4066 223.43 94.7266 223.137 94.9933C222.844 95.2599 222.477 95.4666 222.037 95.6133C221.61 95.7733 221.104 95.8533 220.517 95.8533C219.757 95.8533 219.11 95.7799 218.577 95.6333C218.044 95.4866 217.597 95.3133 217.237 95.1133L217.717 93.7533C218.024 93.9266 218.424 94.0866 218.917 94.2333C219.41 94.3799 219.91 94.4533 220.417 94.4533C220.99 94.4533 221.464 94.3399 221.837 94.1133C222.21 93.8866 222.397 93.4799 222.397 92.8933ZM79.8865 115.393C79.8865 114.98 79.9598 114.607 80.1065 114.273C80.2532 113.927 80.4465 113.633 80.6865 113.393C80.9398 113.14 81.2332 112.947 81.5665 112.813C81.9132 112.68 82.2798 112.613 82.6665 112.613C83.0532 112.613 83.4132 112.68 83.7465 112.813C84.0932 112.933 84.3865 113.113 84.6265 113.353C84.8798 113.593 85.0798 113.887 85.2265 114.233C85.3732 114.567 85.4465 114.953 85.4465 115.393C85.4465 115.833 85.3732 116.227 85.2265 116.573C85.0798 116.907 84.8798 117.193 84.6265 117.433C84.3865 117.673 84.0932 117.86 83.7465 117.993C83.4132 118.113 83.0532 118.173 82.6665 118.173C82.2798 118.173 81.9132 118.113 81.5665 117.993C81.2332 117.86 80.9398 117.673 80.6865 117.433C80.4465 117.193 80.2532 116.907 80.1065 116.573C79.9598 116.227 79.8865 115.833 79.8865 115.393ZM102.508 121.853C101.775 121.84 101.121 121.773 100.548 121.653C99.988 121.547 99.5346 121.4 99.188 121.213L99.728 119.753C99.9946 119.913 100.355 120.06 100.808 120.193C101.275 120.327 101.841 120.4 102.508 120.413V115.013C102.108 114.813 101.708 114.6 101.308 114.373C100.921 114.147 100.575 113.88 100.268 113.573C99.9613 113.253 99.7146 112.88 99.528 112.453C99.3413 112.027 99.248 111.52 99.248 110.933C99.248 109.973 99.5146 109.187 100.048 108.573C100.595 107.96 101.415 107.58 102.508 107.433V105.613H103.868V107.373C104.548 107.4 105.101 107.467 105.528 107.573C105.968 107.667 106.361 107.793 106.708 107.953L106.228 109.353C105.961 109.22 105.641 109.107 105.268 109.013C104.895 108.907 104.428 108.84 103.868 108.813V113.753C104.281 113.967 104.695 114.2 105.108 114.453C105.521 114.693 105.888 114.973 106.208 115.293C106.541 115.613 106.808 115.987 107.008 116.413C107.208 116.84 107.308 117.34 107.308 117.913C107.308 118.953 107.015 119.813 106.428 120.493C105.855 121.16 105.001 121.587 103.868 121.773V123.613H102.508V121.853ZM105.648 118.053C105.648 117.733 105.588 117.447 105.468 117.193C105.361 116.94 105.215 116.713 105.028 116.513C104.841 116.313 104.621 116.133 104.368 115.973C104.115 115.813 103.841 115.66 103.548 115.513V120.373C104.161 120.28 104.661 120.047 105.048 119.673C105.448 119.287 105.648 118.747 105.648 118.053ZM100.908 110.833C100.908 111.407 101.088 111.873 101.448 112.233C101.821 112.593 102.281 112.92 102.828 113.213V108.833C102.121 108.913 101.621 109.147 101.328 109.533C101.048 109.92 100.908 110.353 100.908 110.833ZM110.726 120.133H113.526V110.453L113.726 109.273L112.926 110.213L110.726 111.793L109.966 110.773L114.366 107.373H115.086V120.133H117.826V121.613H110.726V120.133ZM120.325 114.613C120.325 112.213 120.712 110.407 121.485 109.193C122.272 107.98 123.412 107.373 124.905 107.373C126.518 107.373 127.685 107.973 128.405 109.173C129.138 110.36 129.505 112.173 129.505 114.613C129.505 117.013 129.112 118.82 128.325 120.033C127.552 121.247 126.412 121.853 124.905 121.853C123.318 121.853 122.158 121.22 121.425 119.953C120.692 118.687 120.325 116.907 120.325 114.613ZM121.985 114.613C121.985 115.48 122.038 116.273 122.145 116.993C122.265 117.7 122.445 118.313 122.685 118.833C122.925 119.34 123.225 119.74 123.585 120.033C123.958 120.313 124.398 120.453 124.905 120.453C125.918 120.453 126.658 119.987 127.125 119.053C127.605 118.107 127.845 116.627 127.845 114.613C127.845 113.76 127.792 112.973 127.685 112.253C127.592 111.533 127.425 110.913 127.185 110.393C126.958 109.873 126.658 109.473 126.285 109.193C125.912 108.913 125.452 108.773 124.905 108.773C123.905 108.773 123.165 109.247 122.685 110.193C122.218 111.14 121.985 112.613 121.985 114.613ZM136.135 111.613H137.695V111.053C137.695 110.44 137.742 109.907 137.835 109.453C137.942 109 138.109 108.633 138.335 108.353C138.562 108.06 138.855 107.847 139.215 107.713C139.575 107.567 140.022 107.493 140.555 107.493C140.982 107.493 141.355 107.52 141.675 107.573C142.009 107.627 142.355 107.727 142.715 107.873L142.355 109.213C142.049 109.08 141.755 108.993 141.475 108.953C141.209 108.913 140.955 108.893 140.715 108.893C140.369 108.893 140.095 108.947 139.895 109.053C139.709 109.16 139.569 109.32 139.475 109.533C139.395 109.733 139.342 109.987 139.315 110.293C139.302 110.587 139.295 110.933 139.295 111.333V111.613H141.955V113.013H139.295V121.613H137.695V113.013H136.135V111.613ZM142.847 116.613C142.847 114.92 143.221 113.627 143.967 112.733C144.727 111.827 145.814 111.373 147.227 111.373C147.974 111.373 148.621 111.5 149.167 111.753C149.727 111.993 150.187 112.347 150.547 112.813C150.907 113.267 151.174 113.82 151.347 114.473C151.521 115.113 151.607 115.827 151.607 116.613C151.607 118.307 151.227 119.607 150.467 120.513C149.721 121.407 148.641 121.853 147.227 121.853C146.481 121.853 145.827 121.733 145.267 121.493C144.721 121.24 144.267 120.887 143.907 120.433C143.547 119.967 143.281 119.413 143.107 118.773C142.934 118.12 142.847 117.4 142.847 116.613ZM144.507 116.613C144.507 117.12 144.554 117.607 144.647 118.073C144.754 118.54 144.914 118.947 145.127 119.293C145.341 119.64 145.621 119.92 145.967 120.133C146.314 120.347 146.734 120.453 147.227 120.453C149.041 120.467 149.947 119.187 149.947 116.613C149.947 116.093 149.894 115.6 149.787 115.133C149.694 114.667 149.541 114.26 149.327 113.913C149.114 113.567 148.834 113.293 148.487 113.093C148.141 112.88 147.721 112.773 147.227 112.773C145.414 112.76 144.507 114.04 144.507 116.613ZM158.85 113.153C158.45 113.02 158.07 112.953 157.71 112.953C157.137 112.953 156.683 113.113 156.35 113.433C156.017 113.74 155.81 114.133 155.73 114.613V121.613H154.13V111.613H155.25L155.55 112.833H155.63C155.883 112.38 156.183 112.033 156.53 111.793C156.89 111.54 157.343 111.413 157.89 111.413C158.277 111.413 158.71 111.48 159.19 111.613L158.85 113.153ZM170.979 113.153C170.579 113.02 170.199 112.953 169.839 112.953C169.265 112.953 168.812 113.113 168.479 113.433C168.145 113.74 167.939 114.133 167.859 114.613V121.613H166.259V111.613H167.379L167.679 112.833H167.759C168.012 112.38 168.312 112.033 168.659 111.793C169.019 111.54 169.472 111.413 170.019 111.413C170.405 111.413 170.839 111.48 171.319 111.613L170.979 113.153ZM180.356 120.813C179.956 121.133 179.449 121.387 178.836 121.573C178.236 121.76 177.596 121.853 176.916 121.853C176.156 121.853 175.496 121.733 174.936 121.493C174.376 121.24 173.916 120.887 173.556 120.433C173.196 119.967 172.929 119.413 172.756 118.773C172.582 118.133 172.496 117.413 172.496 116.613C172.496 114.907 172.876 113.607 173.636 112.713C174.396 111.82 175.482 111.373 176.896 111.373C177.349 111.373 177.802 111.427 178.256 111.533C178.709 111.627 179.116 111.813 179.476 112.093C179.836 112.373 180.129 112.773 180.356 113.293C180.582 113.8 180.696 114.473 180.696 115.313C180.696 115.753 180.656 116.24 180.576 116.773H174.156C174.156 117.36 174.216 117.88 174.336 118.333C174.456 118.787 174.642 119.173 174.896 119.493C175.149 119.8 175.476 120.04 175.876 120.213C176.289 120.373 176.789 120.453 177.376 120.453C177.829 120.453 178.282 120.373 178.736 120.213C179.189 120.053 179.529 119.867 179.756 119.653L180.356 120.813ZM176.916 112.773C176.129 112.773 175.496 112.98 175.016 113.393C174.549 113.807 174.269 114.513 174.176 115.513H179.136C179.136 114.5 178.942 113.793 178.556 113.393C178.169 112.98 177.622 112.773 176.916 112.773ZM187.612 118.893C187.612 118.493 187.492 118.18 187.252 117.953C187.012 117.727 186.712 117.54 186.352 117.393C186.005 117.233 185.619 117.087 185.192 116.953C184.779 116.807 184.392 116.627 184.032 116.413C183.685 116.187 183.392 115.9 183.152 115.553C182.912 115.207 182.792 114.74 182.792 114.153C182.792 113.193 183.065 112.493 183.612 112.053C184.159 111.6 184.919 111.373 185.892 111.373C186.612 111.373 187.212 111.44 187.692 111.573C188.185 111.693 188.612 111.84 188.972 112.013L188.592 113.333C188.285 113.187 187.912 113.06 187.472 112.953C187.045 112.833 186.585 112.773 186.092 112.773C185.505 112.773 185.072 112.873 184.792 113.073C184.525 113.273 184.392 113.62 184.392 114.113C184.392 114.46 184.512 114.733 184.752 114.933C184.992 115.12 185.285 115.293 185.632 115.453C185.992 115.6 186.379 115.747 186.792 115.893C187.219 116.04 187.605 116.233 187.952 116.473C188.312 116.713 188.612 117.02 188.852 117.393C189.092 117.753 189.212 118.233 189.212 118.833C189.212 119.26 189.139 119.66 188.992 120.033C188.859 120.407 188.645 120.727 188.352 120.993C188.059 121.26 187.692 121.467 187.252 121.613C186.825 121.773 186.319 121.853 185.732 121.853C184.972 121.853 184.325 121.78 183.792 121.633C183.259 121.487 182.812 121.313 182.452 121.113L182.932 119.753C183.239 119.927 183.639 120.087 184.132 120.233C184.625 120.38 185.125 120.453 185.632 120.453C186.205 120.453 186.679 120.34 187.052 120.113C187.425 119.887 187.612 119.48 187.612 118.893ZM193.07 111.613V117.313C193.07 117.833 193.097 118.293 193.15 118.693C193.217 119.08 193.323 119.407 193.47 119.673C193.617 119.927 193.817 120.12 194.07 120.253C194.323 120.387 194.643 120.453 195.03 120.453C195.39 120.453 195.71 120.4 195.99 120.293C196.27 120.173 196.517 120.013 196.73 119.813C196.957 119.613 197.15 119.387 197.31 119.133C197.483 118.867 197.623 118.587 197.73 118.293V111.613H199.33V118.773C199.33 119.253 199.343 119.753 199.37 120.273C199.41 120.78 199.47 121.227 199.55 121.613H198.45L198.05 120.033H197.95C197.643 120.553 197.23 120.987 196.71 121.333C196.19 121.68 195.53 121.853 194.73 121.853C194.197 121.853 193.723 121.787 193.31 121.653C192.91 121.533 192.57 121.313 192.29 120.993C192.023 120.673 191.817 120.247 191.67 119.713C191.537 119.167 191.47 118.48 191.47 117.653V111.613H193.07ZM208.271 121.613V115.953C208.271 115.42 208.244 114.96 208.191 114.573C208.151 114.173 208.064 113.84 207.931 113.573C207.798 113.307 207.604 113.107 207.351 112.973C207.111 112.84 206.791 112.773 206.391 112.773C205.778 112.773 205.264 112.96 204.851 113.333C204.451 113.707 204.171 114.173 204.011 114.733V121.613H202.411V111.613H203.531L203.831 112.833H203.911C204.271 112.407 204.684 112.06 205.151 111.793C205.631 111.513 206.251 111.373 207.011 111.373C207.651 111.373 208.171 111.5 208.571 111.753C208.984 111.993 209.304 112.42 209.531 113.033C209.838 112.513 210.258 112.107 210.791 111.813C211.338 111.52 211.951 111.373 212.631 111.373C213.191 111.373 213.664 111.44 214.051 111.573C214.438 111.693 214.758 111.913 215.011 112.233C215.264 112.553 215.444 112.987 215.551 113.533C215.671 114.08 215.731 114.773 215.731 115.613V121.613H214.131V115.593C214.131 115.113 214.104 114.7 214.051 114.353C214.011 113.993 213.918 113.7 213.771 113.473C213.638 113.233 213.444 113.06 213.191 112.953C212.951 112.833 212.631 112.773 212.231 112.773C211.564 112.773 211.044 112.96 210.671 113.333C210.298 113.707 210.031 114.24 209.871 114.933V121.613H208.271ZM225.942 120.813C225.542 121.133 225.035 121.387 224.422 121.573C223.822 121.76 223.182 121.853 222.502 121.853C221.742 121.853 221.082 121.733 220.522 121.493C219.962 121.24 219.502 120.887 219.142 120.433C218.782 119.967 218.515 119.413 218.342 118.773C218.168 118.133 218.082 117.413 218.082 116.613C218.082 114.907 218.462 113.607 219.222 112.713C219.982 111.82 221.068 111.373 222.482 111.373C222.935 111.373 223.388 111.427 223.842 111.533C224.295 111.627 224.702 111.813 225.062 112.093C225.422 112.373 225.715 112.773 225.942 113.293C226.168 113.8 226.282 114.473 226.282 115.313C226.282 115.753 226.242 116.24 226.162 116.773H219.742C219.742 117.36 219.802 117.88 219.922 118.333C220.042 118.787 220.228 119.173 220.482 119.493C220.735 119.8 221.062 120.04 221.462 120.213C221.875 120.373 222.375 120.453 222.962 120.453C223.415 120.453 223.868 120.373 224.322 120.213C224.775 120.053 225.115 119.867 225.342 119.653L225.942 120.813ZM222.502 112.773C221.715 112.773 221.082 112.98 220.602 113.393C220.135 113.807 219.855 114.513 219.762 115.513H224.722C224.722 114.5 224.528 113.793 224.142 113.393C223.755 112.98 223.208 112.773 222.502 112.773ZM238.85 113.153C238.45 113.02 238.07 112.953 237.71 112.953C237.137 112.953 236.683 113.113 236.35 113.433C236.017 113.74 235.81 114.133 235.73 114.613V121.613H234.13V111.613H235.25L235.55 112.833H235.63C235.883 112.38 236.183 112.033 236.53 111.793C236.89 111.54 237.343 111.413 237.89 111.413C238.277 111.413 238.71 111.48 239.19 111.613L238.85 113.153ZM248.227 120.813C247.827 121.133 247.32 121.387 246.707 121.573C246.107 121.76 245.467 121.853 244.787 121.853C244.027 121.853 243.367 121.733 242.807 121.493C242.247 121.24 241.787 120.887 241.427 120.433C241.067 119.967 240.8 119.413 240.627 118.773C240.453 118.133 240.367 117.413 240.367 116.613C240.367 114.907 240.747 113.607 241.507 112.713C242.267 111.82 243.353 111.373 244.767 111.373C245.22 111.373 245.673 111.427 246.127 111.533C246.58 111.627 246.987 111.813 247.347 112.093C247.707 112.373 248 112.773 248.227 113.293C248.453 113.8 248.567 114.473 248.567 115.313C248.567 115.753 248.527 116.24 248.447 116.773H242.027C242.027 117.36 242.087 117.88 242.207 118.333C242.327 118.787 242.513 119.173 242.767 119.493C243.02 119.8 243.347 120.04 243.747 120.213C244.16 120.373 244.66 120.453 245.247 120.453C245.7 120.453 246.153 120.373 246.607 120.213C247.06 120.053 247.4 119.867 247.627 119.653L248.227 120.813ZM244.787 112.773C244 112.773 243.367 112.98 242.887 113.393C242.42 113.807 242.14 114.513 242.047 115.513H247.007C247.007 114.5 246.813 113.793 246.427 113.393C246.04 112.98 245.493 112.773 244.787 112.773ZM253.514 117.473L254.074 119.373H254.094L254.594 117.433L256.834 111.613H258.554L254.294 121.833H253.614L249.274 111.613H251.114L253.514 117.473ZM260.622 111.613H262.222V121.613H260.622V111.613ZM260.282 108.573C260.282 108.267 260.382 108.007 260.582 107.793C260.796 107.567 261.062 107.453 261.382 107.453C261.702 107.453 261.976 107.567 262.202 107.793C262.429 108.007 262.542 108.267 262.542 108.573C262.542 108.88 262.429 109.133 262.202 109.333C261.976 109.533 261.702 109.633 261.382 109.633C261.062 109.633 260.796 109.533 260.582 109.333C260.382 109.133 260.282 108.88 260.282 108.573ZM272.934 120.813C272.534 121.133 272.027 121.387 271.414 121.573C270.814 121.76 270.174 121.853 269.494 121.853C268.734 121.853 268.074 121.733 267.514 121.493C266.954 121.24 266.494 120.887 266.134 120.433C265.774 119.967 265.507 119.413 265.334 118.773C265.16 118.133 265.074 117.413 265.074 116.613C265.074 114.907 265.454 113.607 266.214 112.713C266.974 111.82 268.06 111.373 269.474 111.373C269.927 111.373 270.38 111.427 270.834 111.533C271.287 111.627 271.694 111.813 272.054 112.093C272.414 112.373 272.707 112.773 272.934 113.293C273.16 113.8 273.274 114.473 273.274 115.313C273.274 115.753 273.234 116.24 273.154 116.773H266.734C266.734 117.36 266.794 117.88 266.914 118.333C267.034 118.787 267.22 119.173 267.474 119.493C267.727 119.8 268.054 120.04 268.454 120.213C268.867 120.373 269.367 120.453 269.954 120.453C270.407 120.453 270.86 120.373 271.314 120.213C271.767 120.053 272.107 119.867 272.334 119.653L272.934 120.813ZM269.494 112.773C268.707 112.773 268.074 112.98 267.594 113.393C267.127 113.807 266.847 114.513 266.754 115.513H271.714C271.714 114.5 271.52 113.793 271.134 113.393C270.747 112.98 270.2 112.773 269.494 112.773ZM282.055 111.613L284.355 117.453L284.855 119.373H284.895L285.275 117.413L287.055 111.613H288.575L285.215 121.833H284.435L281.815 115.233L281.435 113.593H281.375L280.975 115.253L278.455 121.833H277.675L274.195 111.613H275.935L277.915 117.433L278.255 119.373H278.275L278.755 117.393L280.895 111.613H282.055ZM79.8865 141.393C79.8865 140.98 79.9598 140.607 80.1065 140.273C80.2532 139.927 80.4465 139.633 80.6865 139.393C80.9398 139.14 81.2332 138.947 81.5665 138.813C81.9132 138.68 82.2798 138.613 82.6665 138.613C83.0532 138.613 83.4132 138.68 83.7465 138.813C84.0932 138.933 84.3865 139.113 84.6265 139.353C84.8798 139.593 85.0798 139.887 85.2265 140.233C85.3732 140.567 85.4465 140.953 85.4465 141.393C85.4465 141.833 85.3732 142.227 85.2265 142.573C85.0798 142.907 84.8798 143.193 84.6265 143.433C84.3865 143.673 84.0932 143.86 83.7465 143.993C83.4132 144.113 83.0532 144.173 82.6665 144.173C82.2798 144.173 81.9132 144.113 81.5665 143.993C81.2332 143.86 80.9398 143.673 80.6865 143.433C80.4465 143.193 80.2532 142.907 80.1065 142.573C79.9598 142.227 79.8865 141.833 79.8865 141.393ZM102.508 147.853C101.775 147.84 101.121 147.773 100.548 147.653C99.988 147.547 99.5346 147.4 99.188 147.213L99.728 145.753C99.9946 145.913 100.355 146.06 100.808 146.193C101.275 146.327 101.841 146.4 102.508 146.413V141.013C102.108 140.813 101.708 140.6 101.308 140.373C100.921 140.147 100.575 139.88 100.268 139.573C99.9613 139.253 99.7146 138.88 99.528 138.453C99.3413 138.027 99.248 137.52 99.248 136.933C99.248 135.973 99.5146 135.187 100.048 134.573C100.595 133.96 101.415 133.58 102.508 133.433V131.613H103.868V133.373C104.548 133.4 105.101 133.467 105.528 133.573C105.968 133.667 106.361 133.793 106.708 133.953L106.228 135.353C105.961 135.22 105.641 135.107 105.268 135.013C104.895 134.907 104.428 134.84 103.868 134.813V139.753C104.281 139.967 104.695 140.2 105.108 140.453C105.521 140.693 105.888 140.973 106.208 141.293C106.541 141.613 106.808 141.987 107.008 142.413C107.208 142.84 107.308 143.34 107.308 143.913C107.308 144.953 107.015 145.813 106.428 146.493C105.855 147.16 105.001 147.587 103.868 147.773V149.613H102.508V147.853ZM105.648 144.053C105.648 143.733 105.588 143.447 105.468 143.193C105.361 142.94 105.215 142.713 105.028 142.513C104.841 142.313 104.621 142.133 104.368 141.973C104.115 141.813 103.841 141.66 103.548 141.513V146.373C104.161 146.28 104.661 146.047 105.048 145.673C105.448 145.287 105.648 144.747 105.648 144.053ZM100.908 136.833C100.908 137.407 101.088 137.873 101.448 138.233C101.821 138.593 102.281 138.92 102.828 139.213V134.833C102.121 134.913 101.621 135.147 101.328 135.533C101.048 135.92 100.908 136.353 100.908 136.833ZM117.486 136.793C117.486 137.5 117.353 138.227 117.086 138.973C116.833 139.707 116.493 140.447 116.066 141.193C115.653 141.94 115.186 142.673 114.666 143.393C114.146 144.1 113.626 144.773 113.106 145.413L112.126 146.273V146.353L113.406 146.133H117.766V147.613H109.806V147.033C110.1 146.727 110.453 146.347 110.866 145.893C111.28 145.44 111.706 144.94 112.146 144.393C112.6 143.833 113.04 143.247 113.466 142.633C113.906 142.007 114.3 141.373 114.646 140.733C115.006 140.093 115.293 139.46 115.506 138.833C115.72 138.207 115.826 137.613 115.826 137.053C115.826 136.4 115.64 135.86 115.266 135.433C114.893 134.993 114.326 134.773 113.566 134.773C113.06 134.773 112.566 134.88 112.086 135.093C111.606 135.293 111.193 135.527 110.846 135.793L110.186 134.653C110.653 134.253 111.206 133.94 111.846 133.713C112.486 133.487 113.173 133.373 113.906 133.373C114.48 133.373 114.986 133.46 115.426 133.633C115.866 133.793 116.24 134.027 116.546 134.333C116.853 134.64 117.086 135.007 117.246 135.433C117.406 135.847 117.486 136.3 117.486 136.793ZM120.325 140.613C120.325 138.213 120.712 136.407 121.485 135.193C122.272 133.98 123.412 133.373 124.905 133.373C126.518 133.373 127.685 133.973 128.405 135.173C129.138 136.36 129.505 138.173 129.505 140.613C129.505 143.013 129.112 144.82 128.325 146.033C127.552 147.247 126.412 147.853 124.905 147.853C123.318 147.853 122.158 147.22 121.425 145.953C120.692 144.687 120.325 142.907 120.325 140.613ZM121.985 140.613C121.985 141.48 122.038 142.273 122.145 142.993C122.265 143.7 122.445 144.313 122.685 144.833C122.925 145.34 123.225 145.74 123.585 146.033C123.958 146.313 124.398 146.453 124.905 146.453C125.918 146.453 126.658 145.987 127.125 145.053C127.605 144.107 127.845 142.627 127.845 140.613C127.845 139.76 127.792 138.973 127.685 138.253C127.592 137.533 127.425 136.913 127.185 136.393C126.958 135.873 126.658 135.473 126.285 135.193C125.912 134.913 125.452 134.773 124.905 134.773C123.905 134.773 123.165 135.247 122.685 136.193C122.218 137.14 121.985 138.613 121.985 140.613ZM136.135 137.613H137.695V137.053C137.695 136.44 137.742 135.907 137.835 135.453C137.942 135 138.109 134.633 138.335 134.353C138.562 134.06 138.855 133.847 139.215 133.713C139.575 133.567 140.022 133.493 140.555 133.493C140.982 133.493 141.355 133.52 141.675 133.573C142.009 133.627 142.355 133.727 142.715 133.873L142.355 135.213C142.049 135.08 141.755 134.993 141.475 134.953C141.209 134.913 140.955 134.893 140.715 134.893C140.369 134.893 140.095 134.947 139.895 135.053C139.709 135.16 139.569 135.32 139.475 135.533C139.395 135.733 139.342 135.987 139.315 136.293C139.302 136.587 139.295 136.933 139.295 137.333V137.613H141.955V139.013H139.295V147.613H137.695V139.013H136.135V137.613ZM142.847 142.613C142.847 140.92 143.221 139.627 143.967 138.733C144.727 137.827 145.814 137.373 147.227 137.373C147.974 137.373 148.621 137.5 149.167 137.753C149.727 137.993 150.187 138.347 150.547 138.813C150.907 139.267 151.174 139.82 151.347 140.473C151.521 141.113 151.607 141.827 151.607 142.613C151.607 144.307 151.227 145.607 150.467 146.513C149.721 147.407 148.641 147.853 147.227 147.853C146.481 147.853 145.827 147.733 145.267 147.493C144.721 147.24 144.267 146.887 143.907 146.433C143.547 145.967 143.281 145.413 143.107 144.773C142.934 144.12 142.847 143.4 142.847 142.613ZM144.507 142.613C144.507 143.12 144.554 143.607 144.647 144.073C144.754 144.54 144.914 144.947 145.127 145.293C145.341 145.64 145.621 145.92 145.967 146.133C146.314 146.347 146.734 146.453 147.227 146.453C149.041 146.467 149.947 145.187 149.947 142.613C149.947 142.093 149.894 141.6 149.787 141.133C149.694 140.667 149.541 140.26 149.327 139.913C149.114 139.567 148.834 139.293 148.487 139.093C148.141 138.88 147.721 138.773 147.227 138.773C145.414 138.76 144.507 140.04 144.507 142.613ZM158.85 139.153C158.45 139.02 158.07 138.953 157.71 138.953C157.137 138.953 156.683 139.113 156.35 139.433C156.017 139.74 155.81 140.133 155.73 140.613V147.613H154.13V137.613H155.25L155.55 138.833H155.63C155.883 138.38 156.183 138.033 156.53 137.793C156.89 137.54 157.343 137.413 157.89 137.413C158.277 137.413 158.71 137.48 159.19 137.613L158.85 139.153ZM166.099 138.353C166.605 138.047 167.192 137.82 167.859 137.673C168.539 137.527 169.245 137.453 169.979 137.453C170.672 137.453 171.225 137.547 171.639 137.733C172.065 137.92 172.385 138.167 172.599 138.473C172.825 138.767 172.972 139.093 173.039 139.453C173.119 139.813 173.159 140.173 173.159 140.533C173.159 141.333 173.139 142.113 173.099 142.873C173.059 143.633 173.039 144.353 173.039 145.033C173.039 145.527 173.059 145.993 173.099 146.433C173.139 146.873 173.212 147.28 173.319 147.653H172.139L171.719 146.253H171.619C171.499 146.44 171.345 146.627 171.159 146.813C170.985 146.987 170.772 147.147 170.519 147.293C170.265 147.427 169.972 147.54 169.639 147.633C169.305 147.727 168.925 147.773 168.499 147.773C168.072 147.773 167.672 147.707 167.299 147.573C166.939 147.44 166.625 147.253 166.359 147.013C166.092 146.76 165.879 146.46 165.719 146.113C165.572 145.767 165.499 145.373 165.499 144.933C165.499 144.347 165.619 143.86 165.859 143.473C166.099 143.073 166.432 142.76 166.859 142.533C167.299 142.293 167.819 142.127 168.419 142.033C169.032 141.927 169.705 141.873 170.439 141.873C170.625 141.873 170.805 141.873 170.979 141.873C171.165 141.873 171.352 141.887 171.539 141.913C171.579 141.513 171.599 141.153 171.599 140.833C171.599 140.1 171.452 139.587 171.159 139.293C170.865 139 170.332 138.853 169.559 138.853C169.332 138.853 169.085 138.873 168.819 138.913C168.565 138.94 168.299 138.987 168.019 139.053C167.752 139.107 167.492 139.18 167.239 139.273C166.999 139.353 166.785 139.447 166.599 139.553L166.099 138.353ZM168.939 146.373C169.312 146.373 169.645 146.327 169.939 146.233C170.232 146.127 170.485 146 170.699 145.853C170.912 145.693 171.085 145.52 171.219 145.333C171.365 145.147 171.472 144.967 171.539 144.793V143.133C171.352 143.12 171.159 143.113 170.959 143.113C170.772 143.1 170.585 143.093 170.399 143.093C169.985 143.093 169.579 143.12 169.179 143.173C168.792 143.213 168.445 143.3 168.139 143.433C167.845 143.553 167.605 143.727 167.419 143.953C167.245 144.167 167.159 144.44 167.159 144.773C167.159 145.24 167.325 145.627 167.659 145.933C167.992 146.227 168.419 146.373 168.939 146.373ZM184.653 146.453C185.106 146.453 185.526 146.387 185.913 146.253C186.299 146.12 186.633 145.927 186.913 145.673C187.193 145.407 187.413 145.093 187.573 144.733C187.733 144.373 187.813 143.98 187.813 143.553C187.813 142.62 187.533 141.927 186.973 141.473C186.426 141.02 185.666 140.793 184.693 140.793H183.213V140.213L186.093 135.773L187.013 134.893L185.713 135.093H181.753V133.613H188.893V134.193L185.713 138.973L185.013 139.553V139.593L185.693 139.453C186.226 139.467 186.719 139.567 187.173 139.753C187.626 139.927 188.019 140.187 188.353 140.533C188.686 140.867 188.946 141.273 189.133 141.753C189.319 142.22 189.413 142.753 189.413 143.353C189.413 144.073 189.286 144.713 189.033 145.273C188.779 145.833 188.433 146.307 187.993 146.693C187.566 147.067 187.059 147.353 186.473 147.553C185.886 147.753 185.266 147.853 184.613 147.853C184.013 147.853 183.473 147.807 182.993 147.713C182.513 147.62 182.093 147.5 181.733 147.353L182.153 145.933C182.459 146.08 182.819 146.207 183.233 146.313C183.659 146.407 184.133 146.453 184.653 146.453ZM191.731 140.613C191.731 138.213 192.118 136.407 192.891 135.193C193.678 133.98 194.818 133.373 196.311 133.373C197.924 133.373 199.091 133.973 199.811 135.173C200.544 136.36 200.911 138.173 200.911 140.613C200.911 143.013 200.518 144.82 199.731 146.033C198.958 147.247 197.818 147.853 196.311 147.853C194.724 147.853 193.564 147.22 192.831 145.953C192.098 144.687 191.731 142.907 191.731 140.613ZM193.391 140.613C193.391 141.48 193.444 142.273 193.551 142.993C193.671 143.7 193.851 144.313 194.091 144.833C194.331 145.34 194.631 145.74 194.991 146.033C195.364 146.313 195.804 146.453 196.311 146.453C197.324 146.453 198.064 145.987 198.531 145.053C199.011 144.107 199.251 142.627 199.251 140.613C199.251 139.76 199.198 138.973 199.091 138.253C198.998 137.533 198.831 136.913 198.591 136.393C198.364 135.873 198.064 135.473 197.691 135.193C197.318 134.913 196.858 134.773 196.311 134.773C195.311 134.773 194.571 135.247 194.091 136.193C193.624 137.14 193.391 138.613 193.391 140.613ZM214.502 147.613V141.953C214.502 141.42 214.475 140.96 214.422 140.573C214.382 140.173 214.295 139.84 214.162 139.573C214.028 139.307 213.835 139.107 213.582 138.973C213.342 138.84 213.022 138.773 212.622 138.773C212.008 138.773 211.495 138.96 211.082 139.333C210.682 139.707 210.402 140.173 210.242 140.733V147.613H208.642V137.613H209.762L210.062 138.833H210.142C210.502 138.407 210.915 138.06 211.382 137.793C211.862 137.513 212.482 137.373 213.242 137.373C213.882 137.373 214.402 137.5 214.802 137.753C215.215 137.993 215.535 138.42 215.762 139.033C216.068 138.513 216.488 138.107 217.022 137.813C217.568 137.52 218.182 137.373 218.862 137.373C219.422 137.373 219.895 137.44 220.282 137.573C220.668 137.693 220.988 137.913 221.242 138.233C221.495 138.553 221.675 138.987 221.782 139.533C221.902 140.08 221.962 140.773 221.962 141.613V147.613H220.362V141.593C220.362 141.113 220.335 140.7 220.282 140.353C220.242 139.993 220.148 139.7 220.002 139.473C219.868 139.233 219.675 139.06 219.422 138.953C219.182 138.833 218.862 138.773 218.462 138.773C217.795 138.773 217.275 138.96 216.902 139.333C216.528 139.707 216.262 140.24 216.102 140.933V147.613H214.502ZM225.212 137.613H226.812V147.613H225.212V137.613ZM224.872 134.573C224.872 134.267 224.972 134.007 225.172 133.793C225.385 133.567 225.652 133.453 225.972 133.453C226.292 133.453 226.565 133.567 226.792 133.793C227.019 134.007 227.132 134.267 227.132 134.573C227.132 134.88 227.019 135.133 226.792 135.333C226.565 135.533 226.292 135.633 225.972 135.633C225.652 135.633 225.385 135.533 225.172 135.333C224.972 135.133 224.872 134.88 224.872 134.573ZM236.644 147.613V141.913C236.644 140.873 236.49 140.093 236.184 139.573C235.89 139.04 235.344 138.773 234.544 138.773C233.837 138.773 233.25 138.967 232.784 139.353C232.33 139.727 232.01 140.2 231.824 140.773V147.613H230.224V137.613H231.344L231.644 138.833H231.724C232.044 138.407 232.47 138.06 233.004 137.793C233.55 137.513 234.197 137.373 234.944 137.373C235.49 137.373 235.97 137.44 236.384 137.573C236.797 137.693 237.137 137.913 237.404 138.233C237.684 138.553 237.89 138.987 238.024 139.533C238.17 140.067 238.244 140.747 238.244 141.573V147.613H236.644ZM242.601 137.613V143.313C242.601 143.833 242.628 144.293 242.681 144.693C242.748 145.08 242.854 145.407 243.001 145.673C243.148 145.927 243.348 146.12 243.601 146.253C243.854 146.387 244.174 146.453 244.561 146.453C244.921 146.453 245.241 146.4 245.521 146.293C245.801 146.173 246.048 146.013 246.261 145.813C246.488 145.613 246.681 145.387 246.841 145.133C247.014 144.867 247.154 144.587 247.261 144.293V137.613H248.861V144.773C248.861 145.253 248.874 145.753 248.901 146.273C248.941 146.78 249.001 147.227 249.081 147.613H247.981L247.581 146.033H247.481C247.174 146.553 246.761 146.987 246.241 147.333C245.721 147.68 245.061 147.853 244.261 147.853C243.728 147.853 243.254 147.787 242.841 147.653C242.441 147.533 242.101 147.313 241.821 146.993C241.554 146.673 241.348 146.247 241.201 145.713C241.068 145.167 241.001 144.48 241.001 143.653V137.613H242.601ZM250.622 137.613H252.182V135.633L253.782 135.173V137.613H256.502V139.013H253.782V144.553C253.782 145.247 253.869 145.74 254.042 146.033C254.216 146.313 254.509 146.453 254.922 146.453C255.269 146.453 255.562 146.42 255.802 146.353C256.042 146.273 256.309 146.173 256.602 146.053L256.962 147.273C256.602 147.447 256.209 147.587 255.782 147.693C255.356 147.8 254.896 147.853 254.402 147.853C253.589 147.853 253.016 147.627 252.682 147.173C252.349 146.707 252.182 145.933 252.182 144.853V139.013H250.622V137.613ZM265.805 146.813C265.405 147.133 264.898 147.387 264.285 147.573C263.685 147.76 263.045 147.853 262.365 147.853C261.605 147.853 260.945 147.733 260.385 147.493C259.825 147.24 259.365 146.887 259.005 146.433C258.645 145.967 258.378 145.413 258.205 144.773C258.032 144.133 257.945 143.413 257.945 142.613C257.945 140.907 258.325 139.607 259.085 138.713C259.845 137.82 260.932 137.373 262.345 137.373C262.798 137.373 263.252 137.427 263.705 137.533C264.158 137.627 264.565 137.813 264.925 138.093C265.285 138.373 265.578 138.773 265.805 139.293C266.032 139.8 266.145 140.473 266.145 141.313C266.145 141.753 266.105 142.24 266.025 142.773H259.605C259.605 143.36 259.665 143.88 259.785 144.333C259.905 144.787 260.092 145.173 260.345 145.493C260.598 145.8 260.925 146.04 261.325 146.213C261.738 146.373 262.238 146.453 262.825 146.453C263.278 146.453 263.732 146.373 264.185 146.213C264.638 146.053 264.978 145.867 265.205 145.653L265.805 146.813ZM262.365 138.773C261.578 138.773 260.945 138.98 260.465 139.393C259.998 139.807 259.718 140.513 259.625 141.513H264.585C264.585 140.5 264.392 139.793 264.005 139.393C263.618 138.98 263.072 138.773 262.365 138.773ZM280.813 146.953C280.413 147.247 279.94 147.467 279.393 147.613C278.846 147.773 278.273 147.853 277.673 147.853C276.9 147.853 276.246 147.733 275.713 147.493C275.18 147.24 274.74 146.887 274.393 146.433C274.06 145.967 273.813 145.413 273.653 144.773C273.506 144.12 273.433 143.4 273.433 142.613C273.433 140.92 273.806 139.627 274.553 138.733C275.3 137.827 276.373 137.373 277.773 137.373C278.413 137.373 278.953 137.427 279.393 137.533C279.846 137.627 280.253 137.767 280.613 137.953L280.153 139.333C279.846 139.16 279.506 139.027 279.133 138.933C278.76 138.827 278.36 138.773 277.933 138.773C276.04 138.773 275.093 140.053 275.093 142.613C275.093 143.12 275.14 143.607 275.233 144.073C275.34 144.527 275.506 144.933 275.733 145.293C275.973 145.64 276.28 145.92 276.653 146.133C277.04 146.347 277.513 146.453 278.073 146.453C278.553 146.453 278.98 146.38 279.353 146.233C279.74 146.087 280.053 145.92 280.293 145.733L280.813 146.953ZM282.857 138.353C283.363 138.047 283.95 137.82 284.617 137.673C285.297 137.527 286.003 137.453 286.737 137.453C287.43 137.453 287.983 137.547 288.397 137.733C288.823 137.92 289.143 138.167 289.357 138.473C289.583 138.767 289.73 139.093 289.797 139.453C289.877 139.813 289.917 140.173 289.917 140.533C289.917 141.333 289.897 142.113 289.857 142.873C289.817 143.633 289.797 144.353 289.797 145.033C289.797 145.527 289.817 145.993 289.857 146.433C289.897 146.873 289.97 147.28 290.077 147.653H288.897L288.477 146.253H288.377C288.257 146.44 288.103 146.627 287.917 146.813C287.743 146.987 287.53 147.147 287.277 147.293C287.023 147.427 286.73 147.54 286.397 147.633C286.063 147.727 285.683 147.773 285.257 147.773C284.83 147.773 284.43 147.707 284.057 147.573C283.697 147.44 283.383 147.253 283.117 147.013C282.85 146.76 282.637 146.46 282.477 146.113C282.33 145.767 282.257 145.373 282.257 144.933C282.257 144.347 282.377 143.86 282.617 143.473C282.857 143.073 283.19 142.76 283.617 142.533C284.057 142.293 284.577 142.127 285.177 142.033C285.79 141.927 286.463 141.873 287.197 141.873C287.383 141.873 287.563 141.873 287.737 141.873C287.923 141.873 288.11 141.887 288.297 141.913C288.337 141.513 288.357 141.153 288.357 140.833C288.357 140.1 288.21 139.587 287.917 139.293C287.623 139 287.09 138.853 286.317 138.853C286.09 138.853 285.843 138.873 285.577 138.913C285.323 138.94 285.057 138.987 284.777 139.053C284.51 139.107 284.25 139.18 283.997 139.273C283.757 139.353 283.543 139.447 283.357 139.553L282.857 138.353ZM285.697 146.373C286.07 146.373 286.403 146.327 286.697 146.233C286.99 146.127 287.243 146 287.457 145.853C287.67 145.693 287.843 145.52 287.977 145.333C288.123 145.147 288.23 144.967 288.297 144.793V143.133C288.11 143.12 287.917 143.113 287.717 143.113C287.53 143.1 287.343 143.093 287.157 143.093C286.743 143.093 286.337 143.12 285.937 143.173C285.55 143.213 285.203 143.3 284.897 143.433C284.603 143.553 284.363 143.727 284.177 143.953C284.003 144.167 283.917 144.44 283.917 144.773C283.917 145.24 284.083 145.627 284.417 145.933C284.75 146.227 285.177 146.373 285.697 146.373ZM297.658 139.153C297.258 139.02 296.878 138.953 296.518 138.953C295.945 138.953 295.492 139.113 295.158 139.433C294.825 139.74 294.618 140.133 294.538 140.613V147.613H292.938V137.613H294.058L294.358 138.833H294.438C294.692 138.38 294.992 138.033 295.338 137.793C295.698 137.54 296.152 137.413 296.698 137.413C297.085 137.413 297.518 137.48 297.998 137.613L297.658 139.153ZM307.035 146.813C306.635 147.133 306.129 147.387 305.515 147.573C304.915 147.76 304.275 147.853 303.595 147.853C302.835 147.853 302.175 147.733 301.615 147.493C301.055 147.24 300.595 146.887 300.235 146.433C299.875 145.967 299.609 145.413 299.435 144.773C299.262 144.133 299.175 143.413 299.175 142.613C299.175 140.907 299.555 139.607 300.315 138.713C301.075 137.82 302.162 137.373 303.575 137.373C304.029 137.373 304.482 137.427 304.935 137.533C305.389 137.627 305.795 137.813 306.155 138.093C306.515 138.373 306.809 138.773 307.035 139.293C307.262 139.8 307.375 140.473 307.375 141.313C307.375 141.753 307.335 142.24 307.255 142.773H300.835C300.835 143.36 300.895 143.88 301.015 144.333C301.135 144.787 301.322 145.173 301.575 145.493C301.829 145.8 302.155 146.04 302.555 146.213C302.969 146.373 303.469 146.453 304.055 146.453C304.509 146.453 304.962 146.373 305.415 146.213C305.869 146.053 306.209 145.867 306.435 145.653L307.035 146.813ZM303.595 138.773C302.809 138.773 302.175 138.98 301.695 139.393C301.229 139.807 300.949 140.513 300.855 141.513H305.815C305.815 140.5 305.622 139.793 305.235 139.393C304.849 138.98 304.302 138.773 303.595 138.773ZM316.977 146.813C316.577 147.133 316.07 147.387 315.457 147.573C314.857 147.76 314.217 147.853 313.537 147.853C312.777 147.853 312.117 147.733 311.557 147.493C310.997 147.24 310.537 146.887 310.177 146.433C309.817 145.967 309.55 145.413 309.377 144.773C309.203 144.133 309.117 143.413 309.117 142.613C309.117 140.907 309.497 139.607 310.257 138.713C311.017 137.82 312.103 137.373 313.517 137.373C313.97 137.373 314.423 137.427 314.877 137.533C315.33 137.627 315.737 137.813 316.097 138.093C316.457 138.373 316.75 138.773 316.977 139.293C317.203 139.8 317.317 140.473 317.317 141.313C317.317 141.753 317.277 142.24 317.197 142.773H310.777C310.777 143.36 310.837 143.88 310.957 144.333C311.077 144.787 311.263 145.173 311.517 145.493C311.77 145.8 312.097 146.04 312.497 146.213C312.91 146.373 313.41 146.453 313.997 146.453C314.45 146.453 314.903 146.373 315.357 146.213C315.81 146.053 316.15 145.867 316.377 145.653L316.977 146.813ZM313.537 138.773C312.75 138.773 312.117 138.98 311.637 139.393C311.17 139.807 310.89 140.513 310.797 141.513H315.757C315.757 140.5 315.563 139.793 315.177 139.393C314.79 138.98 314.243 138.773 313.537 138.773ZM324.553 139.153C324.153 139.02 323.773 138.953 323.413 138.953C322.84 138.953 322.386 139.113 322.053 139.433C321.72 139.74 321.513 140.133 321.433 140.613V147.613H319.833V137.613H320.953L321.253 138.833H321.333C321.586 138.38 321.886 138.033 322.233 137.793C322.593 137.54 323.046 137.413 323.593 137.413C323.98 137.413 324.413 137.48 324.893 137.613L324.553 139.153ZM106.028 172.953C105.628 173.247 105.155 173.467 104.608 173.613C104.061 173.773 103.488 173.853 102.888 173.853C102.115 173.853 101.461 173.733 100.928 173.493C100.395 173.24 99.9546 172.887 99.608 172.433C99.2746 171.967 99.028 171.413 98.868 170.773C98.7213 170.12 98.648 169.4 98.648 168.613C98.648 166.92 99.0213 165.627 99.768 164.733C100.515 163.827 101.588 163.373 102.988 163.373C103.628 163.373 104.168 163.427 104.608 163.533C105.061 163.627 105.468 163.767 105.828 163.953L105.368 165.333C105.061 165.16 104.721 165.027 104.348 164.933C103.975 164.827 103.575 164.773 103.148 164.773C101.255 164.773 100.308 166.053 100.308 168.613C100.308 169.12 100.355 169.607 100.448 170.073C100.555 170.527 100.721 170.933 100.948 171.293C101.188 171.64 101.495 171.92 101.868 172.133C102.255 172.347 102.728 172.453 103.288 172.453C103.768 172.453 104.195 172.38 104.568 172.233C104.955 172.087 105.268 171.92 105.508 171.733L106.028 172.953ZM107.203 168.613C107.203 166.92 107.576 165.627 108.323 164.733C109.083 163.827 110.169 163.373 111.583 163.373C112.329 163.373 112.976 163.5 113.523 163.753C114.083 163.993 114.543 164.347 114.903 164.813C115.263 165.267 115.529 165.82 115.703 166.473C115.876 167.113 115.963 167.827 115.963 168.613C115.963 170.307 115.583 171.607 114.823 172.513C114.076 173.407 112.996 173.853 111.583 173.853C110.836 173.853 110.183 173.733 109.623 173.493C109.076 173.24 108.623 172.887 108.263 172.433C107.903 171.967 107.636 171.413 107.463 170.773C107.289 170.12 107.203 169.4 107.203 168.613ZM108.863 168.613C108.863 169.12 108.909 169.607 109.003 170.073C109.109 170.54 109.269 170.947 109.483 171.293C109.696 171.64 109.976 171.92 110.323 172.133C110.669 172.347 111.089 172.453 111.583 172.453C113.396 172.467 114.303 171.187 114.303 168.613C114.303 168.093 114.249 167.6 114.143 167.133C114.049 166.667 113.896 166.26 113.683 165.913C113.469 165.567 113.189 165.293 112.843 165.093C112.496 164.88 112.076 164.773 111.583 164.773C109.769 164.76 108.863 166.04 108.863 168.613ZM118.325 164.353C118.832 164.047 119.419 163.82 120.085 163.673C120.765 163.527 121.472 163.453 122.205 163.453C122.899 163.453 123.452 163.547 123.865 163.733C124.292 163.92 124.612 164.167 124.825 164.473C125.052 164.767 125.199 165.093 125.265 165.453C125.345 165.813 125.385 166.173 125.385 166.533C125.385 167.333 125.365 168.113 125.325 168.873C125.285 169.633 125.265 170.353 125.265 171.033C125.265 171.527 125.285 171.993 125.325 172.433C125.365 172.873 125.439 173.28 125.545 173.653H124.365L123.945 172.253H123.845C123.725 172.44 123.572 172.627 123.385 172.813C123.212 172.987 122.999 173.147 122.745 173.293C122.492 173.427 122.199 173.54 121.865 173.633C121.532 173.727 121.152 173.773 120.725 173.773C120.299 173.773 119.899 173.707 119.525 173.573C119.165 173.44 118.852 173.253 118.585 173.013C118.319 172.76 118.105 172.46 117.945 172.113C117.799 171.767 117.725 171.373 117.725 170.933C117.725 170.347 117.845 169.86 118.085 169.473C118.325 169.073 118.659 168.76 119.085 168.533C119.525 168.293 120.045 168.127 120.645 168.033C121.259 167.927 121.932 167.873 122.665 167.873C122.852 167.873 123.032 167.873 123.205 167.873C123.392 167.873 123.579 167.887 123.765 167.913C123.805 167.513 123.825 167.153 123.825 166.833C123.825 166.1 123.679 165.587 123.385 165.293C123.092 165 122.559 164.853 121.785 164.853C121.559 164.853 121.312 164.873 121.045 164.913C120.792 164.94 120.525 164.987 120.245 165.053C119.979 165.107 119.719 165.18 119.465 165.273C119.225 165.353 119.012 165.447 118.825 165.553L118.325 164.353ZM121.165 172.373C121.539 172.373 121.872 172.327 122.165 172.233C122.459 172.127 122.712 172 122.925 171.853C123.139 171.693 123.312 171.52 123.445 171.333C123.592 171.147 123.699 170.967 123.765 170.793V169.133C123.579 169.12 123.385 169.113 123.185 169.113C122.999 169.1 122.812 169.093 122.625 169.093C122.212 169.093 121.805 169.12 121.405 169.173C121.019 169.213 120.672 169.3 120.365 169.433C120.072 169.553 119.832 169.727 119.645 169.953C119.472 170.167 119.385 170.44 119.385 170.773C119.385 171.24 119.552 171.627 119.885 171.933C120.219 172.227 120.645 172.373 121.165 172.373ZM135.227 172.953C134.827 173.247 134.354 173.467 133.807 173.613C133.261 173.773 132.687 173.853 132.087 173.853C131.314 173.853 130.661 173.733 130.127 173.493C129.594 173.24 129.154 172.887 128.807 172.433C128.474 171.967 128.227 171.413 128.067 170.773C127.921 170.12 127.847 169.4 127.847 168.613C127.847 166.92 128.221 165.627 128.967 164.733C129.714 163.827 130.787 163.373 132.187 163.373C132.827 163.373 133.367 163.427 133.807 163.533C134.261 163.627 134.667 163.767 135.027 163.953L134.567 165.333C134.261 165.16 133.921 165.027 133.547 164.933C133.174 164.827 132.774 164.773 132.347 164.773C130.454 164.773 129.507 166.053 129.507 168.613C129.507 169.12 129.554 169.607 129.647 170.073C129.754 170.527 129.921 170.933 130.147 171.293C130.387 171.64 130.694 171.92 131.067 172.133C131.454 172.347 131.927 172.453 132.487 172.453C132.967 172.453 133.394 172.38 133.767 172.233C134.154 172.087 134.467 171.92 134.707 171.733L135.227 172.953ZM143.851 173.613V167.913C143.851 167.393 143.817 166.94 143.751 166.553C143.697 166.153 143.591 165.827 143.431 165.573C143.271 165.307 143.051 165.107 142.771 164.973C142.504 164.84 142.151 164.773 141.711 164.773C141.084 164.773 140.517 164.98 140.011 165.393C139.504 165.793 139.177 166.313 139.031 166.953V173.613H137.431V159.613H139.031V164.733H139.111C139.457 164.32 139.871 163.993 140.351 163.753C140.844 163.5 141.451 163.373 142.171 163.373C142.731 163.373 143.217 163.44 143.631 163.573C144.044 163.693 144.384 163.913 144.651 164.233C144.931 164.553 145.131 164.987 145.251 165.533C145.384 166.067 145.451 166.747 145.451 167.573V173.613H143.851ZM148.708 163.613H150.308V173.613H148.708V163.613ZM148.368 160.573C148.368 160.267 148.468 160.007 148.668 159.793C148.881 159.567 149.148 159.453 149.468 159.453C149.788 159.453 150.061 159.567 150.288 159.793C150.515 160.007 150.628 160.267 150.628 160.573C150.628 160.88 150.515 161.133 150.288 161.333C150.061 161.533 149.788 161.633 149.468 161.633C149.148 161.633 148.881 161.533 148.668 161.333C148.468 161.133 148.368 160.88 148.368 160.573ZM160.14 173.613V167.913C160.14 166.873 159.986 166.093 159.68 165.573C159.386 165.04 158.84 164.773 158.04 164.773C157.333 164.773 156.746 164.967 156.28 165.353C155.826 165.727 155.506 166.2 155.32 166.773V173.613H153.72V163.613H154.84L155.14 164.833H155.22C155.54 164.407 155.966 164.06 156.5 163.793C157.046 163.513 157.693 163.373 158.44 163.373C158.986 163.373 159.466 163.44 159.88 163.573C160.293 163.693 160.633 163.913 160.9 164.233C161.18 164.553 161.386 164.987 161.52 165.533C161.666 166.067 161.74 166.747 161.74 167.573V173.613H160.14ZM172.317 174.073C172.317 175.367 171.971 176.32 171.277 176.933C170.597 177.547 169.584 177.853 168.237 177.853C167.437 177.853 166.791 177.8 166.297 177.693C165.817 177.6 165.404 177.473 165.057 177.313L165.477 175.953C165.784 176.073 166.124 176.187 166.497 176.293C166.871 176.4 167.357 176.453 167.957 176.453C168.517 176.453 168.971 176.4 169.317 176.293C169.677 176.2 169.964 176.033 170.177 175.793C170.391 175.567 170.537 175.267 170.617 174.893C170.697 174.533 170.737 174.1 170.737 173.593V172.633H170.657C170.391 173.02 170.051 173.32 169.637 173.533C169.224 173.733 168.684 173.833 168.017 173.833C166.671 173.833 165.677 173.413 165.037 172.573C164.411 171.733 164.097 170.427 164.097 168.653C164.097 166.947 164.504 165.653 165.317 164.773C166.131 163.88 167.331 163.433 168.917 163.433C169.677 163.433 170.324 163.493 170.857 163.613C171.404 163.733 171.891 163.873 172.317 164.033V174.073ZM168.297 172.433C168.977 172.433 169.511 172.267 169.897 171.933C170.284 171.587 170.557 171.053 170.717 170.333V165.213C170.184 164.96 169.504 164.833 168.677 164.833C167.771 164.833 167.057 165.14 166.537 165.753C166.017 166.367 165.757 167.327 165.757 168.633C165.757 169.193 165.804 169.707 165.897 170.173C165.991 170.64 166.137 171.04 166.337 171.373C166.537 171.707 166.797 171.967 167.117 172.153C167.437 172.34 167.831 172.433 168.297 172.433ZM185.131 170.893C185.131 170.493 185.011 170.18 184.771 169.953C184.531 169.727 184.231 169.54 183.871 169.393C183.525 169.233 183.138 169.087 182.711 168.953C182.298 168.807 181.911 168.627 181.551 168.413C181.205 168.187 180.911 167.9 180.671 167.553C180.431 167.207 180.311 166.74 180.311 166.153C180.311 165.193 180.585 164.493 181.131 164.053C181.678 163.6 182.438 163.373 183.411 163.373C184.131 163.373 184.731 163.44 185.211 163.573C185.705 163.693 186.131 163.84 186.491 164.013L186.111 165.333C185.805 165.187 185.431 165.06 184.991 164.953C184.565 164.833 184.105 164.773 183.611 164.773C183.025 164.773 182.591 164.873 182.311 165.073C182.045 165.273 181.911 165.62 181.911 166.113C181.911 166.46 182.031 166.733 182.271 166.933C182.511 167.12 182.805 167.293 183.151 167.453C183.511 167.6 183.898 167.747 184.311 167.893C184.738 168.04 185.125 168.233 185.471 168.473C185.831 168.713 186.131 169.02 186.371 169.393C186.611 169.753 186.731 170.233 186.731 170.833C186.731 171.26 186.658 171.66 186.511 172.033C186.378 172.407 186.165 172.727 185.871 172.993C185.578 173.26 185.211 173.467 184.771 173.613C184.345 173.773 183.838 173.853 183.251 173.853C182.491 173.853 181.845 173.78 181.311 173.633C180.778 173.487 180.331 173.313 179.971 173.113L180.451 171.753C180.758 171.927 181.158 172.087 181.651 172.233C182.145 172.38 182.645 172.453 183.151 172.453C183.725 172.453 184.198 172.34 184.571 172.113C184.945 171.887 185.131 171.48 185.131 170.893ZM196.449 172.813C196.049 173.133 195.543 173.387 194.929 173.573C194.329 173.76 193.689 173.853 193.009 173.853C192.249 173.853 191.589 173.733 191.029 173.493C190.469 173.24 190.009 172.887 189.649 172.433C189.289 171.967 189.023 171.413 188.849 170.773C188.676 170.133 188.589 169.413 188.589 168.613C188.589 166.907 188.969 165.607 189.729 164.713C190.489 163.82 191.576 163.373 192.989 163.373C193.443 163.373 193.896 163.427 194.349 163.533C194.803 163.627 195.209 163.813 195.569 164.093C195.929 164.373 196.223 164.773 196.449 165.293C196.676 165.8 196.789 166.473 196.789 167.313C196.789 167.753 196.749 168.24 196.669 168.773H190.249C190.249 169.36 190.309 169.88 190.429 170.333C190.549 170.787 190.736 171.173 190.989 171.493C191.243 171.8 191.569 172.04 191.969 172.213C192.383 172.373 192.883 172.453 193.469 172.453C193.923 172.453 194.376 172.373 194.829 172.213C195.283 172.053 195.623 171.867 195.849 171.653L196.449 172.813ZM193.009 164.773C192.223 164.773 191.589 164.98 191.109 165.393C190.643 165.807 190.363 166.513 190.269 167.513H195.229C195.229 166.5 195.036 165.793 194.649 165.393C194.263 164.98 193.716 164.773 193.009 164.773ZM203.706 170.893C203.706 170.493 203.586 170.18 203.346 169.953C203.106 169.727 202.806 169.54 202.446 169.393C202.099 169.233 201.712 169.087 201.286 168.953C200.872 168.807 200.486 168.627 200.126 168.413C199.779 168.187 199.486 167.9 199.246 167.553C199.006 167.207 198.886 166.74 198.886 166.153C198.886 165.193 199.159 164.493 199.706 164.053C200.252 163.6 201.012 163.373 201.986 163.373C202.706 163.373 203.306 163.44 203.786 163.573C204.279 163.693 204.706 163.84 205.066 164.013L204.686 165.333C204.379 165.187 204.006 165.06 203.566 164.953C203.139 164.833 202.679 164.773 202.186 164.773C201.599 164.773 201.166 164.873 200.886 165.073C200.619 165.273 200.486 165.62 200.486 166.113C200.486 166.46 200.606 166.733 200.846 166.933C201.086 167.12 201.379 167.293 201.726 167.453C202.086 167.6 202.472 167.747 202.886 167.893C203.312 168.04 203.699 168.233 204.046 168.473C204.406 168.713 204.706 169.02 204.946 169.393C205.186 169.753 205.306 170.233 205.306 170.833C205.306 171.26 205.232 171.66 205.086 172.033C204.952 172.407 204.739 172.727 204.446 172.993C204.152 173.26 203.786 173.467 203.346 173.613C202.919 173.773 202.412 173.853 201.826 173.853C201.066 173.853 200.419 173.78 199.886 173.633C199.352 173.487 198.906 173.313 198.546 173.113L199.026 171.753C199.332 171.927 199.732 172.087 200.226 172.233C200.719 172.38 201.219 172.453 201.726 172.453C202.299 172.453 202.772 172.34 203.146 172.113C203.519 171.887 203.706 171.48 203.706 170.893ZM212.124 170.893C212.124 170.493 212.004 170.18 211.764 169.953C211.524 169.727 211.224 169.54 210.864 169.393C210.517 169.233 210.13 169.087 209.704 168.953C209.29 168.807 208.904 168.627 208.544 168.413C208.197 168.187 207.904 167.9 207.664 167.553C207.424 167.207 207.304 166.74 207.304 166.153C207.304 165.193 207.577 164.493 208.124 164.053C208.67 163.6 209.43 163.373 210.404 163.373C211.124 163.373 211.724 163.44 212.204 163.573C212.697 163.693 213.124 163.84 213.484 164.013L213.104 165.333C212.797 165.187 212.424 165.06 211.984 164.953C211.557 164.833 211.097 164.773 210.604 164.773C210.017 164.773 209.584 164.873 209.304 165.073C209.037 165.273 208.904 165.62 208.904 166.113C208.904 166.46 209.024 166.733 209.264 166.933C209.504 167.12 209.797 167.293 210.144 167.453C210.504 167.6 210.89 167.747 211.304 167.893C211.73 168.04 212.117 168.233 212.464 168.473C212.824 168.713 213.124 169.02 213.364 169.393C213.604 169.753 213.724 170.233 213.724 170.833C213.724 171.26 213.65 171.66 213.504 172.033C213.37 172.407 213.157 172.727 212.864 172.993C212.57 173.26 212.204 173.467 211.764 173.613C211.337 173.773 210.83 173.853 210.244 173.853C209.484 173.853 208.837 173.78 208.304 173.633C207.77 173.487 207.324 173.313 206.964 173.113L207.444 171.753C207.75 171.927 208.15 172.087 208.644 172.233C209.137 172.38 209.637 172.453 210.144 172.453C210.717 172.453 211.19 172.34 211.564 172.113C211.937 171.887 212.124 171.48 212.124 170.893ZM216.482 163.613H218.082V173.613H216.482V163.613ZM216.142 160.573C216.142 160.267 216.242 160.007 216.442 159.793C216.655 159.567 216.922 159.453 217.242 159.453C217.562 159.453 217.835 159.567 218.062 159.793C218.288 160.007 218.402 160.267 218.402 160.573C218.402 160.88 218.288 161.133 218.062 161.333C217.835 161.533 217.562 161.633 217.242 161.633C216.922 161.633 216.655 161.533 216.442 161.333C216.242 161.133 216.142 160.88 216.142 160.573ZM220.933 168.613C220.933 166.92 221.306 165.627 222.053 164.733C222.813 163.827 223.9 163.373 225.313 163.373C226.06 163.373 226.706 163.5 227.253 163.753C227.813 163.993 228.273 164.347 228.633 164.813C228.993 165.267 229.26 165.82 229.433 166.473C229.606 167.113 229.693 167.827 229.693 168.613C229.693 170.307 229.313 171.607 228.553 172.513C227.806 173.407 226.726 173.853 225.313 173.853C224.566 173.853 223.913 173.733 223.353 173.493C222.806 173.24 222.353 172.887 221.993 172.433C221.633 171.967 221.366 171.413 221.193 170.773C221.02 170.12 220.933 169.4 220.933 168.613ZM222.593 168.613C222.593 169.12 222.64 169.607 222.733 170.073C222.84 170.54 223 170.947 223.213 171.293C223.426 171.64 223.706 171.92 224.053 172.133C224.4 172.347 224.82 172.453 225.313 172.453C227.126 172.467 228.033 171.187 228.033 168.613C228.033 168.093 227.98 167.6 227.873 167.133C227.78 166.667 227.626 166.26 227.413 165.913C227.2 165.567 226.92 165.293 226.573 165.093C226.226 164.88 225.806 164.773 225.313 164.773C223.5 164.76 222.593 166.04 222.593 168.613ZM238.636 173.613V167.913C238.636 166.873 238.482 166.093 238.176 165.573C237.882 165.04 237.336 164.773 236.536 164.773C235.829 164.773 235.242 164.967 234.776 165.353C234.322 165.727 234.002 166.2 233.816 166.773V173.613H232.216V163.613H233.336L233.636 164.833H233.716C234.036 164.407 234.462 164.06 234.996 163.793C235.542 163.513 236.189 163.373 236.936 163.373C237.482 163.373 237.962 163.44 238.376 163.573C238.789 163.693 239.129 163.913 239.396 164.233C239.676 164.553 239.882 164.987 240.016 165.533C240.162 166.067 240.236 166.747 240.236 167.573V173.613H238.636Z" fill="#222F65"/>
</svg>
