<svg version="1.1" id="Layer_1" xmlns="http://www.w3.org/2000/svg" xmlns:xlink="http://www.w3.org/1999/xlink" x="0px" y="0px"
	 width="100%" viewBox="0 0 320 229" enable-background="new 0 0 320 229" xml:space="preserve">
<path fill="#FFFFFF" opacity="1.000000" stroke="none" 
	d="
M236.000000,230.000000 
	C158.666672,230.000000 81.833305,229.970825 5.000185,230.096176 
	C1.575816,230.101761 0.897810,229.424423 0.903700,225.999863 
	C1.030418,152.333420 1.030412,78.666656 0.903712,5.000220 
	C0.897823,1.575843 1.575884,0.900673 5.000051,0.904528 
	C108.999908,1.021640 212.999954,1.021634 316.999786,0.904549 
	C320.423645,0.900694 321.102173,1.575384 321.096283,5.000072 
	C320.969574,78.666512 320.969604,152.333267 321.096283,225.999710 
	C321.102173,229.423950 320.427856,230.123566 316.999451,230.100403 
	C290.167297,229.919113 263.333374,230.000000 236.000000,230.000000 
z"/>
<path fill="#BBC3E4" opacity="1.000000" stroke="none" 
	d="
M208.822418,66.232025 
	C217.125687,70.563438 221.764297,78.088829 225.867615,85.860374 
	C239.825714,112.296562 236.063400,142.450500 216.324539,165.259018 
	C214.286423,167.614120 212.560455,170.199219 208.953094,171.590057 
	C208.953094,169.500732 208.953094,167.886368 208.953079,166.272003 
	C208.952957,143.275482 208.958298,120.278976 208.949326,97.282463 
	C208.946625,90.384804 207.571487,88.952156 200.922241,88.949402 
	C175.926041,88.939064 150.929825,88.937233 125.933624,88.952057 
	C119.758354,88.955719 118.959114,89.741074 118.954651,95.837097 
	C118.937592,119.166878 118.947090,142.496674 118.946693,165.826477 
	C118.946663,167.638077 118.946686,169.449692 118.946686,172.878540 
	C105.020042,161.123505 97.047905,147.345642 94.369164,130.955994 
	C90.104294,104.861847 98.545242,82.879211 118.297913,64.983597 
	C120.534241,66.028946 120.313995,67.995293 120.501198,69.772156 
	C121.146530,75.897537 121.587318,76.390381 127.893417,76.430855 
	C139.881577,76.507797 151.870407,76.452682 163.858948,76.455170 
	C175.181473,76.457520 186.504074,76.479729 197.826492,76.446236 
	C204.307755,76.427055 207.412292,77.280289 207.765076,68.387451 
	C207.791275,67.726814 208.139282,67.116310 208.822418,66.232025 
z"/>
<path fill="#39467F" opacity="1.000000" stroke="none" 
	d="
M209.066681,65.472153 
	C208.389862,80.064819 209.180786,78.157524 195.174515,78.213303 
	C172.889359,78.302055 150.603577,78.237236 128.318069,78.234886 
	C118.884720,78.233887 118.886238,78.231018 118.856209,68.813728 
	C118.853027,67.816261 118.818863,66.818893 118.706390,65.366760 
	C118.692101,58.256435 118.770493,51.600826 118.839798,44.477478 
	C118.788422,41.255981 120.705009,40.368469 122.899887,39.794601 
	C124.190697,39.457115 125.528999,39.447041 126.855835,39.445217 
	C151.402344,39.411465 175.948929,39.380688 200.495270,39.470428 
	C204.031357,39.483356 207.628860,39.692238 208.921249,44.526527 
	C208.962936,51.681171 208.964661,58.349560 209.066681,65.472153 
z"/>
<path fill="#F0F2F5" opacity="1.000000" stroke="none" 
	d="
M209.240845,44.774517 
	C207.666016,41.758736 205.214005,40.856335 201.824493,40.869331 
	C176.350037,40.966991 150.875031,40.937931 125.400253,40.901604 
	C122.959694,40.898125 120.739288,41.121098 119.055138,43.697487 
	C115.588585,43.077576 117.322350,41.033798 118.224197,39.817757 
	C119.918068,37.533768 122.202217,35.982635 125.327934,35.986946 
	C150.892548,36.022198 176.457428,35.953171 202.021698,36.051624 
	C207.384384,36.072273 210.132919,39.457634 209.240845,44.774517 
z"/>
<path fill="#BFC7E7" opacity="1.000000" stroke="none" 
	d="
M167.998566,169.011047 
	C159.864685,169.010376 152.230331,169.019958 144.596069,169.002045 
	C142.584229,168.997314 140.154358,169.104919 140.301132,166.245789 
	C140.421417,163.902588 142.383789,163.069046 144.612991,163.068756 
	C157.392151,163.067093 170.171295,163.069366 182.950455,163.059753 
	C185.182770,163.058075 187.054382,163.597015 186.906433,166.305466 
	C186.772552,168.756561 184.889084,169.011566 182.936951,169.009308 
	C178.124008,169.003708 173.311081,169.009705 167.998566,169.011047 
z"/>
<path fill="#BEC7E7" opacity="1.000000" stroke="none" 
	d="
M172.983917,142.965256 
	C163.523682,142.964828 154.560776,142.941238 145.598099,142.978989 
	C143.107254,142.989471 140.422302,142.686417 140.339401,139.768341 
	C140.238647,136.221191 143.438446,137.050110 145.589798,137.038910 
	C157.705887,136.975876 169.822464,136.998032 181.938843,137.018097 
	C184.056335,137.021591 186.707855,136.605118 186.871735,139.724396 
	C187.053986,143.193726 184.299469,142.953232 181.946213,142.961700 
	C179.124634,142.971863 176.302963,142.964859 172.983917,142.965256 
z"/>
<path fill="#C0C8E7" opacity="1.000000" stroke="none" 
	d="
M169.993591,116.920364 
	C161.505234,116.919968 153.515427,116.900047 145.525818,116.930908 
	C143.016144,116.940605 140.386047,116.554077 140.316742,113.618248 
	C140.242386,110.468155 143.146744,110.988091 145.225693,110.982285 
	C157.543106,110.947899 169.860641,110.958870 182.178146,110.970779 
	C184.349274,110.972878 186.983047,110.735275 186.854599,113.920448 
	C186.735275,116.879250 184.128418,116.848129 181.976959,116.894821 
	C178.150330,116.977867 174.320648,116.919617 169.993591,116.920364 
z"/>
<path fill="#485489" opacity="1.000000" stroke="none" 
	d="
M161.788742,101.366432 
	C163.751480,101.371101 165.248581,101.327118 166.740891,101.392540 
	C168.568146,101.472656 170.139038,102.138443 170.139297,104.231644 
	C170.139603,106.608978 168.470718,107.165977 166.394989,107.156891 
	C158.919891,107.124176 151.444611,107.135635 143.969391,107.138611 
	C141.890610,107.139435 140.194672,106.435989 140.306641,104.104950 
	C140.403168,102.095551 142.073807,101.419937 143.879333,101.405235 
	C149.692932,101.357872 155.507065,101.374397 161.788742,101.366432 
z"/>
<path fill="#445086" opacity="1.000000" stroke="none" 
	d="
M156.975311,153.967743 
	C160.616394,153.970581 163.765045,153.971649 166.913696,153.976852 
	C168.865326,153.980087 170.118515,154.840729 170.116928,156.898544 
	C170.115494,158.751007 168.752777,159.654556 167.199463,159.674469 
	C159.246964,159.776428 151.291702,159.780075 143.339218,159.677490 
	C141.484329,159.653595 140.097595,158.349396 140.309692,156.454529 
	C140.484726,154.890732 141.813049,153.973099 143.556870,153.977463 
	C147.865494,153.988235 152.174210,153.972702 156.975311,153.967743 
z"/>
<path fill="#39467F" opacity="1.000000" stroke="none" 
	d="
M152.039200,127.831276 
	C157.187042,127.832825 161.841843,127.849960 166.496460,127.828171 
	C168.308777,127.819687 169.941177,128.113190 170.072083,130.325455 
	C170.220505,132.833344 168.484772,133.335632 166.462448,133.338547 
	C158.981720,133.349335 151.500946,133.337524 144.020218,133.348404 
	C142.185608,133.351074 140.538879,132.877853 140.426956,130.785248 
	C140.298706,128.387466 141.982544,127.792351 144.065430,127.825768 
	C146.558380,127.865761 149.052475,127.832718 152.039200,127.831276 
z"/>
<path fill="#BEC7E7" opacity="1.000000" stroke="none" 
	d="
M127.415771,107.415321 
	C126.763680,104.423866 127.699959,102.441437 130.269547,101.558632 
	C132.065567,100.941605 133.612885,101.913025 134.515640,103.360046 
	C135.431686,104.828377 135.430542,106.596046 134.293091,108.046989 
	C131.967361,111.013725 129.738190,109.807541 127.415771,107.415321 
z"/>
<path fill="#BDC6E6" opacity="1.000000" stroke="none" 
	d="
M134.127869,154.985641 
	C135.313629,158.090149 136.106094,160.930389 132.076431,161.927582 
	C130.334702,162.358612 128.834106,161.629852 127.786667,160.115921 
	C126.836502,158.742599 126.762573,157.308151 127.745262,155.970947 
	C129.367874,153.763000 131.464172,153.446640 134.127869,154.985641 
z"/>
<path fill="#BFC7E7" opacity="1.000000" stroke="none" 
	d="
M127.154297,131.199966 
	C128.536804,128.090424 130.695084,127.254974 133.396774,128.426453 
	C135.247284,129.228836 135.268356,131.082703 134.900742,132.760635 
	C134.512848,134.531174 133.296310,135.814178 131.458084,135.873947 
	C128.662827,135.964798 127.193581,134.391907 127.154297,131.199966 
z"/>
<path fill="#E3E6F4" opacity="1.000000" stroke="none" 
	d="
M162.000229,62.037544 
	C169.163269,62.038242 175.826401,62.032223 182.489502,62.043671 
	C184.524704,62.047169 186.877625,61.980965 186.973007,64.746361 
	C187.078827,67.815041 184.641632,67.882339 182.372925,67.881538 
	C169.879578,67.877129 157.386154,67.856720 144.892960,67.901573 
	C142.720947,67.909370 140.519119,67.671799 140.389069,65.138084 
	C140.232864,62.094296 142.775986,62.047298 145.009094,62.042183 
	C150.506134,62.029598 156.003235,62.037735 162.000229,62.037544 
z"/>
<path fill="#B9C2E4" opacity="1.000000" stroke="none" 
	d="
M140.655121,55.081596 
	C141.437653,52.834843 142.988281,52.882038 144.484909,52.879398 
	C151.598770,52.866852 158.712677,52.866734 165.826569,52.874149 
	C167.887192,52.876297 170.118118,52.914501 169.961349,55.795444 
	C169.821442,58.366280 167.664597,58.203732 165.846573,58.209240 
	C158.732758,58.230789 151.618790,58.205189 144.504944,58.222828 
	C142.544632,58.227688 140.812912,57.983948 140.655121,55.081596 
z"/>
<path fill="#B1BADE" opacity="1.000000" stroke="none" 
	d="
M133.337646,60.288780 
	C130.362610,61.588982 128.454788,60.627541 127.382103,58.187443 
	C126.532173,56.254089 127.412628,54.593475 129.097305,53.545177 
	C130.775986,52.500587 132.662979,52.439686 134.034363,54.017654 
	C135.790863,56.038738 135.710068,58.173191 133.337646,60.288780 
z"/>
</svg>