<svg width="17" height="15" viewBox="0 0 17 15" fill="none" xmlns="http://www.w3.org/2000/svg">
<path d="M9.04685 1.09678L16.2868 13.6372C16.3536 13.7527 16.3887 13.8838 16.3887 14.0172C16.3887 14.1506 16.3536 14.2817 16.2869 14.3972C16.2201 14.5127 16.1242 14.6087 16.0087 14.6754C15.8931 14.7421 15.7621 14.7772 15.6287 14.7772H1.14868C1.01527 14.7772 0.884207 14.7421 0.768672 14.6754C0.653136 14.6087 0.557195 14.5127 0.490491 14.3972C0.423787 14.2817 0.388671 14.1506 0.388672 14.0172C0.388673 13.8838 0.423791 13.7527 0.490496 13.6372L7.73049 1.09678C7.7972 0.981246 7.89314 0.885311 8.00868 0.818611C8.12421 0.751911 8.25527 0.716797 8.38867 0.716797C8.52208 0.716797 8.65313 0.751911 8.76867 0.818611C8.8842 0.885311 8.98014 0.981246 9.04685 1.09678ZM2.46504 13.2572H14.3123L8.38867 2.99684L2.46504 13.2572ZM7.62865 10.9771H9.1487V12.4971H7.62865V10.9771ZM7.62865 5.65692H9.1487V9.45705H7.62865V5.65692Z" fill="#DB2929"/>
</svg>
