<svg width="19" height="21" viewBox="0 0 19 21" fill="none" xmlns="http://www.w3.org/2000/svg">
<path d="M6.54251 0.808594C5.91847 0.808594 5.31999 1.05649 4.87873 1.49775C4.43747 1.93902 4.18957 2.5375 4.18957 3.16154V9.28742C4.57413 9.17856 4.96798 9.1057 5.36604 9.06977V3.16154C5.36604 2.84952 5.48999 2.55028 5.71062 2.32964C5.93125 2.10901 6.23049 1.98506 6.54251 1.98506H11.2484V6.10271C11.2484 6.57074 11.4343 7.0196 11.7653 7.35055C12.0962 7.68149 12.5451 7.86742 13.0131 7.86742H17.1307V17.2792C17.1307 17.5912 17.0068 17.8904 16.7862 18.1111C16.5655 18.3317 16.2663 18.4557 15.9543 18.4557H11.719C11.5048 18.8747 11.2456 19.2692 10.946 19.6321H15.9543C16.5783 19.6321 17.1768 19.3842 17.6181 18.943C18.0593 18.5017 18.3072 17.9032 18.3072 17.2792V7.17801C18.3068 6.71013 18.1206 6.26158 17.7896 5.93095L13.1849 1.32506C12.854 0.994455 12.4055 0.808694 11.9378 0.808594H6.54251ZM16.8872 6.69095H13.0131C12.8571 6.69095 12.7075 6.62897 12.5972 6.51866C12.4868 6.40834 12.4249 6.25872 12.4249 6.10271V2.22859L16.8872 6.69095ZM11.2484 15.5145C11.2484 16.9186 10.6906 18.2651 9.69778 19.258C8.70494 20.2508 7.35836 20.8086 5.95427 20.8086C4.55019 20.8086 3.20361 20.2508 2.21077 19.258C1.21793 18.2651 0.660156 16.9186 0.660156 15.5145C0.660156 14.1104 1.21793 12.7638 2.21077 11.771C3.20361 10.7781 4.55019 10.2204 5.95427 10.2204C7.35836 10.2204 8.70494 10.7781 9.69778 11.771C10.6906 12.7638 11.2484 14.1104 11.2484 15.5145ZM6.54251 13.1615C6.54251 13.0055 6.48053 12.8559 6.37022 12.7456C6.2599 12.6353 6.11028 12.5733 5.95427 12.5733C5.79826 12.5733 5.64864 12.6353 5.53833 12.7456C5.42801 12.8559 5.36604 13.0055 5.36604 13.1615V14.9262H3.60133C3.44532 14.9262 3.2957 14.9882 3.18539 15.0985C3.07507 15.2088 3.0131 15.3585 3.0131 15.5145C3.0131 15.6705 3.07507 15.8201 3.18539 15.9304C3.2957 16.0407 3.44532 16.1027 3.60133 16.1027H5.36604V17.8674C5.36604 18.0234 5.42801 18.173 5.53833 18.2834C5.64864 18.3937 5.79826 18.4557 5.95427 18.4557C6.11028 18.4557 6.2599 18.3937 6.37022 18.2834C6.48053 18.173 6.54251 18.0234 6.54251 17.8674V16.1027H8.30721C8.46322 16.1027 8.61284 16.0407 8.72316 15.9304C8.83348 15.8201 8.89545 15.6705 8.89545 15.5145C8.89545 15.3585 8.83348 15.2088 8.72316 15.0985C8.61284 14.9882 8.46322 14.9262 8.30721 14.9262H6.54251V13.1615Z" fill="white"/>
</svg>
