<svg width="35" height="34" viewBox="0 0 35 34" fill="none" xmlns="http://www.w3.org/2000/svg">
<path id="path1" fill-rule="evenodd" clip-rule="evenodd" d="M16.4523 0.48397C16.4521 0.50303 16.2429 0.525449 15.9875 0.533911C15.236 0.558691 14.8974 0.586151 14.897 0.622255C14.8968 0.640949 14.7944 0.655292 14.6693 0.65423C14.543 0.653159 14.4418 0.668612 14.4416 0.688955C14.4414 0.709114 14.3485 0.724822 14.2351 0.723859C14.1217 0.722896 14.0181 0.738513 14.005 0.758564C13.992 0.778614 13.9154 0.79446 13.8351 0.793778C13.7547 0.793096 13.6831 0.808159 13.6759 0.827251C13.6688 0.846344 13.5904 0.865383 13.5018 0.869579C13.4132 0.873775 13.3405 0.888921 13.3404 0.903308C13.3403 0.917603 13.3063 0.920523 13.265 0.909633C13.2237 0.898835 13.1231 0.915119 13.0415 0.94586C12.9599 0.976601 12.8833 0.991988 12.8711 0.980062C12.8589 0.968045 12.8266 0.975836 12.7994 0.997324C12.7721 1.01881 12.7038 1.04197 12.6478 1.04873C12.5917 1.05559 12.5337 1.0726 12.5188 1.08668C12.504 1.10076 12.4446 1.11189 12.3868 1.1114C12.329 1.11091 12.271 1.12691 12.2579 1.14696C12.2448 1.16701 12.1935 1.18307 12.1438 1.18265C12.0942 1.18223 12.0429 1.19829 12.0298 1.21834C12.0167 1.23839 11.9729 1.25451 11.9324 1.25417C11.892 1.25383 11.8587 1.27004 11.8585 1.2902C11.8583 1.31036 11.807 1.32642 11.7445 1.32589C11.682 1.32536 11.6306 1.34142 11.6305 1.36158C11.6303 1.38174 11.5789 1.3978 11.5164 1.39727C11.4539 1.39674 11.4026 1.4128 11.4024 1.43296C11.4022 1.45312 11.3508 1.46918 11.2883 1.46865C11.2258 1.46812 11.1745 1.48418 11.1743 1.50434C11.1741 1.5245 11.1398 1.5407 11.0981 1.54035C11.0564 1.53999 11.0222 1.5562 11.022 1.57636C11.0218 1.59652 10.9705 1.61258 10.9079 1.61205C10.8454 1.61152 10.7941 1.62758 10.7939 1.64774C10.7937 1.6679 10.7594 1.6841 10.7177 1.68375C10.676 1.68339 10.6418 1.6996 10.6416 1.71976C10.6414 1.73992 10.6082 1.75613 10.5677 1.75579C10.5273 1.75544 10.4834 1.77157 10.4703 1.79162C10.4573 1.81167 10.4134 1.82779 10.373 1.82745C10.3325 1.82711 10.2993 1.84332 10.2991 1.86348C10.2989 1.88364 10.2646 1.89984 10.2229 1.89949C10.1813 1.89914 10.147 1.91534 10.1468 1.9355C10.1466 1.95566 10.1123 1.97187 10.0706 1.97151C10.029 1.97116 9.99469 1.98736 9.99449 2.00752C9.9943 2.02768 9.96003 2.04389 9.91834 2.04353C9.87666 2.04318 9.84239 2.05938 9.84219 2.07954C9.842 2.0997 9.80773 2.11591 9.76605 2.11555C9.72436 2.1152 9.69009 2.13141 9.6899 2.15157C9.6897 2.17172 9.65543 2.18793 9.61375 2.18758C9.57206 2.18722 9.53779 2.20343 9.5376 2.22359C9.5374 2.24375 9.50314 2.25995 9.46145 2.2596C9.41976 2.25924 9.3855 2.27545 9.3853 2.29561C9.3851 2.31577 9.35084 2.33197 9.30915 2.33162C9.26746 2.33127 9.2332 2.34747 9.233 2.36763C9.23281 2.38779 9.20669 2.40406 9.17504 2.40379C9.1434 2.40353 9.04949 2.44397 8.96648 2.49367C8.88347 2.54337 8.79809 2.58388 8.77687 2.5837C8.75564 2.58352 8.73805 2.59987 8.73786 2.62003C8.73766 2.64019 8.70481 2.6564 8.66483 2.65606C8.62495 2.65573 8.58646 2.66777 8.5793 2.68283C8.56363 2.71615 8.3757 2.83754 8.2329 2.90652C8.17531 2.93435 8.12805 2.97088 8.12789 2.98765C8.12773 3.00433 8.09728 3.01782 8.06014 3.0175C8.0231 3.01719 7.96783 3.04971 7.9374 3.08977C7.90698 3.12984 7.8555 3.16239 7.823 3.16212C7.7905 3.16184 7.73902 3.1944 7.7086 3.23446C7.67818 3.27453 7.63465 3.30715 7.61191 3.30696C7.58918 3.30676 7.53726 3.33565 7.49646 3.37113C7.45575 3.40662 7.36232 3.47529 7.28889 3.52379C7.21547 3.57229 7.1344 3.63712 7.1087 3.66788C7.08301 3.69864 7.06158 3.71009 7.06108 3.69332C7.06058 3.67654 6.99194 3.73021 6.90861 3.81263C6.82528 3.89504 6.74789 3.96165 6.73662 3.96082C6.72536 3.9599 6.70215 3.95906 6.6851 3.95892C6.66795 3.95877 6.57478 4.03074 6.47794 4.11882C6.3812 4.20689 6.29454 4.27168 6.28553 4.2628C6.27643 4.25384 6.11735 4.39004 5.93192 4.56552C5.7465 4.74091 5.58076 4.88018 5.56366 4.87499C5.54647 4.8698 5.53224 4.89131 5.53193 4.92274C5.53163 4.95417 5.51865 4.97331 5.5031 4.96529C5.48754 4.95719 5.3675 5.05423 5.23637 5.18077C5.10524 5.30732 5.00721 5.41096 5.01858 5.41106C5.02995 5.41115 4.89131 5.55019 4.7104 5.72002C4.52958 5.88986 4.38942 6.02889 4.39899 6.02897C4.41737 6.02912 4.34205 6.11609 4.10615 6.36721C4.02717 6.45131 3.96243 6.5325 3.96228 6.54762C3.96213 6.56274 3.96259 6.58401 3.96334 6.59492C3.96399 6.60583 3.89373 6.67947 3.80702 6.75855C3.72032 6.83764 3.66359 6.90305 3.68092 6.90383C3.69826 6.90462 3.68602 6.92514 3.65376 6.94942C3.6215 6.97371 3.55301 7.05093 3.50154 7.12106C3.45007 7.19119 3.37739 7.28029 3.33997 7.31901C3.30254 7.35783 3.27174 7.40751 3.27153 7.4295C3.27132 7.4515 3.2368 7.49299 3.19484 7.52169C3.15287 7.55038 3.11828 7.59958 3.11798 7.63101C3.11767 7.66244 3.08308 7.71163 3.04112 7.74033C2.99915 7.76902 2.96452 7.82188 2.96418 7.85771C2.96383 7.89363 2.94933 7.92283 2.93209 7.92269C2.91475 7.92254 2.87613 7.96757 2.84632 8.02276C2.77241 8.1596 2.64352 8.33913 2.60879 8.35369C2.5931 8.36033 2.57995 8.39734 2.57957 8.43592C2.5792 8.47459 2.56184 8.50606 2.54099 8.50588C2.52015 8.5057 2.50293 8.52242 2.50273 8.54294C2.50253 8.56347 2.4591 8.64531 2.40622 8.72468C2.35334 8.80405 2.30983 8.89413 2.30953 8.92474C2.30923 8.95534 2.29194 8.98031 2.27109 8.98013C2.25025 8.97995 2.23288 9.0128 2.23249 9.05312C2.2321 9.09344 2.21472 9.12628 2.19388 9.1261C2.17304 9.12593 2.15566 9.15877 2.15527 9.19909C2.15488 9.23941 2.13751 9.27225 2.11666 9.27208C2.09582 9.2719 2.07845 9.30474 2.07806 9.34506C2.07767 9.38538 2.06029 9.41823 2.03945 9.41805C2.01861 9.41787 2.00123 9.45072 2.00084 9.49104C2.00045 9.53136 1.98308 9.5642 1.96223 9.56402C1.94139 9.56385 1.92402 9.59669 1.92363 9.63701C1.92323 9.67733 1.90586 9.71017 1.88502 9.71C1.86417 9.70982 1.8468 9.74266 1.84641 9.78298C1.84602 9.8233 1.82865 9.85615 1.8078 9.85597C1.78696 9.85579 1.76959 9.88864 1.7692 9.92895C1.7688 9.96927 1.75143 10.0021 1.73059 10.0019C1.70974 10.0018 1.69229 10.0429 1.6918 10.0933C1.69131 10.1437 1.67386 10.1847 1.65302 10.1846C1.63217 10.1844 1.6148 10.2172 1.61441 10.2576C1.61402 10.2979 1.59664 10.3307 1.5758 10.3305C1.55496 10.3304 1.53758 10.3632 1.53719 10.4035C1.5368 10.4438 1.51943 10.4767 1.49859 10.4765C1.47774 10.4763 1.46021 10.5257 1.45962 10.5862C1.45904 10.6466 1.4415 10.696 1.42066 10.6958C1.39982 10.6956 1.38244 10.7285 1.38205 10.7688C1.38166 10.8091 1.36429 10.8419 1.34344 10.8418C1.3226 10.8416 1.30507 10.8909 1.30448 10.9514C1.30389 11.0119 1.28636 11.0612 1.26552 11.061C1.24468 11.0609 1.22723 11.101 1.22675 11.1502C1.22628 11.1994 1.21216 11.2477 1.1953 11.2576C1.17853 11.2674 1.14011 11.3598 1.11002 11.463C1.07993 11.5661 1.04152 11.6585 1.02474 11.6683C1.00788 11.6782 0.993775 11.7255 0.99331 11.7736C0.992844 11.8216 0.975311 11.8709 0.954347 11.8832C0.933383 11.8955 0.915786 11.9513 0.915244 12.0072C0.914702 12.0631 0.902114 12.1204 0.887291 12.1345C0.872468 12.1485 0.853829 12.2044 0.845725 12.2585C0.837715 12.3126 0.812539 12.3781 0.789831 12.4042C0.767124 12.4301 0.758484 12.4612 0.770685 12.4732C0.782792 12.4852 0.765495 12.559 0.732236 12.6374C0.698977 12.7157 0.680319 12.8126 0.690731 12.8527C0.701143 12.893 0.694199 12.9349 0.675141 12.946C0.656178 12.9571 0.640104 13.022 0.639443 13.0902C0.638782 13.1584 0.621089 13.2242 0.600124 13.2365C0.57916 13.2488 0.561387 13.3229 0.560628 13.4011C0.559869 13.4794 0.542096 13.5535 0.521132 13.5657C0.500168 13.578 0.482155 13.6768 0.481103 13.7853C0.480051 13.8938 0.462037 13.9927 0.441073 14.0049C0.420109 14.0172 0.402086 14.1171 0.401022 14.2267C0.399959 14.3364 0.383362 14.426 0.364035 14.4259C0.344802 14.4257 0.317807 14.5615 0.303973 14.7278C0.290233 14.894 0.25906 15.236 0.234826 15.4878C0.16876 16.1744 0.129683 17.654 0.176516 17.7001C0.198853 17.7221 0.213603 17.9207 0.211198 18.1687C0.208799 18.4161 0.223038 18.6089 0.244702 18.6221C0.265425 18.6347 0.281189 18.7678 0.279734 18.9178C0.278209 19.0752 0.293101 19.1907 0.314987 19.1909C0.336019 19.191 0.351935 19.289 0.350751 19.4111C0.349566 19.5333 0.365482 19.6312 0.386515 19.6313C0.407358 19.6315 0.423542 19.7214 0.422478 19.8311C0.421415 19.9408 0.437499 20.0409 0.458221 20.0535C0.478944 20.0662 0.495278 20.1405 0.494519 20.2188C0.49376 20.297 0.510094 20.3714 0.530816 20.384C0.551538 20.3967 0.567942 20.4638 0.56727 20.5332C0.566597 20.6025 0.583385 20.6594 0.604702 20.6596C0.626966 20.6598 0.632843 20.6986 0.618593 20.7514C0.604734 20.8028 0.61909 20.9053 0.651472 20.9858C0.683114 21.0644 0.698884 21.1383 0.686547 21.1501C0.674115 21.1619 0.68215 21.1932 0.70435 21.2195C0.72655 21.2459 0.75045 21.3119 0.75741 21.3661C0.764464 21.4203 0.782017 21.4764 0.796564 21.4908C0.811112 21.5051 0.822588 21.5626 0.822046 21.6185C0.821504 21.6744 0.838014 21.7305 0.858737 21.7431C0.879459 21.7558 0.896101 21.7983 0.895719 21.8378C0.895337 21.8772 0.91176 21.9423 0.932215 21.9825C0.95267 22.0227 0.986141 22.0886 1.0066 22.1288C1.02705 22.1691 1.04346 22.2352 1.04307 22.2758C1.04268 22.3164 1.05941 22.3497 1.08025 22.3499C1.1011 22.35 1.11767 22.3997 1.11708 22.4601C1.1165 22.5206 1.13307 22.5703 1.15391 22.5704C1.17476 22.5706 1.19133 22.6202 1.19074 22.6807C1.19016 22.7412 1.20673 22.7908 1.22757 22.791C1.24842 22.7912 1.26515 22.8243 1.26476 22.8646C1.26437 22.9049 1.2811 22.9381 1.30195 22.9383C1.32279 22.9384 1.33936 22.9881 1.33878 23.0485C1.33819 23.109 1.35476 23.1586 1.37561 23.1588C1.39645 23.159 1.41318 23.1921 1.41279 23.2325C1.4124 23.2728 1.42914 23.3059 1.44998 23.3061C1.47082 23.3063 1.48756 23.3394 1.48717 23.3797C1.48677 23.42 1.50351 23.4532 1.52435 23.4533C1.5452 23.4535 1.56185 23.4949 1.56136 23.5453C1.56087 23.5957 1.57752 23.6371 1.59837 23.6373C1.61921 23.6374 1.63595 23.6706 1.63555 23.7109C1.63516 23.7512 1.6519 23.7843 1.67274 23.7845C1.69358 23.7847 1.71032 23.8178 1.70993 23.8581C1.70954 23.8985 1.72627 23.9316 1.74711 23.9318C1.76795 23.932 1.78469 23.9651 1.7843 24.0054C1.78391 24.0457 1.80064 24.0789 1.82148 24.079C1.84233 24.0792 1.85906 24.1123 1.85867 24.1527C1.85828 24.193 1.87501 24.2261 1.89586 24.2263C1.9167 24.2265 1.93343 24.2596 1.93304 24.2999C1.93265 24.3402 1.94938 24.3734 1.97023 24.3736C1.99107 24.3737 2.0078 24.4069 2.00741 24.4472C2.00702 24.4875 2.02376 24.5206 2.0446 24.5208C2.06544 24.521 2.08218 24.5541 2.08179 24.5944C2.08139 24.6348 2.09813 24.6679 2.11897 24.6681C2.13981 24.6683 2.15662 24.6935 2.15633 24.7241C2.15603 24.7547 2.19394 24.8416 2.24058 24.9173C2.28722 24.9929 2.3501 25.1044 2.3803 25.1652C2.41051 25.2259 2.46476 25.3078 2.50086 25.3472C2.53696 25.3866 2.56628 25.4405 2.56603 25.4669C2.56577 25.4934 2.58261 25.5151 2.60346 25.5153C2.6243 25.5155 2.64114 25.5372 2.64089 25.5637C2.64063 25.5901 2.67418 25.6475 2.71545 25.6911C2.75672 25.7347 2.79027 25.7922 2.79001 25.8188C2.78975 25.8455 2.82342 25.8913 2.86482 25.9207C2.90623 25.9501 2.93986 25.9999 2.93955 26.0313C2.93925 26.0628 2.97287 26.1126 3.01428 26.142C3.05568 26.1714 3.08938 26.2134 3.08917 26.2354C3.08896 26.2574 3.11879 26.3076 3.15546 26.3471C3.19212 26.3864 3.26307 26.4767 3.31316 26.5477C3.36326 26.6187 3.43025 26.6971 3.46203 26.7219C3.49382 26.7467 3.50565 26.7675 3.4883 26.768C3.47096 26.7685 3.52641 26.8348 3.61157 26.9154C3.69672 26.9959 3.76554 27.0707 3.76468 27.0816C3.76372 27.0925 3.76285 27.1138 3.76271 27.1289C3.76256 27.144 3.82572 27.2263 3.90306 27.3117C4.13302 27.5657 4.20767 27.655 4.18966 27.6549C4.18038 27.6548 4.31659 27.7962 4.49257 27.969C4.66845 28.1419 4.80362 28.2833 4.79291 28.2832C4.7823 28.2831 4.87934 28.3889 5.00874 28.5183C5.13815 28.6477 5.25434 28.7518 5.26697 28.7496C5.27959 28.7474 5.42328 28.8792 5.58628 29.0423C5.74928 29.2055 5.94191 29.3802 6.01438 29.4304C6.08685 29.4807 6.19685 29.5695 6.25882 29.6277C6.32079 29.686 6.42222 29.7595 6.48416 29.7913C6.5461 29.823 6.64344 29.8981 6.70047 29.9583C6.75749 30.0183 6.80422 30.0553 6.80437 30.0403C6.80451 30.0253 6.84921 30.057 6.90365 30.1106C6.95808 30.1642 7.01744 30.2082 7.03563 30.2084C7.05382 30.2085 7.12175 30.2586 7.18663 30.3196C7.25151 30.3807 7.32379 30.4308 7.34738 30.431C7.37097 30.4312 7.41452 30.4645 7.44416 30.5051C7.4738 30.5457 7.52464 30.5791 7.55714 30.5794C7.58964 30.5796 7.64048 30.6131 7.67012 30.6536C7.69976 30.6942 7.74653 30.7276 7.7741 30.7278C7.80167 30.7281 7.86047 30.7616 7.9048 30.8023C7.94912 30.843 8.00783 30.8764 8.03511 30.8767C8.06249 30.8769 8.08469 30.8936 8.0845 30.9138C8.0843 30.9339 8.1065 30.9506 8.13388 30.9508C8.16117 30.9511 8.21987 30.9846 8.2642 31.0252C8.30853 31.0659 8.37111 31.0995 8.40323 31.0997C8.43535 31.1 8.46153 31.1167 8.46133 31.1369C8.46114 31.1571 8.47718 31.1737 8.49698 31.1739C8.51678 31.174 8.63133 31.2327 8.75154 31.3042C8.87175 31.3757 8.99994 31.4345 9.03642 31.4349C9.07289 31.4353 9.10257 31.4521 9.10238 31.4723C9.10218 31.4924 9.13613 31.5092 9.17782 31.5095C9.2195 31.5099 9.25345 31.5267 9.25326 31.5468C9.25306 31.567 9.28701 31.5838 9.32869 31.5841C9.37038 31.5845 9.40433 31.6013 9.40413 31.6214C9.40394 31.6416 9.43788 31.6584 9.47957 31.6587C9.52126 31.6591 9.5552 31.6759 9.55501 31.696C9.55481 31.7162 9.58876 31.733 9.63045 31.7333C9.67213 31.7337 9.70608 31.7505 9.70588 31.7706C9.70569 31.7908 9.73964 31.8076 9.78132 31.8079C9.82301 31.8083 9.85696 31.8251 9.85676 31.8452C9.85657 31.8654 9.89051 31.8822 9.9322 31.8825C9.97389 31.8829 10.0078 31.8997 10.0076 31.9198C10.0074 31.94 10.0499 31.9568 10.102 31.9573C10.1541 31.9577 10.1966 31.9746 10.1964 31.9947C10.1962 32.0149 10.2302 32.0317 10.2718 32.032C10.3135 32.0324 10.3475 32.0492 10.3473 32.0693C10.3471 32.0895 10.381 32.1063 10.4227 32.1066C10.4644 32.107 10.4984 32.1238 10.4982 32.1439C10.498 32.1641 10.549 32.181 10.6115 32.1815C10.674 32.1821 10.725 32.199 10.7248 32.2192C10.7246 32.2393 10.7575 32.2561 10.798 32.2564C10.8385 32.2568 10.882 32.2736 10.8947 32.2939C10.9073 32.3142 10.9594 32.3311 11.0103 32.3316C11.0611 32.332 11.1026 32.3488 11.1024 32.369C11.1022 32.3892 11.1532 32.4061 11.2157 32.4066C11.2782 32.4071 11.3292 32.4241 11.3291 32.4442C11.3289 32.4644 11.3799 32.4813 11.4424 32.4819C11.5049 32.4824 11.5559 32.4993 11.5557 32.5195C11.5555 32.5396 11.5884 32.5564 11.6289 32.5567C11.6693 32.5571 11.7129 32.574 11.7255 32.5942C11.7382 32.6145 11.7892 32.6314 11.8389 32.6318C11.8885 32.6323 11.9395 32.6492 11.9522 32.6695C11.9649 32.6897 12.0244 32.7067 12.0845 32.7072C12.1446 32.7078 12.2041 32.7248 12.2168 32.745C12.2295 32.7653 12.2986 32.7824 12.3703 32.783C12.442 32.7836 12.5005 32.8006 12.5003 32.8207C12.5001 32.8409 12.5437 32.8578 12.5971 32.8582C12.6507 32.8587 12.7234 32.8744 12.7588 32.8931C12.7943 32.9119 12.9421 32.9398 13.0874 32.9551C13.2326 32.9705 13.357 32.9976 13.3638 33.0156C13.3706 33.0335 13.46 33.0488 13.5624 33.0497C13.6649 33.0506 13.7486 33.0678 13.7484 33.0879C13.7482 33.1081 13.8333 33.1253 13.9375 33.1262C14.0417 33.1271 14.1269 33.1443 14.1267 33.1645C14.1265 33.1854 14.24 33.2021 14.3916 33.2034C14.5432 33.2047 14.6567 33.2213 14.6565 33.2423C14.6563 33.2629 14.7627 33.2798 14.9002 33.281C15.0345 33.2821 15.1547 33.2997 15.1674 33.3199C15.1807 33.3413 15.3885 33.3585 15.662 33.3608C15.951 33.3632 16.1333 33.379 16.1331 33.4014C16.1328 33.4249 16.4612 33.4409 17.0422 33.4458C17.6233 33.4507 17.9519 33.4403 17.9521 33.4169C17.9523 33.3944 18.1348 33.3818 18.4239 33.3842C18.6974 33.3865 18.9054 33.3729 18.9192 33.3518C18.9323 33.3317 19.0699 33.3164 19.225 33.3177C19.3877 33.3191 19.5071 33.3046 19.5073 33.2834C19.5075 33.2631 19.6087 33.2476 19.735 33.2487C19.8613 33.2498 19.9626 33.2343 19.9628 33.214C19.963 33.1938 20.0559 33.1781 20.1693 33.1791C20.2827 33.1801 20.3862 33.1644 20.3993 33.1444C20.4124 33.1243 20.4903 33.1085 20.5725 33.1092C20.6546 33.1099 20.7219 33.0969 20.7221 33.0804C20.7222 33.0638 20.8632 33.0318 21.0354 33.0092C21.5013 32.9481 21.5938 32.9298 21.6171 32.8941C21.6287 32.8762 21.6874 32.8621 21.7475 32.8626C21.8075 32.8631 21.8674 32.8471 21.8805 32.827C21.8935 32.807 21.9534 32.791 22.0135 32.7915C22.0735 32.792 22.1334 32.776 22.1465 32.756C22.1595 32.7359 22.2036 32.7198 22.2443 32.7202C22.285 32.7205 22.3524 32.7046 22.394 32.6848C22.4356 32.665 22.5037 32.6326 22.5453 32.6127C22.5869 32.5929 22.6543 32.577 22.695 32.5774C22.7357 32.5777 22.7798 32.5616 22.7928 32.5415C22.8059 32.5215 22.8583 32.5054 22.9092 32.5059C22.96 32.5063 23.0018 32.4902 23.002 32.47C23.0022 32.4498 23.0535 32.4338 23.116 32.4343C23.1786 32.4348 23.2299 32.4188 23.2301 32.3986C23.2303 32.3785 23.2645 32.3623 23.3062 32.3626C23.3479 32.363 23.3822 32.3468 23.3824 32.3266C23.3826 32.3064 23.4339 32.2904 23.4964 32.2909C23.5589 32.2914 23.6103 32.2754 23.6105 32.2552C23.6107 32.2351 23.6449 32.2189 23.6866 32.2192C23.7283 32.2196 23.7626 32.2034 23.7628 32.1832C23.763 32.163 23.8057 32.1469 23.8579 32.1473C23.91 32.1478 23.9528 32.1317 23.953 32.1115C23.9531 32.0913 23.9874 32.0751 24.0291 32.0755C24.0708 32.0758 24.1051 32.0596 24.1053 32.0395C24.1054 32.0193 24.1397 32.0031 24.1814 32.0035C24.2231 32.0038 24.2574 31.9876 24.2576 31.9675C24.2577 31.9473 24.292 31.9311 24.3337 31.9314C24.3754 31.9318 24.4097 31.9156 24.4098 31.8954C24.41 31.8753 24.4443 31.8591 24.486 31.8594C24.5277 31.8598 24.562 31.8436 24.5621 31.8234C24.5623 31.8032 24.5966 31.787 24.6383 31.7874C24.68 31.7878 24.7142 31.7715 24.7144 31.7514C24.7146 31.7312 24.7489 31.715 24.7906 31.7154C24.8323 31.7157 24.8665 31.6995 24.8667 31.6794C24.8669 31.6592 24.9012 31.643 24.9429 31.6434C24.9846 31.6437 25.0188 31.6275 25.019 31.6073C25.0192 31.5872 25.047 31.5709 25.0806 31.5712C25.1587 31.5719 25.5138 31.3899 25.5142 31.3491C25.5144 31.3321 25.5403 31.3185 25.5719 31.3188C25.639 31.3193 25.7643 31.2553 25.8718 31.1655C25.9136 31.1306 25.9702 31.1022 25.9975 31.1024C26.0249 31.1027 26.0474 31.0864 26.0476 31.0662C26.0478 31.0461 26.0703 31.0298 26.0977 31.03C26.125 31.0302 26.1843 30.9977 26.2294 30.9578C26.2745 30.9178 26.334 30.8854 26.3615 30.8856C26.3891 30.8858 26.4365 30.8532 26.4669 30.8132C26.4974 30.7731 26.5488 30.7406 26.5813 30.7408C26.6138 30.7411 26.6653 30.7086 26.6957 30.6685C26.7262 30.6284 26.7704 30.5958 26.7939 30.596C26.8175 30.5962 26.8908 30.5473 26.9568 30.4874C27.0229 30.4275 27.0918 30.3786 27.11 30.3787C27.1281 30.3789 27.1883 30.3359 27.2438 30.2832C27.2993 30.2305 27.3446 30.1997 27.3444 30.2147C27.3443 30.2296 27.3917 30.1935 27.4499 30.1344C27.5081 30.0752 27.6152 29.9977 27.688 29.9621C27.7608 29.9265 27.8636 29.8542 27.9165 29.8014C27.9694 29.7486 28.0719 29.666 28.1444 29.6176C28.419 29.4348 29.9034 28.0252 30.0959 27.7648C30.1477 27.6947 30.2372 27.5947 30.2948 27.5426C30.3524 27.4906 30.4049 27.4257 30.4114 27.3984C30.4262 27.336 30.468 27.2829 30.6255 27.1258C30.6947 27.0569 30.7398 27.0004 30.7259 27.0003C30.7118 27.0002 30.7458 26.957 30.8013 26.9043C30.8567 26.8516 30.9023 26.7942 30.9025 26.7766C30.9026 26.759 30.9544 26.6933 31.0176 26.6305C31.0807 26.5677 31.1326 26.4977 31.1328 26.4749C31.133 26.4521 31.1675 26.41 31.2095 26.3813C31.2515 26.3526 31.2861 26.3034 31.2864 26.2719C31.2867 26.2405 31.3213 26.1913 31.3632 26.1626C31.4052 26.1339 31.4397 26.0887 31.44 26.062C31.4403 26.0353 31.4749 25.9785 31.517 25.9356C31.5591 25.8927 31.5938 25.8359 31.594 25.8095C31.5943 25.783 31.6116 25.7615 31.6324 25.7617C31.6533 25.7619 31.6705 25.7404 31.6708 25.7139C31.671 25.6875 31.7014 25.6333 31.7383 25.5935C31.833 25.4912 31.9015 25.3712 31.9021 25.3062C31.9024 25.2757 31.9155 25.2509 31.9311 25.251C31.9713 25.2513 32.1713 24.9061 32.172 24.8353C32.1723 24.8029 32.1896 24.7767 32.2105 24.7768C32.2313 24.777 32.2487 24.7442 32.2491 24.7039C32.2495 24.6635 32.2668 24.6307 32.2877 24.6309C32.3085 24.6311 32.3259 24.5982 32.3263 24.5579C32.3267 24.5176 32.344 24.4847 32.3649 24.4849C32.3857 24.4851 32.4031 24.4522 32.4035 24.4119C32.4039 24.3716 32.4213 24.3388 32.4421 24.3389C32.463 24.3391 32.4803 24.3063 32.4807 24.2659C32.4811 24.2256 32.4985 24.1928 32.5193 24.193C32.5402 24.1931 32.5575 24.1603 32.5579 24.12C32.5583 24.0796 32.5757 24.0468 32.5965 24.047C32.6174 24.0472 32.6348 24.0143 32.6351 23.974C32.6355 23.9337 32.6529 23.9008 32.6738 23.901C32.6946 23.9012 32.712 23.8694 32.7123 23.8302C32.7127 23.7911 32.7302 23.749 32.7511 23.7367C32.7721 23.7244 32.7896 23.6823 32.79 23.6432C32.7903 23.6041 32.8077 23.5722 32.8285 23.5724C32.8494 23.5726 32.8668 23.5397 32.8671 23.4994C32.8675 23.4591 32.8849 23.4263 32.9058 23.4264C32.9266 23.4266 32.9441 23.3773 32.9447 23.3168C32.9453 23.2563 32.9628 23.207 32.9837 23.2072C33.0045 23.2073 33.0219 23.1745 33.0223 23.1342C33.0227 23.0938 33.0401 23.061 33.0609 23.0612C33.0817 23.0614 33.0993 23.012 33.0999 22.9515C33.1004 22.8911 33.118 22.8417 33.1388 22.8419C33.1597 22.8421 33.1771 22.802 33.1776 22.7528C33.1781 22.7036 33.1956 22.6532 33.2166 22.6409C33.2375 22.6287 33.255 22.5864 33.2554 22.547C33.2558 22.5076 33.2734 22.4427 33.2947 22.4029C33.3159 22.363 33.3507 22.2977 33.3719 22.2578C33.3931 22.218 33.4108 22.1531 33.4112 22.1137C33.4116 22.0743 33.429 22.032 33.45 22.0198C33.471 22.0075 33.4886 21.9499 33.4891 21.8918C33.4897 21.8337 33.5073 21.7761 33.5283 21.7638C33.5492 21.7515 33.5669 21.694 33.5674 21.6359C33.568 21.5778 33.5856 21.5202 33.6066 21.5079C33.6275 21.4956 33.6451 21.4442 33.6456 21.3937C33.6461 21.3432 33.6635 21.2716 33.6844 21.2347C33.7053 21.1978 33.7347 21.0507 33.7499 20.9077C33.765 20.7648 33.792 20.648 33.8098 20.6482C33.8277 20.6483 33.8429 20.5835 33.8437 20.504C33.8445 20.4246 33.8622 20.3495 33.8832 20.3372C33.9042 20.3249 33.9222 20.2251 33.9233 20.1154C33.9243 20.0057 33.9422 19.9162 33.9631 19.9163C33.9841 19.9165 34.0019 19.8189 34.0031 19.6967C34.0043 19.5746 34.0221 19.4769 34.0431 19.4771C34.065 19.4773 34.0822 19.3621 34.0837 19.2047C34.0851 19.0547 34.1035 18.9219 34.1245 18.9096C34.1466 18.8967 34.1644 18.6958 34.167 18.4313C34.1697 18.1517 34.1861 17.9754 34.2093 17.9756C34.2336 17.9758 34.2503 17.659 34.2557 17.0984C34.261 16.5529 34.25 16.2122 34.2265 16.1979C34.2049 16.1847 34.1907 15.9902 34.1931 15.7394C34.1955 15.4886 34.1813 15.2941 34.1596 15.2809C34.1389 15.2682 34.1232 15.1351 34.1246 14.9851C34.1261 14.8278 34.1112 14.7123 34.0894 14.7121C34.0683 14.7119 34.0524 14.614 34.0536 14.4919C34.0548 14.3697 34.0389 14.2718 34.0178 14.2716C33.997 14.2714 33.9808 14.1816 33.9819 14.0719C33.9829 13.9622 33.9668 13.8621 33.9461 13.8494C33.9254 13.8368 33.9091 13.7614 33.9098 13.682C33.9106 13.6025 33.8967 13.5374 33.8787 13.5373C33.8609 13.5371 33.8362 13.4199 33.8239 13.2767C33.8115 13.1336 33.7849 12.986 33.7648 12.9487C33.7446 12.9115 33.7285 12.8396 33.729 12.7891C33.7295 12.7385 33.7129 12.6869 33.6922 12.6743C33.6715 12.6616 33.655 12.6037 33.6556 12.5456C33.6561 12.4875 33.6396 12.4297 33.6189 12.417C33.5982 12.4044 33.5817 12.3465 33.5823 12.2884C33.5828 12.2303 33.5663 12.1725 33.5456 12.1598C33.5249 12.1472 33.5082 12.1046 33.5086 12.0652C33.509 12.0258 33.49 11.9565 33.4663 11.9112C33.3739 11.7344 33.3606 11.6986 33.3612 11.6294C33.3616 11.59 33.345 11.5474 33.3243 11.5348C33.3035 11.5221 33.287 11.4715 33.2875 11.4223C33.2879 11.3731 33.2713 11.3327 33.2504 11.3325C33.2296 11.3323 33.213 11.2827 33.2136 11.2222C33.2142 11.1618 33.1976 11.1121 33.1768 11.112C33.1559 11.1118 33.1392 11.0786 33.1396 11.0383C33.14 10.998 33.1232 10.9649 33.1024 10.9647C33.0816 10.9645 33.065 10.9149 33.0656 10.8544C33.0661 10.7939 33.0496 10.7443 33.0287 10.7441C33.0079 10.744 32.9912 10.7108 32.9915 10.6705C32.9919 10.6302 32.9752 10.597 32.9544 10.5969C32.9335 10.5967 32.9168 10.5646 32.9172 10.5254C32.9175 10.4863 32.9009 10.4439 32.8802 10.4313C32.8594 10.4186 32.8428 10.3763 32.8432 10.3371C32.8436 10.298 32.8268 10.2659 32.806 10.2657C32.7851 10.2655 32.7684 10.2324 32.7688 10.1921C32.7692 10.1517 32.7524 10.1186 32.7316 10.1184C32.7108 10.1183 32.694 10.0851 32.6944 10.0448C32.6948 10.0045 32.6781 9.97135 32.6572 9.97118C32.6364 9.971 32.6197 9.93787 32.62 9.89755C32.6204 9.85723 32.6037 9.82409 32.5829 9.82392C32.562 9.82374 32.5453 9.79061 32.5457 9.75029C32.5461 9.70997 32.5293 9.67683 32.5085 9.67666C32.4876 9.67648 32.4709 9.64335 32.4713 9.60303C32.4717 9.56271 32.455 9.52957 32.4341 9.5294C32.4133 9.52922 32.3965 9.49609 32.3969 9.45577C32.3973 9.41545 32.3806 9.38232 32.3597 9.38214C32.3389 9.38196 32.3221 9.35295 32.3224 9.31767C32.3226 9.28239 32.2641 9.15735 32.1924 9.03981C32.1207 8.92226 32.0621 8.81042 32.0623 8.79127C32.0625 8.77212 32.0456 8.7563 32.0247 8.75612C32.0039 8.75595 31.9871 8.73033 31.9874 8.69926C31.9877 8.6682 31.9541 8.60706 31.9129 8.56346C31.8716 8.51985 31.8381 8.46247 31.8383 8.43608C31.8386 8.4096 31.8217 8.38783 31.8009 8.38765C31.78 8.38748 31.7632 8.36571 31.7635 8.33922C31.7637 8.31283 31.7302 8.25545 31.6889 8.21185C31.6476 8.16824 31.6141 8.11077 31.6143 8.08411C31.6146 8.05744 31.5809 8.01161 31.5395 7.98221C31.4981 7.9528 31.4645 7.90303 31.4648 7.8716C31.4651 7.84017 31.4315 7.7904 31.3901 7.761C31.3487 7.73159 31.315 7.68952 31.3152 7.66753C31.3154 7.64553 31.2855 7.59534 31.2489 7.55589C31.2122 7.51654 31.1413 7.42622 31.0912 7.35523C31.0411 7.28424 30.9741 7.20587 30.9423 7.18104C30.9105 7.15621 30.8991 7.13549 30.9169 7.135C30.9348 7.13451 30.8993 7.08811 30.8383 7.03188C30.7772 6.97564 30.6973 6.8726 30.661 6.80291C30.6245 6.73323 30.5301 6.61504 30.4511 6.54032C30.3721 6.4656 30.3161 6.39621 30.3268 6.38613C30.3374 6.37614 30.2016 6.2257 30.0251 6.05182C29.8486 5.87803 29.7044 5.71809 29.7046 5.69655C29.7048 5.67492 29.6783 5.65701 29.6458 5.65674C29.6133 5.65646 29.5939 5.64392 29.6025 5.62888C29.6112 5.61383 29.511 5.49723 29.3799 5.36975C29.2488 5.24226 29.1414 5.14521 29.1413 5.15401C29.1413 5.16281 29.0018 5.03397 28.8314 4.86775C28.6611 4.70144 28.4624 4.52407 28.3899 4.47351C28.3175 4.42286 28.2027 4.32712 28.135 4.26075C28.0249 4.15287 27.9941 4.13584 27.9179 4.1406C27.9066 4.14123 27.8305 4.07332 27.7488 3.98951C27.6671 3.9057 27.6001 3.85087 27.5999 3.86764C27.5997 3.88441 27.5596 3.85246 27.5109 3.7966C27.4622 3.74074 27.4072 3.69491 27.3887 3.69466C27.3703 3.69451 27.296 3.64439 27.2237 3.58338C27.1513 3.52238 27.0746 3.47224 27.0531 3.47205C27.0317 3.47178 26.9898 3.43843 26.9602 3.39786C26.9305 3.35729 26.8797 3.32386 26.8472 3.32359C26.8147 3.32331 26.7645 3.29081 26.7356 3.25125C26.7068 3.21178 26.6714 3.18637 26.657 3.19486C26.6426 3.20326 26.5821 3.16894 26.5225 3.11848C26.4629 3.06803 26.3929 3.02657 26.3669 3.02625C26.3408 3.02603 26.3196 3.00936 26.3198 2.9892C26.32 2.96904 26.2978 2.95235 26.2705 2.95212C26.2432 2.95189 26.188 2.922 26.1479 2.88574C26.1079 2.84948 26.0072 2.7885 25.9242 2.75041C25.8412 2.71222 25.7283 2.64996 25.6733 2.61201C25.6184 2.57406 25.5462 2.54275 25.5129 2.54246C25.4797 2.54218 25.4526 2.52546 25.4528 2.5053C25.453 2.48514 25.4191 2.46835 25.3774 2.468C25.3357 2.46765 25.3018 2.45086 25.302 2.4307C25.3022 2.41054 25.2682 2.39376 25.2265 2.3934C25.1848 2.39305 25.1509 2.37627 25.1511 2.35611C25.1513 2.33595 25.1173 2.31916 25.0756 2.31881C25.034 2.31846 25 2.30167 25.0002 2.28151C25.0004 2.26135 24.9665 2.24457 24.9248 2.24421C24.8831 2.24386 24.8491 2.22708 24.8493 2.20692C24.8495 2.18676 24.8156 2.16997 24.7739 2.16962C24.7322 2.16927 24.6983 2.15248 24.6985 2.13232C24.6987 2.11216 24.6647 2.09538 24.623 2.09503C24.5813 2.09467 24.5474 2.07789 24.5476 2.05773C24.5478 2.03757 24.5138 2.02078 24.4721 2.02043C24.4305 2.02008 24.3965 2.00329 24.3967 1.98313C24.3969 1.96297 24.363 1.94619 24.3213 1.94584C24.2796 1.94548 24.2456 1.9287 24.2458 1.90854C24.246 1.88838 24.2035 1.87152 24.1514 1.87108C24.0993 1.87064 24.0569 1.85378 24.0571 1.83362C24.0572 1.81346 24.0233 1.79668 23.9816 1.79632C23.9399 1.79597 23.906 1.77919 23.9062 1.75903C23.9064 1.73887 23.8554 1.72194 23.7928 1.72141C23.7303 1.72088 23.6793 1.70395 23.6795 1.68379C23.6797 1.66363 23.6458 1.64685 23.6041 1.64649C23.5624 1.64614 23.5284 1.62935 23.5286 1.60919C23.5288 1.58903 23.4778 1.57211 23.4153 1.57158C23.3528 1.57104 23.3018 1.55412 23.302 1.53396C23.3022 1.5138 23.2607 1.49695 23.2098 1.49652C23.159 1.49609 23.109 1.48247 23.0988 1.46616C23.0886 1.44994 22.9931 1.41284 22.8865 1.3838C22.7799 1.35476 22.6844 1.31766 22.6742 1.30145C22.6641 1.28514 22.6151 1.27153 22.5655 1.27111C22.5158 1.27068 22.4648 1.25376 22.4521 1.23349C22.4394 1.21322 22.3823 1.19624 22.3251 1.19575C22.268 1.19527 22.201 1.1749 22.1763 1.1505C22.1515 1.1261 22.1311 1.11786 22.131 1.13224C22.1308 1.14663 22.0686 1.13272 21.9928 1.10129C21.917 1.06985 21.8469 1.05166 21.8373 1.06084C21.8276 1.0701 21.7535 1.05124 21.6725 1.01912C21.5915 0.986995 21.4913 0.969007 21.4498 0.979102C21.4083 0.989288 21.3744 0.982586 21.3746 0.964351C21.3748 0.946024 21.2982 0.930436 21.2044 0.92964C21.1106 0.928844 21.034 0.911698 21.0342 0.891538C21.0344 0.871378 20.9663 0.854305 20.883 0.853598C20.7996 0.85289 20.7315 0.835817 20.7317 0.815657C20.7319 0.795314 20.631 0.778145 20.5047 0.777073C20.3784 0.776001 20.2775 0.758832 20.2777 0.738489C20.2779 0.718146 20.1769 0.700977 20.0507 0.699905C19.9244 0.698833 19.8234 0.681664 19.8236 0.661321C19.8238 0.640153 19.7047 0.623655 19.542 0.622274C19.3869 0.620957 19.2496 0.603296 19.2369 0.583027C19.2236 0.561653 19.0159 0.544494 18.7424 0.542172C18.4533 0.539719 18.2711 0.523968 18.2713 0.501517C18.2715 0.478058 17.9432 0.462075 17.3621 0.457143C16.8178 0.452524 16.4525 0.463261 16.4523 0.48397ZM12.1863 10.4836C12.4473 10.5695 12.4577 10.5792 14.8943 12.9765C16.1532 14.2151 17.2039 15.2285 17.2294 15.2285C17.2549 15.2286 18.3511 14.207 19.6653 12.9583C21.3091 11.3968 22.1035 10.6666 22.2105 10.619C23.06 10.2417 23.98 10.8068 23.9713 11.7005C23.9663 12.2229 24.0606 12.115 21.3618 14.6852L18.9691 16.9638L19.1919 17.1953C19.3144 17.3225 20.3781 18.3755 21.5556 19.5352C23.9888 21.9317 23.8827 21.8025 23.8765 22.3601C23.8685 23.0726 23.4074 23.5108 22.672 23.5045C22.1041 23.4997 22.2606 23.627 19.591 20.9986C18.2892 19.7169 17.2072 18.6737 17.1866 18.6803C17.1661 18.6869 16.0773 19.7077 14.7672 20.9488C12.056 23.5171 12.1856 23.4155 11.6251 23.4108C10.8713 23.4044 10.3685 22.8988 10.4116 22.1908C10.4411 21.7071 10.3774 21.7783 13.0279 19.2621C14.3435 18.0132 15.4202 16.9689 15.4207 16.9414C15.4211 16.9139 14.3674 15.8533 13.0792 14.5844C11.4059 12.9363 10.7158 12.2326 10.6632 12.1211C10.1933 11.1237 11.1165 10.1311 12.1863 10.4836Z" fill="#DB2929"/>
</svg>
