<svg width="35" height="34" viewBox="0 0 35 34" fill="none" xmlns="http://www.w3.org/2000/svg">
<g id="svgg">
<path id="path0" fill-rule="evenodd" clip-rule="evenodd" d="M11.2922 10.8608C10.8751 11.04 10.627 11.4142 10.6226 11.8707C10.6177 12.3774 10.546 12.293 13.188 14.8916C14.4793 16.1618 15.5357 17.212 15.5355 17.2256C15.5354 17.2393 14.4465 18.2866 13.1158 19.5531C10.5153 22.028 10.5336 22.008 10.4932 22.426C10.4275 23.1081 10.9245 23.6359 11.6374 23.641C12.1305 23.6445 12.0386 23.7181 14.7207 21.173C16.0464 19.9151 17.1571 18.8861 17.189 18.8864C17.221 18.8867 18.3023 19.9272 19.5918 21.1986C22.2141 23.784 22.1499 23.7306 22.6402 23.7347C23.3565 23.7408 23.8531 23.2426 23.8136 22.5577C23.7878 22.1125 23.836 22.1679 21.2693 19.6355C19.9705 18.354 18.9081 17.2815 18.9084 17.252C18.9087 17.2224 19.9999 16.1597 21.3333 14.8902C23.6406 12.6936 23.7611 12.5724 23.8278 12.3811C24.0962 11.6108 23.5799 10.8761 22.7654 10.8691C22.2435 10.8647 22.3409 10.7882 19.8208 13.1803C18.5835 14.3547 17.4917 15.3887 17.3943 15.478L17.2173 15.6405L14.8434 13.3043C12.1745 10.6778 12.2971 10.7783 11.7597 10.7778C11.5578 10.7777 11.435 10.7995 11.2922 10.8608Z" fill="#FCFBFB"/>
<path id="path1" fill-rule="evenodd" clip-rule="evenodd" d="M16.4523 0.773033C16.4521 0.792093 16.2429 0.814511 15.9875 0.822974C15.236 0.847754 14.8974 0.875214 14.897 0.911318C14.8968 0.930011 14.7944 0.944354 14.6693 0.943293C14.543 0.942221 14.4418 0.957674 14.4416 0.978017C14.4414 0.998177 14.3485 1.01388 14.2351 1.01292C14.1216 1.01196 14.0181 1.02758 14.005 1.04763C13.992 1.06768 13.9154 1.08352 13.8351 1.08284C13.7547 1.08216 13.6831 1.09722 13.6759 1.11631C13.6688 1.13541 13.5904 1.15444 13.5018 1.15864C13.4132 1.16284 13.3405 1.17798 13.3404 1.19237C13.3403 1.20667 13.3063 1.20959 13.265 1.1987C13.2237 1.1879 13.1231 1.20418 13.0415 1.23492C12.9599 1.26566 12.8833 1.28105 12.8711 1.26912C12.8589 1.25711 12.8266 1.2649 12.7994 1.28639C12.7721 1.30787 12.7038 1.33103 12.6478 1.33779C12.5917 1.34465 12.5337 1.36166 12.5188 1.37574C12.504 1.38982 12.4446 1.40095 12.3868 1.40046C12.329 1.39997 12.271 1.41597 12.2579 1.43603C12.2448 1.45608 12.1935 1.47214 12.1438 1.47171C12.0942 1.47129 12.0429 1.48735 12.0298 1.5074C12.0167 1.52745 11.9729 1.54358 11.9324 1.54323C11.892 1.54289 11.8587 1.5591 11.8585 1.57926C11.8583 1.59942 11.807 1.61548 11.7445 1.61495C11.682 1.61442 11.6306 1.63048 11.6305 1.65064C11.6303 1.6708 11.5789 1.68686 11.5164 1.68633C11.4539 1.6858 11.4026 1.70186 11.4024 1.72202C11.4022 1.74218 11.3508 1.75824 11.2883 1.75771C11.2258 1.75718 11.1745 1.77324 11.1743 1.7934C11.1741 1.81356 11.1398 1.82976 11.0981 1.82941C11.0564 1.82906 11.0222 1.84526 11.022 1.86542C11.0218 1.88558 10.9705 1.90164 10.9079 1.90111C10.8454 1.90058 10.7941 1.91664 10.7939 1.9368C10.7937 1.95696 10.7594 1.97316 10.7177 1.97281C10.676 1.97246 10.6418 1.98866 10.6416 2.00882C10.6414 2.02898 10.6082 2.04519 10.5677 2.04485C10.5273 2.04451 10.4834 2.06063 10.4703 2.08068C10.4573 2.10073 10.4134 2.11685 10.373 2.11651C10.3325 2.11617 10.2993 2.13238 10.2991 2.15254C10.2989 2.1727 10.2646 2.18891 10.2229 2.18855C10.1813 2.1882 10.147 2.2044 10.1468 2.22456C10.1466 2.24472 10.1123 2.26093 10.0706 2.26057C10.029 2.26022 9.99469 2.27642 9.99449 2.29658C9.9943 2.31674 9.96003 2.33295 9.91834 2.3326C9.87666 2.33224 9.84239 2.34845 9.84219 2.36861C9.842 2.38877 9.80773 2.40497 9.76605 2.40462C9.72436 2.40426 9.69009 2.42047 9.6899 2.44063C9.6897 2.46079 9.65543 2.47699 9.61375 2.47664C9.57206 2.47628 9.53779 2.49249 9.5376 2.51265C9.5374 2.53281 9.50314 2.54901 9.46145 2.54866C9.41976 2.54831 9.3855 2.56451 9.3853 2.58467C9.3851 2.60483 9.35084 2.62104 9.30915 2.62068C9.26746 2.62033 9.2332 2.63653 9.233 2.65669C9.23281 2.67685 9.20669 2.69313 9.17504 2.69286C9.1434 2.69259 9.04949 2.73303 8.96648 2.78273C8.88347 2.83243 8.79809 2.87294 8.77687 2.87276C8.75564 2.87258 8.73805 2.88893 8.73786 2.90909C8.73766 2.92925 8.70481 2.94547 8.66483 2.94513C8.62495 2.94479 8.58646 2.95683 8.5793 2.97189C8.56363 3.00521 8.3757 3.1266 8.2329 3.19559C8.17531 3.22341 8.12805 3.25995 8.12789 3.27671C8.12773 3.29339 8.09728 3.30688 8.06014 3.30657C8.0231 3.30625 7.96783 3.33877 7.9374 3.37884C7.90698 3.4189 7.8555 3.45146 7.823 3.45118C7.7905 3.4509 7.73902 3.48346 7.7086 3.52352C7.67818 3.56359 7.63465 3.59621 7.61191 3.59602C7.58918 3.59582 7.53726 3.62471 7.49646 3.6602C7.45575 3.69568 7.36232 3.76435 7.28889 3.81285C7.21547 3.86135 7.1344 3.92619 7.1087 3.95694C7.08301 3.9877 7.06158 3.99916 7.06108 3.98238C7.06058 3.96561 6.99194 4.01928 6.90861 4.10169C6.82528 4.1841 6.74789 4.25071 6.73662 4.24988C6.72536 4.24896 6.70215 4.24812 6.6851 4.24798C6.66795 4.24783 6.57478 4.31981 6.47794 4.40788C6.3812 4.49595 6.29454 4.56074 6.28553 4.55187C6.27643 4.5429 6.11735 4.6791 5.93192 4.85458C5.7465 5.02997 5.58076 5.16924 5.56366 5.16405C5.54647 5.15887 5.53224 5.18037 5.53193 5.2118C5.53163 5.24323 5.51865 5.26237 5.5031 5.25436C5.48754 5.24625 5.3675 5.34329 5.23637 5.46983C5.10524 5.59638 5.00721 5.70002 5.01858 5.70012C5.02995 5.70021 4.89131 5.83925 4.7104 6.00909C4.52958 6.17892 4.38942 6.31795 4.39899 6.31803C4.41737 6.31819 4.34205 6.40516 4.10615 6.65627C4.02717 6.74037 3.96243 6.82157 3.96228 6.83669C3.96213 6.85181 3.96259 6.87307 3.96334 6.88398C3.96399 6.89489 3.89373 6.96853 3.80702 7.04761C3.72032 7.1267 3.66359 7.19211 3.68092 7.1929C3.69826 7.19368 3.68602 7.2142 3.65376 7.23849C3.6215 7.26277 3.55301 7.34 3.50154 7.41012C3.45007 7.48025 3.37739 7.56935 3.33997 7.60808C3.30254 7.64689 3.27174 7.69657 3.27153 7.71857C3.27132 7.74056 3.2368 7.78206 3.19484 7.81075C3.15287 7.83944 3.11828 7.88864 3.11798 7.92007C3.11767 7.9515 3.08308 8.00069 3.04112 8.02939C2.99915 8.05808 2.96452 8.11094 2.96418 8.14677C2.96383 8.18269 2.94933 8.21189 2.93209 8.21175C2.91475 8.2116 2.87613 8.25664 2.84632 8.31183C2.77241 8.44866 2.64352 8.6282 2.60879 8.64275C2.5931 8.6494 2.57995 8.6864 2.57957 8.72498C2.5792 8.76365 2.56184 8.79512 2.54099 8.79494C2.52015 8.79476 2.50293 8.81148 2.50273 8.83201C2.50253 8.85253 2.4591 8.93437 2.40622 9.01374C2.35334 9.09311 2.30983 9.18319 2.30953 9.2138C2.30923 9.24441 2.29194 9.26937 2.27109 9.26919C2.25025 9.26902 2.23288 9.30186 2.23249 9.34218C2.2321 9.3825 2.21472 9.41534 2.19388 9.41517C2.17304 9.41499 2.15566 9.44783 2.15527 9.48815C2.15488 9.52847 2.13751 9.56132 2.11666 9.56114C2.09582 9.56096 2.07845 9.59381 2.07806 9.63413C2.07767 9.67445 2.06029 9.70729 2.03945 9.70711C2.01861 9.70693 2.00123 9.73978 2.00084 9.7801C2.00045 9.82042 1.98308 9.85326 1.96223 9.85308C1.94139 9.85291 1.92402 9.88575 1.92363 9.92607C1.92323 9.96639 1.90586 9.99924 1.88502 9.99906C1.86417 9.99888 1.8468 10.0317 1.84641 10.072C1.84602 10.1124 1.82865 10.1452 1.8078 10.145C1.78696 10.1449 1.76959 10.1777 1.7692 10.218C1.7688 10.2583 1.75143 10.2912 1.73059 10.291C1.70974 10.2908 1.69229 10.3319 1.6918 10.3823C1.69131 10.4327 1.67386 10.4738 1.65302 10.4736C1.63217 10.4735 1.6148 10.5063 1.61441 10.5466C1.61402 10.5869 1.59664 10.6198 1.5758 10.6196C1.55496 10.6194 1.53758 10.6523 1.53719 10.6926C1.5368 10.7329 1.51943 10.7658 1.49859 10.7656C1.47774 10.7654 1.46021 10.8147 1.45962 10.8752C1.45904 10.9357 1.4415 10.985 1.42066 10.9849C1.39982 10.9847 1.38244 11.0175 1.38205 11.0578C1.38166 11.0982 1.36429 11.131 1.34344 11.1308C1.3226 11.1307 1.30507 11.18 1.30448 11.2405C1.30389 11.301 1.28636 11.3503 1.26552 11.3501C1.24468 11.3499 1.22723 11.39 1.22675 11.4392C1.22628 11.4884 1.21216 11.5368 1.1953 11.5466C1.17853 11.5565 1.14011 11.6489 1.11002 11.752C1.07993 11.8551 1.04152 11.9476 1.02474 11.9574C1.00788 11.9672 0.993775 12.0146 0.99331 12.0626C0.992844 12.1106 0.975311 12.16 0.954347 12.1723C0.933383 12.1845 0.915786 12.2404 0.915244 12.2963C0.914702 12.3522 0.902114 12.4094 0.887291 12.4235C0.872468 12.4376 0.853829 12.4934 0.845725 12.5475C0.837715 12.6016 0.812539 12.6672 0.789831 12.6932C0.767124 12.7191 0.758484 12.7502 0.770685 12.7623C0.782792 12.7743 0.765495 12.8481 0.732236 12.9264C0.698977 13.0048 0.680319 13.1017 0.690731 13.1418C0.701143 13.182 0.694199 13.2239 0.675141 13.235C0.656178 13.2462 0.640104 13.3111 0.639443 13.3793C0.638782 13.4474 0.621089 13.5133 0.600124 13.5256C0.57916 13.5378 0.561387 13.6119 0.560628 13.6902C0.559869 13.7684 0.542096 13.8425 0.521132 13.8548C0.500168 13.8671 0.482155 13.9659 0.481103 14.0744C0.480051 14.1829 0.462037 14.2817 0.441073 14.294C0.420109 14.3063 0.402086 14.4061 0.401022 14.5158C0.399959 14.6255 0.383362 14.7151 0.364035 14.7149C0.344802 14.7147 0.317807 14.8506 0.303973 15.0168C0.290233 15.183 0.25906 15.5251 0.234826 15.7769C0.16876 16.4634 0.129683 17.9431 0.176516 17.9892C0.198853 18.0112 0.213603 18.2098 0.211198 18.4578C0.208799 18.7052 0.223038 18.8979 0.244702 18.9111C0.265425 18.9238 0.281189 19.0569 0.279734 19.2069C0.278209 19.3642 0.293101 19.4797 0.314987 19.4799C0.336019 19.4801 0.351935 19.578 0.350751 19.7002C0.349566 19.8223 0.365482 19.9202 0.386515 19.9204C0.407358 19.9206 0.423542 20.0104 0.422478 20.1201C0.421415 20.2298 0.437499 20.3299 0.458221 20.3426C0.478944 20.3552 0.495277 20.4296 0.494519 20.5078C0.49376 20.5861 0.510094 20.6605 0.530816 20.6731C0.551538 20.6857 0.567942 20.7529 0.56727 20.8222C0.566597 20.8916 0.583385 20.9485 0.604702 20.9487C0.626966 20.9489 0.632843 20.9877 0.618593 21.0404C0.604734 21.0919 0.61909 21.1944 0.651472 21.2748C0.683114 21.3535 0.698884 21.4274 0.686547 21.4392C0.674115 21.451 0.68215 21.4822 0.70435 21.5085C0.72655 21.5349 0.75045 21.6009 0.75741 21.6551C0.764464 21.7094 0.782017 21.7655 0.796564 21.7798C0.811112 21.7942 0.822588 21.8516 0.822046 21.9075C0.821504 21.9634 0.838014 22.0196 0.858737 22.0322C0.879459 22.0448 0.896101 22.0874 0.895719 22.1268C0.895337 22.1662 0.91176 22.2313 0.932215 22.2716C0.95267 22.3118 0.986141 22.3777 1.0066 22.4179C1.02705 22.4581 1.04346 22.5242 1.04307 22.5648C1.04268 22.6054 1.05941 22.6387 1.08025 22.6389C1.1011 22.6391 1.11767 22.6887 1.11708 22.7492C1.1165 22.8097 1.13307 22.8593 1.15391 22.8595C1.17476 22.8597 1.19133 22.9093 1.19074 22.9698C1.19016 23.0303 1.20673 23.0799 1.22757 23.0801C1.24842 23.0802 1.26515 23.1134 1.26476 23.1537C1.26437 23.194 1.2811 23.2271 1.30195 23.2273C1.32279 23.2275 1.33936 23.2771 1.33878 23.3376C1.33819 23.3981 1.35476 23.4477 1.37561 23.4479C1.39645 23.4481 1.41318 23.4812 1.41279 23.5215C1.4124 23.5618 1.42914 23.595 1.44998 23.5951C1.47082 23.5953 1.48756 23.6285 1.48717 23.6688C1.48677 23.7091 1.50351 23.7422 1.52435 23.7424C1.5452 23.7426 1.56185 23.784 1.56136 23.8344C1.56087 23.8848 1.57752 23.9261 1.59837 23.9263C1.61921 23.9265 1.63595 23.9596 1.63555 23.9999C1.63516 24.0403 1.6519 24.0734 1.67274 24.0736C1.69358 24.0738 1.71032 24.1069 1.70993 24.1472C1.70954 24.1875 1.72627 24.2207 1.74711 24.2208C1.76796 24.221 1.78469 24.2541 1.7843 24.2945C1.78391 24.3348 1.80064 24.3679 1.82148 24.3681C1.84233 24.3683 1.85906 24.4014 1.85867 24.4417C1.85828 24.482 1.87501 24.5152 1.89586 24.5154C1.9167 24.5155 1.93343 24.5487 1.93304 24.589C1.93265 24.6293 1.94938 24.6624 1.97023 24.6626C1.99107 24.6628 2.0078 24.6959 2.00741 24.7362C2.00702 24.7766 2.02376 24.8097 2.0446 24.8099C2.06544 24.8101 2.08218 24.8432 2.08179 24.8835C2.08139 24.9238 2.09813 24.957 2.11897 24.9571C2.13981 24.9573 2.15662 24.9826 2.15633 25.0132C2.15603 25.0438 2.19394 25.1307 2.24058 25.2063C2.28722 25.282 2.3501 25.3935 2.3803 25.4542C2.41051 25.515 2.46476 25.5969 2.50086 25.6362C2.53696 25.6757 2.56628 25.7295 2.56603 25.7559C2.56577 25.7824 2.58261 25.8042 2.60346 25.8044C2.6243 25.8045 2.64114 25.8263 2.64089 25.8528C2.64063 25.8792 2.67418 25.9366 2.71545 25.9802C2.75672 26.0238 2.79027 26.0812 2.79001 26.1079C2.78975 26.1346 2.82342 26.1804 2.86482 26.2098C2.90623 26.2392 2.93986 26.289 2.93955 26.3204C2.93925 26.3518 2.97287 26.4016 3.01428 26.431C3.05568 26.4604 3.08938 26.5025 3.08917 26.5245C3.08896 26.5465 3.11879 26.5967 3.15546 26.6361C3.19212 26.6755 3.26307 26.7658 3.31316 26.8368C3.36326 26.9078 3.43025 26.9861 3.46203 27.011C3.49382 27.0358 3.50565 27.0565 3.4883 27.057C3.47096 27.0575 3.52641 27.1239 3.61157 27.2044C3.69672 27.285 3.76554 27.3598 3.76468 27.3707C3.76372 27.3816 3.76285 27.4028 3.76271 27.4179C3.76256 27.4331 3.82572 27.5153 3.90306 27.6008C4.13302 27.8547 4.20767 27.9441 4.18966 27.9439C4.18038 27.9439 4.31659 28.0852 4.49257 28.2581C4.66845 28.431 4.80362 28.5723 4.79291 28.5722C4.7823 28.5721 4.87934 28.678 5.00874 28.8074C5.13815 28.9368 5.25434 29.0409 5.26697 29.0387C5.27959 29.0365 5.42328 29.1682 5.58628 29.3313C5.74928 29.4946 5.94191 29.6692 6.01438 29.7195C6.08685 29.7698 6.19685 29.8585 6.25882 29.9168C6.32079 29.975 6.42222 30.0486 6.48416 30.0804C6.5461 30.112 6.64344 30.1872 6.70047 30.2473C6.75749 30.3074 6.80422 30.3443 6.80437 30.3294C6.80451 30.3144 6.84921 30.346 6.90365 30.3996C6.95808 30.4532 7.01744 30.4973 7.03563 30.4974C7.05382 30.4976 7.12175 30.5476 7.18663 30.6087C7.25151 30.6697 7.32379 30.7198 7.34738 30.72C7.37097 30.7202 7.41452 30.7536 7.44416 30.7942C7.4738 30.8347 7.52464 30.8682 7.55714 30.8684C7.58964 30.8687 7.64048 30.9021 7.67012 30.9427C7.69976 30.9833 7.74653 31.0167 7.7741 31.0169C7.80167 31.0171 7.86047 31.0506 7.9048 31.0913C7.94912 31.132 8.00783 31.1655 8.03511 31.1657C8.06249 31.166 8.08469 31.1827 8.0845 31.2028C8.0843 31.223 8.1065 31.2397 8.13388 31.2399C8.16117 31.2401 8.21987 31.2736 8.2642 31.3143C8.30853 31.355 8.37111 31.3885 8.40323 31.3888C8.43535 31.3891 8.46153 31.4058 8.46133 31.426C8.46114 31.4461 8.47718 31.4627 8.49698 31.4629C8.51678 31.4631 8.63133 31.5218 8.75154 31.5933C8.87175 31.6648 8.99994 31.7236 9.03642 31.724C9.07289 31.7244 9.10257 31.7412 9.10238 31.7613C9.10218 31.7815 9.13613 31.7983 9.17782 31.7986C9.2195 31.799 9.25345 31.8157 9.25326 31.8359C9.25306 31.8561 9.28701 31.8729 9.32869 31.8732C9.37038 31.8736 9.40433 31.8903 9.40413 31.9105C9.40394 31.9307 9.43788 31.9474 9.47957 31.9478C9.52126 31.9482 9.5552 31.9649 9.55501 31.9851C9.55481 32.0053 9.58876 32.022 9.63045 32.0224C9.67213 32.0227 9.70608 32.0395 9.70588 32.0597C9.70569 32.0799 9.73964 32.0966 9.78132 32.097C9.82301 32.0973 9.85696 32.1141 9.85676 32.1343C9.85657 32.1544 9.89051 32.1712 9.9322 32.1716C9.97389 32.1719 10.0078 32.1887 10.0076 32.2089C10.0074 32.229 10.0499 32.2459 10.102 32.2463C10.1541 32.2468 10.1966 32.2636 10.1964 32.2838C10.1962 32.304 10.2302 32.3207 10.2718 32.3211C10.3135 32.3214 10.3475 32.3382 10.3473 32.3584C10.3471 32.3786 10.381 32.3953 10.4227 32.3957C10.4644 32.396 10.4984 32.4128 10.4982 32.433C10.498 32.4531 10.549 32.4701 10.6115 32.4706C10.674 32.4711 10.725 32.4881 10.7248 32.5082C10.7246 32.5284 10.7575 32.5452 10.798 32.5455C10.8385 32.5458 10.882 32.5627 10.8947 32.583C10.9073 32.6032 10.9594 32.6202 11.0103 32.6206C11.0611 32.6211 11.1026 32.6379 11.1024 32.6581C11.1022 32.6782 11.1532 32.6951 11.2157 32.6957C11.2782 32.6962 11.3292 32.7131 11.3291 32.7333C11.3289 32.7535 11.3799 32.7704 11.4424 32.7709C11.5049 32.7714 11.5559 32.7884 11.5557 32.8085C11.5555 32.8287 11.5884 32.8455 11.6289 32.8458C11.6693 32.8462 11.7129 32.863 11.7255 32.8833C11.7382 32.9036 11.7892 32.9205 11.8389 32.9209C11.8885 32.9213 11.9395 32.9383 11.9522 32.9585C11.9649 32.9788 12.0244 32.9958 12.0845 32.9963C12.1446 32.9968 12.2041 33.0138 12.2168 33.0341C12.2295 33.0544 12.2986 33.0714 12.3703 33.072C12.442 33.0727 12.5005 33.0896 12.5003 33.1098C12.5001 33.13 12.5437 33.1468 12.5971 33.1473C12.6507 33.1477 12.7234 33.1635 12.7588 33.1822C12.7943 33.2009 12.9421 33.2288 13.0874 33.2442C13.2326 33.2595 13.357 33.2867 13.3638 33.3046C13.3706 33.3226 13.46 33.3379 13.5624 33.3388C13.6649 33.3396 13.7486 33.3568 13.7484 33.377C13.7482 33.3972 13.8333 33.4144 13.9375 33.4153C14.0417 33.4161 14.1269 33.4334 14.1267 33.4535C14.1265 33.4745 14.24 33.4911 14.3916 33.4924C14.5432 33.4937 14.6567 33.5104 14.6565 33.5313C14.6563 33.552 14.7627 33.5689 14.9002 33.5701C15.0345 33.5712 15.1547 33.5887 15.1674 33.609C15.1807 33.6304 15.3885 33.6475 15.662 33.6498C15.951 33.6523 16.1333 33.668 16.1331 33.6905C16.1328 33.714 16.4612 33.7299 17.0422 33.7349C17.6233 33.7398 17.9519 33.7294 17.9521 33.7059C17.9523 33.6835 18.1348 33.6708 18.4239 33.6733C18.6974 33.6756 18.9054 33.662 18.9192 33.6408C18.9323 33.6208 19.0699 33.6055 19.225 33.6068C19.3877 33.6081 19.5071 33.5937 19.5073 33.5725C19.5075 33.5522 19.6087 33.5367 19.735 33.5378C19.8613 33.5389 19.9626 33.5234 19.9628 33.5031C19.963 33.4829 20.0559 33.4672 20.1693 33.4682C20.2827 33.4691 20.3862 33.4535 20.3993 33.4335C20.4124 33.4134 20.4903 33.3976 20.5725 33.3983C20.6546 33.399 20.7219 33.386 20.7221 33.3695C20.7222 33.3529 20.8632 33.3209 21.0354 33.2983C21.5013 33.2372 21.5938 33.2189 21.6171 33.1832C21.6287 33.1653 21.6874 33.1511 21.7475 33.1516C21.8075 33.1521 21.8674 33.1362 21.8805 33.1161C21.8935 33.0961 21.9534 33.0801 22.0135 33.0806C22.0735 33.0811 22.1334 33.0651 22.1465 33.0451C22.1595 33.025 22.2036 33.0089 22.2443 33.0092C22.285 33.0096 22.3524 32.9936 22.394 32.9738C22.4356 32.954 22.5037 32.9216 22.5453 32.9018C22.5869 32.882 22.6543 32.8661 22.695 32.8664C22.7357 32.8668 22.7798 32.8506 22.7928 32.8306C22.8059 32.8105 22.8583 32.7945 22.9092 32.7949C22.96 32.7954 23.0018 32.7792 23.002 32.7591C23.0022 32.7389 23.0535 32.7228 23.116 32.7234C23.1786 32.7239 23.2299 32.7078 23.2301 32.6877C23.2303 32.6675 23.2645 32.6513 23.3062 32.6517C23.3479 32.652 23.3822 32.6358 23.3824 32.6157C23.3826 32.5955 23.4339 32.5794 23.4964 32.58C23.5589 32.5805 23.6103 32.5644 23.6105 32.5443C23.6107 32.5241 23.6449 32.5079 23.6866 32.5083C23.7283 32.5086 23.7626 32.4924 23.7628 32.4723C23.763 32.4521 23.8057 32.436 23.8579 32.4364C23.91 32.4368 23.9528 32.4207 23.953 32.4006C23.9531 32.3804 23.9874 32.3642 24.0291 32.3645C24.0708 32.3649 24.1051 32.3487 24.1053 32.3285C24.1054 32.3084 24.1397 32.2922 24.1814 32.2925C24.2231 32.2929 24.2574 32.2767 24.2576 32.2565C24.2577 32.2364 24.292 32.2201 24.3337 32.2205C24.3754 32.2209 24.4097 32.2047 24.4098 32.1845C24.41 32.1643 24.4443 32.1481 24.486 32.1485C24.5277 32.1488 24.562 32.1326 24.5621 32.1125C24.5623 32.0923 24.5966 32.0761 24.6383 32.0765C24.68 32.0768 24.7142 32.0606 24.7144 32.0404C24.7146 32.0203 24.7489 32.0041 24.7906 32.0044C24.8323 32.0048 24.8665 31.9886 24.8667 31.9684C24.8669 31.9483 24.9012 31.9321 24.9429 31.9324C24.9846 31.9328 25.0188 31.9166 25.019 31.8964C25.0192 31.8762 25.047 31.86 25.0806 31.8603C25.1587 31.8609 25.5138 31.679 25.5142 31.6381C25.5144 31.6212 25.5403 31.6076 25.5719 31.6078C25.639 31.6084 25.7643 31.5443 25.8718 31.4546C25.9136 31.4197 25.9702 31.3913 25.9975 31.3915C26.0249 31.3917 26.0474 31.3754 26.0476 31.3553C26.0478 31.3351 26.0703 31.3188 26.0977 31.319C26.125 31.3193 26.1843 31.2868 26.2294 31.2469C26.2745 31.2069 26.334 31.1744 26.3615 31.1747C26.3891 31.1749 26.4365 31.1423 26.4669 31.1022C26.4974 31.0622 26.5488 31.0296 26.5813 31.0299C26.6138 31.0302 26.6653 30.9976 26.6957 30.9576C26.7262 30.9175 26.7704 30.8849 26.7939 30.8851C26.8175 30.8853 26.8908 30.8364 26.9568 30.7765C27.0229 30.7166 27.0918 30.6677 27.11 30.6678C27.1281 30.668 27.1883 30.6249 27.2438 30.5723C27.2993 30.5196 27.3446 30.4887 27.3444 30.5037C27.3443 30.5187 27.3917 30.4825 27.4499 30.4234C27.5081 30.3643 27.6152 30.2867 27.688 30.2512C27.7608 30.2156 27.8636 30.1432 27.9165 30.0904C27.9694 30.0376 28.0719 29.955 28.1444 29.9067C28.419 29.7238 29.9034 28.3143 30.0959 28.0538C30.1477 27.9837 30.2372 27.8838 30.2948 27.8316C30.3524 27.7796 30.4049 27.7147 30.4114 27.6875C30.4262 27.6251 30.468 27.5719 30.6255 27.4148C30.6947 27.3459 30.7398 27.2895 30.7259 27.2894C30.7118 27.2893 30.7458 27.246 30.8013 27.1934C30.8567 27.1407 30.9023 27.0832 30.9025 27.0656C30.9026 27.048 30.9544 26.9823 31.0176 26.9195C31.0807 26.8567 31.1326 26.7868 31.1328 26.764C31.133 26.7412 31.1675 26.699 31.2095 26.6703C31.2515 26.6416 31.2861 26.5924 31.2864 26.561C31.2867 26.5296 31.3213 26.4804 31.3632 26.4517C31.4052 26.423 31.4397 26.3777 31.44 26.3511C31.4403 26.3244 31.4749 26.2675 31.517 26.2246C31.5591 26.1817 31.5938 26.1249 31.594 26.0985C31.5943 26.0721 31.6116 26.0506 31.6324 26.0507C31.6533 26.0509 31.6705 26.0294 31.6708 26.003C31.671 25.9766 31.7014 25.9224 31.7383 25.8826C31.833 25.7803 31.9015 25.6602 31.9021 25.5953C31.9024 25.5648 31.9155 25.54 31.9311 25.5401C31.9713 25.5403 32.1713 25.1952 32.172 25.1243C32.1723 25.092 32.1896 25.0657 32.2105 25.0659C32.2313 25.0661 32.2487 25.0332 32.2491 24.9929C32.2495 24.9526 32.2668 24.9198 32.2877 24.9199C32.3085 24.9201 32.3259 24.8873 32.3263 24.847C32.3267 24.8066 32.344 24.7738 32.3649 24.774C32.3857 24.7741 32.4031 24.7413 32.4035 24.701C32.4039 24.6607 32.4213 24.6278 32.4421 24.628C32.463 24.6282 32.4803 24.5953 32.4807 24.555C32.4811 24.5147 32.4985 24.4818 32.5193 24.482C32.5402 24.4822 32.5575 24.4494 32.5579 24.409C32.5583 24.3687 32.5757 24.3359 32.5965 24.336C32.6174 24.3362 32.6348 24.3034 32.6351 24.2631C32.6355 24.2227 32.6529 24.1899 32.6738 24.1901C32.6946 24.1902 32.712 24.1584 32.7123 24.1193C32.7127 24.0802 32.7302 24.0381 32.7511 24.0258C32.7721 24.0135 32.7896 23.9714 32.79 23.9323C32.7903 23.8931 32.8077 23.8613 32.8285 23.8615C32.8494 23.8616 32.8668 23.8288 32.8671 23.7885C32.8675 23.7482 32.8849 23.7153 32.9058 23.7155C32.9266 23.7157 32.9441 23.6663 32.9447 23.6059C32.9453 23.5454 32.9628 23.496 32.9837 23.4962C33.0045 23.4964 33.0219 23.4636 33.0223 23.4232C33.0227 23.3829 33.0401 23.3501 33.0609 23.3502C33.0817 23.3504 33.0993 23.3011 33.0999 23.2406C33.1004 23.1801 33.118 23.1308 33.1388 23.131C33.1597 23.1311 33.1771 23.0911 33.1776 23.0419C33.1781 22.9926 33.1956 22.9423 33.2166 22.93C33.2375 22.9177 33.255 22.8754 33.2554 22.836C33.2558 22.7966 33.2734 22.7318 33.2947 22.6919C33.3159 22.6521 33.3507 22.5868 33.3719 22.5469C33.3931 22.507 33.4108 22.4422 33.4112 22.4028C33.4116 22.3634 33.429 22.3211 33.45 22.3088C33.471 22.2965 33.4886 22.2389 33.4891 22.1809C33.4897 22.1228 33.5073 22.0652 33.5283 22.0529C33.5492 22.0406 33.5669 21.983 33.5674 21.9249C33.568 21.8668 33.5856 21.8092 33.6066 21.797C33.6275 21.7847 33.6451 21.7333 33.6456 21.6827C33.6461 21.6322 33.6635 21.5606 33.6844 21.5238C33.7053 21.4868 33.7347 21.3397 33.7499 21.1968C33.765 21.0539 33.792 20.9371 33.8098 20.9372C33.8277 20.9374 33.8429 20.8725 33.8437 20.7931C33.8445 20.7136 33.8622 20.6386 33.8832 20.6263C33.9042 20.614 33.9222 20.5142 33.9233 20.4045C33.9243 20.2948 33.9422 20.2052 33.9631 20.2054C33.9841 20.2056 34.0019 20.1079 34.0031 19.9858C34.0043 19.8636 34.0221 19.766 34.0431 19.7662C34.065 19.7664 34.0822 19.6511 34.0837 19.4938C34.0851 19.3438 34.1035 19.211 34.1245 19.1987C34.1466 19.1858 34.1644 18.9849 34.167 18.7203C34.1697 18.4407 34.1861 18.2645 34.2093 18.2647C34.2336 18.2649 34.2503 17.948 34.2557 17.3875C34.261 16.842 34.25 16.5012 34.2265 16.4869C34.2049 16.4737 34.1907 16.2792 34.1931 16.0284C34.1955 15.7776 34.1813 15.5831 34.1596 15.5699C34.1389 15.5573 34.1232 15.4242 34.1246 15.2742C34.1261 15.1168 34.1112 15.0013 34.0894 15.0012C34.0683 15.001 34.0524 14.9031 34.0536 14.7809C34.0548 14.6588 34.0389 14.5608 34.0178 14.5607C33.997 14.5605 33.9808 14.4706 33.9819 14.3609C33.9829 14.2513 33.9668 14.1511 33.9461 14.1385C33.9254 14.1259 33.9091 14.0505 33.9098 13.971C33.9106 13.8916 33.8967 13.8265 33.8787 13.8263C33.8609 13.8262 33.8362 13.709 33.8239 13.5658C33.8115 13.4226 33.7849 13.275 33.7648 13.2378C33.7446 13.2006 33.7285 13.1287 33.729 13.0782C33.7295 13.0276 33.7129 12.976 33.6922 12.9633C33.6715 12.9507 33.655 12.8928 33.6556 12.8347C33.6561 12.7766 33.6396 12.7187 33.6189 12.7061C33.5982 12.6935 33.5817 12.6356 33.5823 12.5775C33.5828 12.5194 33.5663 12.4615 33.5456 12.4489C33.5249 12.4362 33.5082 12.3937 33.5086 12.3543C33.509 12.3149 33.49 12.2456 33.4663 12.2003C33.3739 12.0235 33.3606 11.9876 33.3612 11.9184C33.3616 11.879 33.345 11.8365 33.3243 11.8238C33.3035 11.8112 33.287 11.7606 33.2875 11.7113C33.2879 11.6621 33.2713 11.6218 33.2504 11.6216C33.2296 11.6214 33.213 11.5718 33.2136 11.5113C33.2142 11.4508 33.1976 11.4012 33.1768 11.401C33.1559 11.4008 33.1392 11.3677 33.1396 11.3274C33.14 11.2871 33.1232 11.2539 33.1024 11.2538C33.0815 11.2536 33.065 11.204 33.0656 11.1435C33.0661 11.083 33.0496 11.0334 33.0287 11.0332C33.0079 11.033 32.9912 10.9999 32.9915 10.9596C32.9919 10.9192 32.9752 10.8861 32.9544 10.8859C32.9335 10.8858 32.9168 10.8536 32.9172 10.8145C32.9175 10.7754 32.9009 10.733 32.8802 10.7203C32.8594 10.7077 32.8428 10.6653 32.8432 10.6262C32.8436 10.5871 32.8268 10.5549 32.806 10.5548C32.7851 10.5546 32.7684 10.5214 32.7688 10.4811C32.7692 10.4408 32.7524 10.4077 32.7316 10.4075C32.7108 10.4073 32.694 10.3742 32.6944 10.3339C32.6948 10.2935 32.6781 10.2604 32.6572 10.2602C32.6364 10.2601 32.6197 10.2269 32.62 10.1866C32.6204 10.1463 32.6037 10.1132 32.5829 10.113C32.562 10.1128 32.5453 10.0797 32.5457 10.0393C32.5461 9.99903 32.5293 9.9659 32.5085 9.96572C32.4876 9.96554 32.4709 9.93241 32.4713 9.89209C32.4717 9.85177 32.455 9.81864 32.4341 9.81846C32.4133 9.81828 32.3965 9.78515 32.3969 9.74483C32.3973 9.70451 32.3806 9.67138 32.3597 9.6712C32.3389 9.67102 32.3221 9.64201 32.3224 9.60673C32.3226 9.57145 32.2641 9.44641 32.1924 9.32887C32.1207 9.21132 32.0621 9.09948 32.0623 9.08033C32.0625 9.06118 32.0456 9.04536 32.0247 9.04519C32.0039 9.04501 31.9871 9.01939 31.9874 8.98833C31.9877 8.95726 31.9541 8.89613 31.9129 8.85252C31.8716 8.80892 31.8381 8.75154 31.8383 8.72515C31.8386 8.69866 31.8217 8.67689 31.8009 8.67672C31.78 8.67654 31.7632 8.65477 31.7635 8.62829C31.7637 8.60189 31.7302 8.54452 31.6889 8.50091C31.6476 8.4573 31.6141 8.39984 31.6143 8.37317C31.6146 8.3465 31.5809 8.30067 31.5395 8.27127C31.4981 8.24187 31.4645 8.19209 31.4648 8.16066C31.4651 8.12923 31.4315 8.07946 31.3901 8.05006C31.3487 8.02066 31.315 7.97858 31.3152 7.95659C31.3154 7.9346 31.2855 7.8844 31.2489 7.84496C31.2122 7.8056 31.1413 7.71528 31.0912 7.64429C31.0411 7.5733 30.9741 7.49493 30.9423 7.4701C30.9105 7.44527 30.8991 7.42455 30.9169 7.42406C30.9348 7.42357 30.8993 7.37718 30.8383 7.32094C30.7772 7.2647 30.6973 7.16166 30.661 7.09198C30.6245 7.02229 30.5301 6.9041 30.4511 6.82938C30.3721 6.75466 30.3161 6.68527 30.3268 6.67519C30.3374 6.6652 30.2016 6.51476 30.0251 6.34088C29.8486 6.1671 29.7044 6.00715 29.7046 5.98561C29.7048 5.96399 29.6783 5.94608 29.6458 5.9458C29.6133 5.94552 29.5939 5.93299 29.6025 5.91794C29.6112 5.90289 29.511 5.7863 29.3799 5.65881C29.2488 5.53132 29.1414 5.43428 29.1413 5.44307C29.1413 5.45187 29.0018 5.32303 28.8314 5.15681C28.6611 4.9905 28.4624 4.81313 28.3899 4.76257C28.3175 4.71192 28.2027 4.61619 28.135 4.54981C28.0249 4.44193 27.9941 4.4249 27.9179 4.42966C27.9066 4.4303 27.8305 4.36239 27.7488 4.27857C27.6671 4.19476 27.6001 4.13994 27.5999 4.15671C27.5997 4.17347 27.5596 4.14152 27.5109 4.08566C27.4622 4.0298 27.4072 3.98397 27.3887 3.98372C27.3703 3.98357 27.296 3.93345 27.2237 3.87244C27.1513 3.81144 27.0746 3.7613 27.0531 3.76112C27.0317 3.76084 26.9898 3.7275 26.9602 3.68692C26.9305 3.64635 26.8797 3.61293 26.8472 3.61265C26.8147 3.61237 26.7645 3.57987 26.7356 3.54031C26.7068 3.50085 26.6714 3.47544 26.657 3.48393C26.6426 3.49233 26.5821 3.458 26.5225 3.40755C26.4629 3.3571 26.3929 3.31563 26.3669 3.31532C26.3408 3.3151 26.3196 3.29842 26.3198 3.27826C26.32 3.2581 26.2978 3.24142 26.2705 3.24118C26.2432 3.24095 26.188 3.21107 26.1479 3.1748C26.1079 3.13854 26.0072 3.07757 25.9242 3.03947C25.8412 3.00129 25.7283 2.93902 25.6733 2.90107C25.6184 2.86312 25.5462 2.83181 25.5129 2.83153C25.4797 2.83124 25.4526 2.81452 25.4528 2.79436C25.453 2.7742 25.4191 2.75742 25.3774 2.75706C25.3357 2.75671 25.3018 2.73992 25.302 2.71976C25.3022 2.6996 25.2682 2.68282 25.2265 2.68247C25.1848 2.68211 25.1509 2.66533 25.1511 2.64517C25.1513 2.62501 25.1173 2.60823 25.0756 2.60787C25.034 2.60752 25 2.59073 25.0002 2.57057C25.0004 2.55042 24.9665 2.53363 24.9248 2.53328C24.8831 2.53292 24.8491 2.51614 24.8493 2.49598C24.8495 2.47582 24.8156 2.45904 24.7739 2.45868C24.7322 2.45833 24.6983 2.44154 24.6985 2.42139C24.6987 2.40123 24.6647 2.38444 24.623 2.38409C24.5813 2.38373 24.5474 2.36695 24.5476 2.34679C24.5478 2.32663 24.5138 2.30985 24.4721 2.30949C24.4305 2.30914 24.3965 2.29236 24.3967 2.2722C24.3969 2.25204 24.363 2.23525 24.3213 2.2349C24.2796 2.23454 24.2456 2.21776 24.2458 2.1976C24.246 2.17744 24.2035 2.16059 24.1514 2.16014C24.0993 2.1597 24.0569 2.14284 24.0571 2.12268C24.0572 2.10253 24.0233 2.08574 23.9816 2.08539C23.9399 2.08503 23.906 2.06825 23.9062 2.04809C23.9064 2.02793 23.8554 2.011 23.7928 2.01047C23.7303 2.00994 23.6793 1.99301 23.6795 1.97285C23.6797 1.95269 23.6458 1.93591 23.6041 1.93555C23.5624 1.9352 23.5284 1.91842 23.5286 1.89826C23.5288 1.8781 23.4778 1.86117 23.4153 1.86064C23.3528 1.86011 23.3018 1.84318 23.302 1.82302C23.3022 1.80286 23.2607 1.78601 23.2098 1.78558C23.159 1.78515 23.109 1.77153 23.0988 1.75522C23.0886 1.73901 22.9931 1.7019 22.8865 1.67286C22.7799 1.64383 22.6844 1.60672 22.6742 1.59051C22.6641 1.5742 22.6151 1.56059 22.5655 1.56017C22.5158 1.55975 22.4648 1.54282 22.4521 1.52255C22.4394 1.50228 22.3823 1.4853 22.3251 1.48481C22.268 1.48433 22.201 1.46397 22.1763 1.43956C22.1515 1.41516 22.1311 1.40692 22.131 1.42131C22.1308 1.43569 22.0686 1.42179 21.9928 1.39035C21.917 1.35892 21.8469 1.34073 21.8373 1.3499C21.8276 1.35916 21.7535 1.3403 21.6725 1.30818C21.5915 1.27606 21.4913 1.25807 21.4498 1.26816C21.4083 1.27835 21.3744 1.27165 21.3746 1.25341C21.3748 1.23509 21.2982 1.2195 21.2044 1.2187C21.1106 1.21791 21.034 1.20076 21.0342 1.1806C21.0344 1.16044 20.9663 1.14337 20.883 1.14266C20.7996 1.14195 20.7315 1.12488 20.7317 1.10472C20.7319 1.08438 20.631 1.06721 20.5047 1.06614C20.3784 1.06506 20.2775 1.04789 20.2777 1.02755C20.2779 1.00721 20.1769 0.990039 20.0507 0.988967C19.9244 0.987896 19.8234 0.970726 19.8236 0.950383C19.8238 0.929216 19.7047 0.912717 19.542 0.911336C19.3869 0.91002 19.2496 0.892359 19.2369 0.87209C19.2236 0.850715 19.0159 0.833556 18.7424 0.831235C18.4533 0.828781 18.2711 0.81303 18.2713 0.790579C18.2715 0.767121 17.9432 0.751137 17.3621 0.746206C16.8178 0.741586 16.4525 0.752323 16.4523 0.773033ZM12.1863 10.7726C12.4473 10.8586 12.4577 10.8682 14.8943 13.2656C16.1532 14.5042 17.2039 15.5176 17.2294 15.5176C17.2549 15.5176 18.3511 14.4961 19.6653 13.2474C21.3091 11.6858 22.1035 10.9557 22.2105 10.9081C23.06 10.5308 23.98 11.0959 23.9713 11.9896C23.9663 12.512 24.0606 12.4041 21.3618 14.9742L18.9691 17.2529L19.1919 17.4843C19.3144 17.6116 20.3781 18.6646 21.5556 19.8242C23.9888 22.2207 23.8827 22.0915 23.8765 22.6491C23.8685 23.3617 23.4074 23.7998 22.672 23.7936C22.1041 23.7888 22.2606 23.916 19.591 21.2877C18.2892 20.006 17.2072 18.9627 17.1866 18.9693C17.1661 18.9759 16.0773 19.9968 14.7672 21.2379C12.056 23.8061 12.1856 23.7046 11.6251 23.6998C10.8713 23.6934 10.3685 23.1879 10.4116 22.4799C10.4411 21.9961 10.3774 22.0674 13.0279 19.5512C14.3435 18.3022 15.4202 17.2579 15.4207 17.2305C15.4211 17.203 14.3674 16.1423 13.0792 14.8734C11.4059 13.2254 10.7158 12.5217 10.6632 12.4102C10.1933 11.4128 11.1165 10.4202 12.1863 10.7726Z" fill="#DB2929"/>
<path id="path2" fill-rule="evenodd" clip-rule="evenodd" d="M11.5999 10.6984C11.5243 10.7145 11.5816 10.7235 11.7702 10.7251C11.9588 10.7267 12.0162 10.7187 11.941 10.7013C11.8786 10.6869 11.8019 10.6749 11.7707 10.6746C11.7394 10.6744 11.6626 10.6851 11.5999 10.6984ZM22.6089 10.7929C22.5094 10.811 22.5454 10.818 22.7518 10.8208C22.9035 10.8228 23.0229 10.8207 23.0172 10.8161C22.9819 10.7876 22.7207 10.7727 22.6089 10.7929ZM12.5229 10.9777C12.6184 11.0813 12.6391 11.0942 12.6375 11.049C12.6371 11.0339 12.5906 10.9894 12.5342 10.9503L12.4319 10.879L12.5229 10.9777ZM21.7486 11.2657C21.3398 11.6605 21.3373 11.6757 21.7429 11.3012C21.9263 11.1319 22.0764 10.9888 22.0765 10.9833C22.0768 10.9541 22.0254 10.9983 21.7486 11.2657ZM12.845 11.2923C12.9276 11.3703 13.0032 11.4278 13.013 11.4201C13.0355 11.4023 12.7676 11.1509 12.7258 11.1506C12.7088 11.1504 12.7625 11.2142 12.845 11.2923ZM23.9349 11.7589C23.9342 11.8295 23.9417 11.8584 23.9516 11.8232C23.9614 11.788 23.962 11.7303 23.9528 11.6949C23.9436 11.6596 23.9355 11.6884 23.9349 11.7589ZM10.5354 11.746C10.5226 11.8215 10.5248 11.9411 10.5402 12.0118C10.5626 12.1147 10.5689 12.0874 10.5718 11.8746C10.5761 11.5745 10.5686 11.5485 10.5354 11.746ZM23.9306 12.1988C23.9299 12.2693 23.9374 12.2983 23.9473 12.2631C23.9571 12.2279 23.9577 12.1701 23.9486 12.1348C23.9393 12.0994 23.9313 12.1282 23.9306 12.1988ZM20.3646 12.5809C20.1076 12.8257 19.8848 13.0424 19.8694 13.0624C19.854 13.0824 20.0688 12.8866 20.3469 12.6271C20.6248 12.3676 20.8523 12.151 20.8524 12.1457C20.8527 12.1192 20.7979 12.168 20.3646 12.5809ZM13.9605 12.3891C14.0162 12.4399 14.0751 12.4817 14.0914 12.4818C14.1078 12.482 14.0756 12.4404 14.0198 12.3896C13.9641 12.3387 13.9052 12.297 13.8889 12.2968C13.8725 12.2967 13.9047 12.3382 13.9605 12.3891ZM14.3634 12.7805C14.5123 12.9246 14.6414 13.0358 14.6501 13.0276C14.6696 13.0091 14.1599 12.5191 14.1208 12.5187C14.1052 12.5186 14.2144 12.6364 14.3634 12.7805ZM21.3592 14.9203C20.046 16.1725 18.9644 17.2171 18.9556 17.2417C18.9402 17.2855 19.2892 17.6579 19.3461 17.6584C19.3621 17.6585 19.2833 17.5671 19.171 17.4551L18.967 17.2517L21.3662 14.9702C23.4033 13.033 23.8315 12.6155 23.7564 12.6404C23.7512 12.6422 22.6725 13.6681 21.3592 14.9203ZM10.9921 12.8007C10.9917 12.8393 11.1048 12.9447 11.1255 12.9251C11.1352 12.916 11.1092 12.8782 11.0677 12.8412C11.0262 12.8043 10.9922 12.7861 10.9921 12.8007ZM11.2325 13.0624C11.2841 13.1132 11.3385 13.1549 11.3536 13.1551C11.3686 13.1552 11.3412 13.1137 11.2927 13.0629C11.2442 13.0121 11.1898 12.9704 11.1716 12.9702C11.1534 12.9701 11.1808 13.0116 11.2325 13.0624ZM18.7466 14.1169C18.2464 14.5955 18.2718 14.5701 18.2934 14.5703C18.3024 14.5704 18.5158 14.3742 18.7676 14.1344C19.0194 13.8946 19.2162 13.6983 19.2049 13.6982C19.1936 13.6982 18.9874 13.8866 18.7466 14.1169ZM15.4168 13.7883C15.4166 13.8044 15.6023 14.0006 15.8295 14.2243C16.0566 14.448 16.2425 14.6173 16.2427 14.6005C16.2429 14.5837 16.0572 14.3874 15.83 14.1645C15.6029 13.9415 15.4169 13.7722 15.4168 13.7883ZM12.1559 13.9452C12.1557 13.9598 12.1978 14.0132 12.2495 14.0641C12.3011 14.1149 12.3435 14.1422 12.3436 14.1246C12.3438 14.107 12.3017 14.0536 12.25 14.0058C12.1984 13.958 12.156 13.9308 12.1559 13.9452ZM12.3811 14.1718C12.3807 14.2067 12.6424 14.4624 12.6604 14.4449C12.6683 14.4372 12.6088 14.3669 12.528 14.2885C12.4473 14.2102 12.3812 14.1577 12.3811 14.1718ZM12.7717 14.5784C12.8233 14.6292 12.8777 14.6709 12.8928 14.6711C12.9078 14.6712 12.8804 14.6297 12.8319 14.5789C12.7834 14.5281 12.729 14.4864 12.7108 14.4862C12.6926 14.4861 12.72 14.5276 12.7717 14.5784ZM17.4449 15.3509C17.2489 15.5404 17.2246 15.5455 17.1064 15.4217C17.0579 15.3708 17.0025 15.3291 16.983 15.329C16.9636 15.3288 17.002 15.3786 17.0684 15.4397C17.2273 15.5858 17.2463 15.5825 17.467 15.3697C17.5706 15.2698 17.646 15.188 17.6346 15.1879C17.6231 15.1878 17.5378 15.2612 17.4449 15.3509ZM13.6951 15.4612C13.6949 15.4758 13.737 15.5292 13.7887 15.5801C13.8403 15.6309 13.8827 15.6582 13.8828 15.6406C13.883 15.623 13.8409 15.5696 13.7892 15.5218C13.7376 15.474 13.6952 15.4468 13.6951 15.4612ZM13.9203 15.6848C13.9199 15.7234 14.0331 15.8289 14.0537 15.8092C14.0634 15.8001 14.0374 15.7624 13.9959 15.7253C13.9545 15.6884 13.9204 15.6702 13.9203 15.6848ZM14.1455 15.907C14.1452 15.9445 14.4062 16.2009 14.4259 16.1822C14.4342 16.1742 14.3746 16.1026 14.2935 16.0231C14.2123 15.9436 14.1457 15.8913 14.1455 15.907ZM15.3106 17.0495C15.3098 17.066 15.3344 17.1045 15.3654 17.135C15.444 17.2124 15.435 17.2786 15.3348 17.3575C15.2875 17.3948 15.206 17.4736 15.1538 17.5327C15.1015 17.592 15.1487 17.5593 15.2588 17.4601C15.3687 17.361 15.4589 17.2605 15.4591 17.2368C15.4596 17.1879 15.313 17.0029 15.3106 17.0495ZM13.9651 18.6585C13.4649 19.137 13.4903 19.1117 13.5119 19.1118C13.5209 19.1119 13.7342 18.9158 13.986 18.676C14.2378 18.4362 14.4346 18.2399 14.4234 18.2398C14.4121 18.2397 14.2059 18.4281 13.9651 18.6585ZM20.1095 18.4102C20.1093 18.4264 20.295 18.6226 20.5221 18.8463C20.7493 19.07 20.9352 19.2393 20.9354 19.2225C20.9355 19.2056 20.7498 19.0094 20.5227 18.7864C20.2956 18.5635 20.1096 18.3942 20.1095 18.4102ZM15.2786 20.7031C14.2477 21.6822 13.416 22.4835 13.4302 22.4836C13.4445 22.4837 14.2919 21.6901 15.3134 20.7201C17.112 19.012 17.3006 18.8522 17.2988 19.0379C17.2986 19.0559 17.3198 19.0703 17.3458 19.0699C17.3968 19.0689 17.2367 18.9235 17.1843 18.9231C17.167 18.9229 16.3094 19.7239 15.2786 20.7031ZM17.4643 19.2004C17.516 19.2512 17.5704 19.2929 17.5855 19.293C17.6004 19.2932 17.5731 19.2517 17.5246 19.2009C17.4761 19.1501 17.4216 19.1084 17.4035 19.1082C17.3853 19.1081 17.4127 19.1495 17.4643 19.2004ZM12.3576 20.185C12.0962 20.4356 11.8744 20.6523 11.8646 20.6665C11.8547 20.6807 12.0741 20.48 12.3522 20.2206C12.6301 19.9611 12.8576 19.7445 12.8577 19.7392C12.858 19.7096 12.7909 19.7694 12.3576 20.185ZM22.0564 20.3574C22.2835 20.5811 22.4829 20.7642 22.4996 20.7644C22.5162 20.7645 22.3446 20.5816 22.1182 20.3579C21.8918 20.1342 21.6924 19.9511 21.6749 19.9509C21.6576 19.9508 21.8292 20.1337 22.0564 20.3574ZM18.3877 20.0832C18.3876 20.0978 18.4297 20.1512 18.4813 20.202C18.533 20.2529 18.5753 20.2802 18.5755 20.2626C18.5757 20.245 18.5335 20.1916 18.4819 20.1438C18.4303 20.0959 18.3879 20.0687 18.3877 20.0832ZM18.613 20.3068C18.6126 20.3454 18.7257 20.4508 18.7464 20.4312C18.7561 20.422 18.7301 20.3843 18.6886 20.3473C18.6471 20.3104 18.6131 20.2921 18.613 20.3068ZM18.8382 20.5289C18.8379 20.5665 19.0989 20.8228 19.1186 20.8041C19.1269 20.7961 19.0673 20.7245 18.9861 20.645C18.9049 20.5655 18.8384 20.5133 18.8382 20.5289ZM10.974 21.5005C10.8119 21.6554 10.6664 21.7985 10.6508 21.8185C10.6351 21.8385 10.7724 21.7163 10.9558 21.547C11.1391 21.3776 11.2893 21.2346 11.2893 21.2291C11.2896 21.203 11.2485 21.2383 10.974 21.5005ZM23.2629 21.5146C23.2628 21.528 23.3557 21.6349 23.4693 21.7524C23.5829 21.8697 23.7016 22.0195 23.7331 22.0853C23.7939 22.2123 23.8378 22.2489 23.7996 22.1409C23.7513 22.0041 23.2637 21.4352 23.2629 21.5146ZM20.002 21.6768C20.0016 21.7144 20.2634 21.9683 20.2832 21.9495C20.2921 21.941 20.2325 21.8702 20.1509 21.7921C20.0691 21.7141 20.0021 21.6622 20.002 21.6768ZM20.3774 22.0447C20.377 22.0832 20.4902 22.1887 20.5108 22.1691C20.5205 22.1599 20.4945 22.1222 20.453 22.0852C20.4116 22.0483 20.3776 22.03 20.3774 22.0447ZM20.6307 22.3221C20.6869 22.3816 20.7403 22.4233 20.7494 22.4147C20.7705 22.3945 20.5999 22.2145 20.5593 22.2142C20.5424 22.214 20.5746 22.2626 20.6307 22.3221ZM23.8305 22.2786C23.8315 22.3738 23.8896 22.5308 23.8918 22.4441C23.8928 22.4038 23.8793 22.3377 23.8618 22.2972C23.8422 22.2521 23.8301 22.2449 23.8305 22.2786ZM10.4293 22.2592C10.4148 22.3127 10.4102 22.3638 10.4191 22.3724C10.428 22.3811 10.447 22.3445 10.4614 22.2908C10.476 22.2372 10.4806 22.1862 10.4717 22.1775C10.4628 22.1688 10.4438 22.2055 10.4293 22.2592ZM13.2906 22.5779C13.2621 22.6085 13.2463 22.6408 13.2554 22.6497C13.2645 22.6587 13.3032 22.6332 13.3415 22.593C13.3797 22.5529 13.3955 22.5206 13.3767 22.5212C13.3578 22.5218 13.3191 22.5473 13.2906 22.5779ZM10.4085 22.7145C10.4082 22.7448 10.4224 22.8026 10.4399 22.8431C10.46 22.8895 10.472 22.8964 10.4723 22.8617C10.4726 22.8315 10.4585 22.7736 10.441 22.7332C10.4208 22.6868 10.4089 22.6799 10.4085 22.7145ZM12.8066 23.0505C12.4906 23.3691 12.2094 23.5718 11.9749 23.6499C11.826 23.6994 11.8099 23.7107 11.9097 23.6953C12.1562 23.6576 13.1427 22.9157 13.0539 22.835C13.0442 22.8262 12.9329 22.9231 12.8066 23.0505ZM21.5412 23.1892C21.5411 23.2037 21.5832 23.2572 21.6348 23.308C21.6864 23.3588 21.7288 23.3861 21.729 23.3686C21.7291 23.351 21.687 23.2975 21.6354 23.2497C21.5837 23.2019 21.5414 23.1747 21.5412 23.1892ZM10.7381 23.3588C10.8081 23.43 10.8739 23.4883 10.8844 23.4884C10.8948 23.4885 10.846 23.4303 10.776 23.3592C10.706 23.288 10.6401 23.2297 10.6297 23.2296C10.6193 23.2295 10.6681 23.2877 10.7381 23.3588ZM23.5071 23.4764L23.3753 23.6127L23.5186 23.4877C23.652 23.3711 23.6796 23.3404 23.6506 23.3401C23.6443 23.3401 23.5798 23.4014 23.5071 23.4764ZM21.7675 23.4181C21.7686 23.4609 22.0616 23.6808 22.1625 23.7143C22.2035 23.728 22.1777 23.7023 22.1052 23.6571C22.0327 23.612 21.9268 23.532 21.87 23.4794C21.8132 23.4268 21.7671 23.3992 21.7675 23.4181ZM22.3125 23.7687C22.3541 23.7863 22.4136 23.8011 22.4449 23.8013C22.4807 23.8016 22.4738 23.7899 22.4262 23.7696C22.3847 23.752 22.3252 23.7373 22.2939 23.737C22.2581 23.7367 22.265 23.7484 22.3125 23.7687Z" fill="#FC5F5F"/>
<path id="path3" fill-rule="evenodd" clip-rule="evenodd" d="M23.935 11.9782C23.9343 12.0488 23.9418 12.0777 23.9517 12.0425C23.9616 12.0073 23.9621 11.9496 23.953 11.9142C23.9438 11.8789 23.9357 11.9077 23.935 11.9782ZM22.026 14.2806L21.8747 14.4352L22.0372 14.2916C22.1883 14.1581 22.2173 14.1265 22.1886 14.1262C22.1824 14.1262 22.1092 14.1957 22.026 14.2806ZM20.4197 15.8066L20.2298 15.9975L20.4305 15.8173C20.617 15.6499 20.6488 15.6161 20.6206 15.6159C20.6146 15.6158 20.5242 15.7017 20.4197 15.8066ZM15.6381 20.3483L15.4481 20.5392L15.6489 20.359C15.7593 20.2598 15.8496 20.174 15.8497 20.1682C15.85 20.1409 15.8145 20.171 15.6381 20.3483ZM14.0311 21.8743L13.8798 22.0288L14.0422 21.8853C14.1933 21.7518 14.2223 21.7202 14.1936 21.7199C14.1875 21.7199 14.1143 21.7893 14.0311 21.8743ZM10.4173 22.531C10.4164 22.6217 10.4234 22.6589 10.4329 22.6136C10.4424 22.5683 10.4431 22.4941 10.4345 22.4487C10.4259 22.4032 10.4182 22.4403 10.4173 22.531ZM23.871 22.6452C23.8701 22.7359 23.8772 22.7731 23.8866 22.7278C23.8961 22.6825 23.8969 22.6083 23.8882 22.5628C23.8796 22.5174 23.8719 22.5545 23.871 22.6452ZM10.7592 23.3404C10.8398 23.4217 10.9143 23.4883 10.9247 23.4884C10.9351 23.4885 10.8777 23.422 10.7971 23.3407C10.7165 23.2594 10.642 23.1927 10.6315 23.1927C10.6211 23.1926 10.6786 23.259 10.7592 23.3404ZM11.5426 23.7033C11.6002 23.7122 11.6855 23.7127 11.7321 23.7044C11.7788 23.6961 11.7317 23.6887 11.6275 23.6881C11.5233 23.6875 11.485 23.6943 11.5426 23.7033ZM22.5708 23.7969C22.6284 23.8058 22.7137 23.8063 22.7603 23.798C22.807 23.7897 22.76 23.7823 22.6558 23.7817C22.5516 23.7811 22.5133 23.7879 22.5708 23.7969Z" fill="#FC8484"/>
<path id="path4" fill-rule="evenodd" clip-rule="evenodd" d="M11.2543 10.8488C10.8325 11.0422 10.5916 11.4103 10.5872 11.8681C10.5822 12.3778 10.4882 12.2668 13.1433 14.8841C15.3249 17.0346 15.5091 17.2258 15.4588 17.2865C15.4088 17.3469 15.4098 17.3483 15.4709 17.3028C15.5077 17.2755 15.5378 17.2419 15.538 17.2283C15.5381 17.2147 14.4817 16.1644 13.1904 14.8943C10.5484 12.2957 10.6201 12.38 10.625 11.8734C10.6312 11.2341 11.1147 10.7729 11.7726 10.7785C12.2997 10.7829 12.1864 10.6898 14.8459 13.307C17.1534 15.5778 17.2219 15.6415 17.2875 15.5736C17.3521 15.5066 17.3521 15.5057 17.2857 15.5533C17.2225 15.5987 17.0105 15.4002 14.8443 13.2685C12.1789 10.6454 12.3009 10.7454 11.7624 10.7426C11.5371 10.7415 11.4472 10.7603 11.2543 10.8488ZM22.238 10.9449C22.1056 11.0056 22.0032 11.061 22.0103 11.0682C22.0175 11.0752 22.1257 11.0337 22.2509 10.976C22.7134 10.7626 23.2719 10.8689 23.6272 11.238C23.7458 11.3613 23.77 11.3771 23.7104 11.2921C23.4089 10.8626 22.7543 10.7082 22.238 10.9449ZM21.1417 11.8923C20.7 12.3162 20.3885 12.6229 20.4494 12.5737C20.6295 12.4283 21.9975 11.1218 21.97 11.1216C21.9561 11.1215 21.5833 11.4683 21.1417 11.8923ZM23.8788 11.7427C23.9057 11.9241 23.9273 11.9551 23.9279 11.8134C23.9282 11.7545 23.9123 11.6815 23.8926 11.6511C23.8683 11.6134 23.8639 11.6426 23.8788 11.7427ZM23.8931 12.1338C23.8895 12.1876 23.8764 12.2617 23.8641 12.2985C23.8428 12.3619 23.844 12.362 23.8854 12.3008C23.9095 12.2652 23.9226 12.1911 23.9145 12.1361L23.8998 12.0361L23.8931 12.1338ZM21.3217 14.9065L18.8928 17.2356L21.2569 15.0012C23.2326 13.1338 23.8551 12.5304 23.7626 12.572C23.7559 12.575 22.6575 13.6255 21.3217 14.9065ZM19.5732 13.382C19.2579 13.6861 19.0501 13.8947 19.1116 13.8454C19.3317 13.669 20.2004 12.8295 20.1632 12.8292C20.1541 12.8291 19.8886 13.0778 19.5732 13.382ZM18.8632 14.0553L18.7703 14.1553L18.8849 14.0647C18.9479 14.0148 19.0066 13.9699 19.0154 13.965C19.0241 13.96 19.0143 13.9558 18.9936 13.9556C18.9729 13.9554 18.9142 14.0003 18.8632 14.0553ZM18.6367 14.264C18.5874 14.314 18.5541 14.361 18.5628 14.3686C18.5715 14.3761 18.6188 14.3353 18.6677 14.2779C18.7776 14.1494 18.7585 14.1409 18.6367 14.264ZM17.9284 14.9443C17.6131 15.2484 17.4052 15.457 17.4667 15.4077C17.6868 15.2313 18.5556 14.3918 18.5184 14.3915C18.5093 14.3914 18.2437 14.6401 17.9284 14.9443ZM21.2379 19.6015C22.5282 20.8726 23.5925 21.9126 23.6029 21.9127C23.6134 21.9128 22.5661 20.8729 21.2757 19.6018C19.9854 18.3308 18.9211 17.2908 18.9107 17.2907C18.9002 17.2906 19.9475 18.3305 21.2379 19.6015ZM14.7917 17.9235C14.4764 18.2277 14.2685 18.4362 14.33 18.387C14.5502 18.2105 15.4189 17.371 15.3817 17.3707C15.3726 17.3706 15.107 17.6194 14.7917 17.9235ZM14.0817 18.5969L13.9888 18.6969L14.1034 18.6062C14.1664 18.5563 14.2251 18.5115 14.2339 18.5065C14.2425 18.5015 14.2328 18.4973 14.2121 18.4972C14.1914 18.497 14.1327 18.5419 14.0817 18.5969ZM13.8552 18.8055C13.8059 18.8555 13.7726 18.9025 13.7813 18.9101C13.7899 18.9177 13.8372 18.8769 13.8862 18.8195C13.996 18.691 13.977 18.6825 13.8552 18.8055ZM14.7024 21.1958C13.3657 22.4646 12.2813 23.5028 12.2924 23.5029C12.3036 23.503 13.4056 22.4649 14.7415 21.196C16.0774 19.927 17.1618 18.8889 17.1515 18.8889C17.141 18.8889 16.039 19.927 14.7024 21.1958ZM19.5547 21.1914C20.8451 22.4673 21.908 23.5112 21.9167 23.5113C21.9407 23.5115 18.01 19.628 17.4826 19.1302C17.3319 18.988 18.2643 19.9155 19.5547 21.1914ZM13.1469 19.4858C12.8315 19.79 12.6237 19.9985 12.6852 19.9493C12.9053 19.7728 13.7741 18.9333 13.7368 18.933C13.7277 18.9329 13.4622 19.1817 13.1469 19.4858ZM12.2868 20.2952C12.2375 20.3452 12.2042 20.3922 12.213 20.3997C12.2216 20.4073 12.2689 20.3665 12.3179 20.3091C12.4277 20.1806 12.4086 20.1721 12.2868 20.2952ZM11.5785 20.9755C11.2632 21.2796 11.0554 21.4882 11.1169 21.4389C11.337 21.2625 12.2057 20.423 12.1685 20.4226C12.1594 20.4226 11.8939 20.6713 11.5785 20.9755ZM10.8089 21.711C10.5542 21.9947 10.4819 22.1513 10.4641 22.4588L10.448 22.7358L10.483 22.4656C10.5235 22.1526 10.621 21.9535 10.8491 21.7175C10.9386 21.6249 10.999 21.5491 10.9832 21.549C10.9675 21.5488 10.8891 21.6217 10.8089 21.711ZM23.8355 22.6478C23.8343 22.7788 23.8407 22.8325 23.8496 22.767C23.8587 22.7016 23.8597 22.5944 23.8519 22.5288C23.8442 22.4632 23.8368 22.5167 23.8355 22.6478ZM10.4835 22.8006C10.4779 22.9231 10.6313 23.1824 10.8062 23.346L10.9816 23.5101L10.7938 23.3021C10.6839 23.1805 10.5812 23.02 10.5462 22.9151C10.5133 22.8167 10.4851 22.7651 10.4835 22.8006ZM23.7871 22.9284C23.7846 22.952 23.7711 23.0013 23.7572 23.0382C23.7376 23.0901 23.7427 23.0958 23.7795 23.0635C23.8056 23.0408 23.819 22.9914 23.8095 22.9538C23.7999 22.9164 23.7898 22.9049 23.7871 22.9284ZM23.473 23.4402C23.3792 23.5341 23.336 23.5874 23.3771 23.5585C23.4636 23.4976 23.5479 23.4198 23.6224 23.3317C23.7245 23.2112 23.6416 23.2714 23.473 23.4402ZM12.0465 23.5761C11.9627 23.6136 11.9164 23.6449 11.9435 23.6456C11.9986 23.6471 12.2173 23.5466 12.2176 23.5197C12.2178 23.4982 12.229 23.4945 12.0465 23.5761ZM22.0707 23.606C22.0705 23.6329 22.3015 23.7391 22.3357 23.7278C22.3542 23.7217 22.3022 23.6885 22.2201 23.6541C22.1381 23.6195 22.0708 23.5979 22.0707 23.606ZM22.9983 23.7037C22.925 23.7334 22.9252 23.7347 23.0052 23.7379C23.0508 23.7396 23.0989 23.7247 23.112 23.7047C23.1401 23.6616 23.1031 23.6613 22.9983 23.7037ZM11.4857 23.6692C11.5529 23.6778 11.6723 23.679 11.751 23.6717C11.8297 23.6644 11.7747 23.6573 11.6288 23.6559C11.4829 23.6545 11.4185 23.6604 11.4857 23.6692ZM22.5524 23.7631C22.6201 23.7718 22.7309 23.7728 22.7988 23.7652C22.8666 23.7577 22.8112 23.7505 22.6757 23.7494C22.5402 23.7482 22.4848 23.7545 22.5524 23.7631Z" fill="#FC9C9C"/>
</g>
</svg>
