<svg id="svg" version="1.1" xmlns="http://www.w3.org/2000/svg" xmlns:xlink="http://www.w3.org/1999/xlink" width="400" height="400" viewBox="0, 0, 400,400"><g id="svgg"><path id="path0" d="M136.964 130.972 C 132.580 132.966,130.000 137.072,130.000 142.054 C 130.000 147.583,129.235 146.669,157.385 174.780 C 171.143 188.520,182.400 199.882,182.400 200.031 C 182.400 200.180,171.015 211.709,157.100 225.652 C 129.907 252.899,130.098 252.679,129.715 257.244 C 129.091 264.693,134.391 270.407,141.915 270.396 C 147.120 270.389,146.157 271.200,174.204 243.180 C 188.067 229.331,199.684 218.000,200.021 218.000 C 200.358 218.000,211.877 229.254,225.617 243.008 C 253.557 270.977,252.874 270.400,258.049 270.400 C 265.610 270.400,270.800 264.918,270.313 257.448 C 269.995 252.592,270.510 253.192,243.161 225.796 C 229.322 211.933,218.000 200.328,218.000 200.006 C 218.000 199.684,229.408 187.986,243.351 174.010 C 267.478 149.827,268.737 148.494,269.421 146.400 C 272.175 137.970,266.651 130.000,258.054 130.000 C 252.545 130.000,253.566 129.156,227.213 155.492 C 214.275 168.421,202.857 179.805,201.839 180.789 L 199.987 182.579 174.694 157.306 C 146.257 128.893,147.561 129.978,141.889 130.023 C 139.759 130.040,138.465 130.289,136.964 130.972 " stroke="none" fill="#fcfbfb" fill-rule="evenodd"></path><path id="path1" d="M190.400 20.377 C 190.400 20.585,188.195 20.849,185.500 20.965 C 177.571 21.305,174.000 21.636,174.000 22.030 C 174.000 22.234,172.920 22.400,171.600 22.400 C 170.267 22.400,169.200 22.578,169.200 22.800 C 169.200 23.020,168.221 23.200,167.024 23.200 C 165.827 23.200,164.736 23.380,164.600 23.600 C 164.464 23.820,163.658 24.000,162.810 24.000 C 161.961 24.000,161.207 24.171,161.133 24.380 C 161.060 24.589,160.235 24.804,159.300 24.858 C 158.365 24.912,157.600 25.084,157.600 25.241 C 157.600 25.397,157.242 25.432,156.805 25.317 C 156.368 25.203,155.308 25.390,154.450 25.733 C 153.592 26.076,152.785 26.251,152.655 26.122 C 152.525 25.992,152.185 26.080,151.900 26.317 C 151.614 26.554,150.896 26.813,150.305 26.892 C 149.714 26.972,149.103 27.163,148.948 27.318 C 148.793 27.473,148.167 27.600,147.557 27.600 C 146.947 27.600,146.336 27.780,146.200 28.000 C 146.064 28.220,145.524 28.400,145.000 28.400 C 144.476 28.400,143.936 28.580,143.800 28.800 C 143.664 29.020,143.203 29.200,142.776 29.200 C 142.349 29.200,142.000 29.380,142.000 29.600 C 142.000 29.820,141.460 30.000,140.800 30.000 C 140.140 30.000,139.600 30.180,139.600 30.400 C 139.600 30.620,139.060 30.800,138.400 30.800 C 137.740 30.800,137.200 30.980,137.200 31.200 C 137.200 31.420,136.660 31.600,136.000 31.600 C 135.340 31.600,134.800 31.780,134.800 32.000 C 134.800 32.220,134.440 32.400,134.000 32.400 C 133.560 32.400,133.200 32.580,133.200 32.800 C 133.200 33.020,132.660 33.200,132.000 33.200 C 131.340 33.200,130.800 33.380,130.800 33.600 C 130.800 33.820,130.440 34.000,130.000 34.000 C 129.560 34.000,129.200 34.180,129.200 34.400 C 129.200 34.620,128.851 34.800,128.424 34.800 C 127.997 34.800,127.536 34.980,127.400 35.200 C 127.264 35.420,126.803 35.600,126.376 35.600 C 125.949 35.600,125.600 35.780,125.600 36.000 C 125.600 36.220,125.240 36.400,124.800 36.400 C 124.360 36.400,124.000 36.580,124.000 36.800 C 124.000 37.020,123.640 37.200,123.200 37.200 C 122.760 37.200,122.400 37.380,122.400 37.600 C 122.400 37.820,122.040 38.000,121.600 38.000 C 121.160 38.000,120.800 38.180,120.800 38.400 C 120.800 38.620,120.440 38.800,120.000 38.800 C 119.560 38.800,119.200 38.980,119.200 39.200 C 119.200 39.420,118.840 39.600,118.400 39.600 C 117.960 39.600,117.600 39.780,117.600 40.000 C 117.600 40.220,117.240 40.400,116.800 40.400 C 116.360 40.400,116.000 40.580,116.000 40.800 C 116.000 41.020,115.640 41.200,115.200 41.200 C 114.760 41.200,114.400 41.380,114.400 41.600 C 114.400 41.820,114.126 42.000,113.792 42.000 C 113.458 42.000,112.471 42.450,111.600 43.000 C 110.729 43.550,109.832 44.000,109.608 44.000 C 109.384 44.000,109.200 44.180,109.200 44.400 C 109.200 44.620,108.855 44.800,108.433 44.800 C 108.012 44.800,107.607 44.935,107.533 45.100 C 107.371 45.465,105.400 46.807,103.900 47.573 C 103.295 47.882,102.800 48.285,102.800 48.468 C 102.800 48.650,102.480 48.800,102.088 48.800 C 101.697 48.800,101.117 49.160,100.800 49.600 C 100.483 50.040,99.943 50.400,99.600 50.400 C 99.257 50.400,98.717 50.760,98.400 51.200 C 98.083 51.640,97.627 52.000,97.387 52.000 C 97.147 52.000,96.602 52.320,96.175 52.711 C 95.749 53.102,94.770 53.860,94.000 54.396 C 93.230 54.932,92.381 55.647,92.113 55.985 C 91.845 56.323,91.620 56.450,91.613 56.267 C 91.606 56.084,90.887 56.676,90.016 57.583 C 89.145 58.490,88.335 59.224,88.216 59.216 C 88.097 59.207,87.852 59.200,87.672 59.200 C 87.491 59.200,86.515 59.994,85.502 60.964 C 84.490 61.934,83.582 62.649,83.486 62.553 C 83.389 62.456,81.724 63.957,79.785 65.889 C 77.846 67.820,76.111 69.355,75.930 69.300 C 75.748 69.245,75.600 69.481,75.600 69.824 C 75.600 70.167,75.465 70.377,75.300 70.291 C 75.135 70.204,73.878 71.274,72.507 72.667 C 71.136 74.060,70.112 75.200,70.232 75.200 C 70.352 75.200,68.903 76.730,67.011 78.600 C 65.120 80.470,63.655 82.000,63.756 82.000 C 63.950 82.000,63.164 82.956,60.700 85.718 C 59.875 86.643,59.200 87.535,59.200 87.700 C 59.200 87.865,59.207 88.097,59.216 88.216 C 59.224 88.335,58.490 89.145,57.583 90.016 C 56.676 90.887,56.084 91.606,56.267 91.613 C 56.450 91.620,56.323 91.845,55.985 92.113 C 55.647 92.381,54.932 93.230,54.396 94.000 C 53.860 94.770,53.102 95.749,52.711 96.175 C 52.320 96.602,52.000 97.147,52.000 97.387 C 52.000 97.627,51.640 98.083,51.200 98.400 C 50.760 98.717,50.400 99.257,50.400 99.600 C 50.400 99.943,50.040 100.483,49.600 100.800 C 49.160 101.117,48.800 101.697,48.800 102.088 C 48.800 102.480,48.650 102.800,48.468 102.800 C 48.285 102.800,47.882 103.295,47.573 103.900 C 46.807 105.400,45.465 107.371,45.100 107.533 C 44.935 107.607,44.800 108.012,44.800 108.433 C 44.800 108.855,44.620 109.200,44.400 109.200 C 44.180 109.200,44.000 109.384,44.000 109.608 C 44.000 109.832,43.550 110.729,43.000 111.600 C 42.450 112.471,42.000 113.458,42.000 113.792 C 42.000 114.126,41.820 114.400,41.600 114.400 C 41.380 114.400,41.200 114.760,41.200 115.200 C 41.200 115.640,41.020 116.000,40.800 116.000 C 40.580 116.000,40.400 116.360,40.400 116.800 C 40.400 117.240,40.220 117.600,40.000 117.600 C 39.780 117.600,39.600 117.960,39.600 118.400 C 39.600 118.840,39.420 119.200,39.200 119.200 C 38.980 119.200,38.800 119.560,38.800 120.000 C 38.800 120.440,38.620 120.800,38.400 120.800 C 38.180 120.800,38.000 121.160,38.000 121.600 C 38.000 122.040,37.820 122.400,37.600 122.400 C 37.380 122.400,37.200 122.760,37.200 123.200 C 37.200 123.640,37.020 124.000,36.800 124.000 C 36.580 124.000,36.400 124.360,36.400 124.800 C 36.400 125.240,36.220 125.600,36.000 125.600 C 35.780 125.600,35.600 126.050,35.600 126.600 C 35.600 127.150,35.420 127.600,35.200 127.600 C 34.980 127.600,34.800 127.960,34.800 128.400 C 34.800 128.840,34.620 129.200,34.400 129.200 C 34.180 129.200,34.000 129.560,34.000 130.000 C 34.000 130.440,33.820 130.800,33.600 130.800 C 33.380 130.800,33.200 131.340,33.200 132.000 C 33.200 132.660,33.020 133.200,32.800 133.200 C 32.580 133.200,32.400 133.560,32.400 134.000 C 32.400 134.440,32.220 134.800,32.000 134.800 C 31.780 134.800,31.600 135.340,31.600 136.000 C 31.600 136.660,31.420 137.200,31.200 137.200 C 30.980 137.200,30.800 137.639,30.800 138.176 C 30.800 138.713,30.656 139.242,30.479 139.351 C 30.303 139.460,29.907 140.472,29.600 141.600 C 29.293 142.728,28.897 143.740,28.721 143.849 C 28.544 143.958,28.400 144.476,28.400 145.000 C 28.400 145.524,28.220 146.064,28.000 146.200 C 27.780 146.336,27.600 146.947,27.600 147.557 C 27.600 148.167,27.473 148.793,27.318 148.948 C 27.163 149.103,26.972 149.714,26.892 150.305 C 26.813 150.896,26.554 151.614,26.317 151.900 C 26.080 152.185,25.992 152.525,26.122 152.655 C 26.251 152.785,26.076 153.592,25.733 154.450 C 25.390 155.308,25.203 156.367,25.317 156.804 C 25.431 157.242,25.362 157.700,25.162 157.823 C 24.963 157.946,24.800 158.656,24.800 159.400 C 24.800 160.144,24.620 160.864,24.400 161.000 C 24.180 161.136,24.000 161.946,24.000 162.800 C 24.000 163.654,23.820 164.464,23.600 164.600 C 23.380 164.736,23.200 165.816,23.200 167.000 C 23.200 168.184,23.020 169.264,22.800 169.400 C 22.580 169.536,22.400 170.627,22.400 171.824 C 22.400 173.021,22.234 174.000,22.030 174.000 C 21.827 174.000,21.556 175.485,21.427 177.300 C 21.299 179.115,21.005 182.850,20.775 185.600 C 20.148 193.098,19.887 209.247,20.386 209.746 C 20.624 209.984,20.800 212.150,20.800 214.856 C 20.800 217.556,20.970 219.658,21.200 219.800 C 21.420 219.936,21.600 221.387,21.600 223.024 C 21.600 224.741,21.769 226.000,22.000 226.000 C 22.222 226.000,22.400 227.067,22.400 228.400 C 22.400 229.733,22.578 230.800,22.800 230.800 C 23.020 230.800,23.200 231.779,23.200 232.976 C 23.200 234.173,23.380 235.264,23.600 235.400 C 23.820 235.536,24.000 236.346,24.000 237.200 C 24.000 238.054,24.180 238.864,24.400 239.000 C 24.620 239.136,24.800 239.867,24.800 240.624 C 24.800 241.381,24.983 242.000,25.208 242.000 C 25.443 242.000,25.509 242.423,25.364 243.000 C 25.223 243.563,25.385 244.680,25.735 245.555 C 26.077 246.410,26.251 247.215,26.122 247.345 C 25.992 247.475,26.080 247.815,26.317 248.100 C 26.554 248.386,26.813 249.104,26.892 249.695 C 26.972 250.286,27.163 250.897,27.318 251.052 C 27.473 251.207,27.600 251.833,27.600 252.443 C 27.600 253.053,27.780 253.664,28.000 253.800 C 28.220 253.936,28.400 254.399,28.400 254.829 C 28.400 255.259,28.580 255.968,28.800 256.405 C 29.020 256.842,29.380 257.558,29.600 257.995 C 29.820 258.432,30.000 259.152,30.000 259.595 C 30.000 260.038,30.180 260.400,30.400 260.400 C 30.620 260.400,30.800 260.940,30.800 261.600 C 30.800 262.260,30.980 262.800,31.200 262.800 C 31.420 262.800,31.600 263.340,31.600 264.000 C 31.600 264.660,31.780 265.200,32.000 265.200 C 32.220 265.200,32.400 265.560,32.400 266.000 C 32.400 266.440,32.580 266.800,32.800 266.800 C 33.020 266.800,33.200 267.340,33.200 268.000 C 33.200 268.660,33.380 269.200,33.600 269.200 C 33.820 269.200,34.000 269.560,34.000 270.000 C 34.000 270.440,34.180 270.800,34.400 270.800 C 34.620 270.800,34.800 271.160,34.800 271.600 C 34.800 272.040,34.980 272.400,35.200 272.400 C 35.420 272.400,35.600 272.850,35.600 273.400 C 35.600 273.950,35.780 274.400,36.000 274.400 C 36.220 274.400,36.400 274.760,36.400 275.200 C 36.400 275.640,36.580 276.000,36.800 276.000 C 37.020 276.000,37.200 276.360,37.200 276.800 C 37.200 277.240,37.380 277.600,37.600 277.600 C 37.820 277.600,38.000 277.960,38.000 278.400 C 38.000 278.840,38.180 279.200,38.400 279.200 C 38.620 279.200,38.800 279.560,38.800 280.000 C 38.800 280.440,38.980 280.800,39.200 280.800 C 39.420 280.800,39.600 281.160,39.600 281.600 C 39.600 282.040,39.780 282.400,40.000 282.400 C 40.220 282.400,40.400 282.760,40.400 283.200 C 40.400 283.640,40.580 284.000,40.800 284.000 C 41.020 284.000,41.200 284.360,41.200 284.800 C 41.200 285.240,41.380 285.600,41.600 285.600 C 41.820 285.600,42.000 285.874,42.000 286.208 C 42.000 286.542,42.409 287.487,42.909 288.308 C 43.409 289.129,44.084 290.340,44.409 291.000 C 44.734 291.660,45.315 292.549,45.700 292.975 C 46.085 293.402,46.400 293.987,46.400 294.275 C 46.400 294.564,46.580 294.800,46.800 294.800 C 47.020 294.800,47.200 295.036,47.200 295.325 C 47.200 295.613,47.560 296.236,48.000 296.708 C 48.440 297.180,48.800 297.804,48.800 298.095 C 48.800 298.386,49.160 298.883,49.600 299.200 C 50.040 299.517,50.400 300.057,50.400 300.400 C 50.400 300.743,50.760 301.283,51.200 301.600 C 51.640 301.917,52.000 302.373,52.000 302.613 C 52.000 302.853,52.320 303.398,52.711 303.825 C 53.102 304.251,53.860 305.230,54.396 306.000 C 54.932 306.770,55.647 307.619,55.985 307.887 C 56.323 308.155,56.450 308.380,56.267 308.387 C 56.084 308.394,56.676 309.113,57.583 309.984 C 58.490 310.855,59.224 311.665,59.216 311.784 C 59.207 311.903,59.200 312.135,59.200 312.300 C 59.200 312.465,59.875 313.357,60.700 314.282 C 63.153 317.032,63.950 318.000,63.760 318.000 C 63.662 318.000,65.114 319.530,66.989 321.400 C 68.863 323.270,70.304 324.800,70.191 324.800 C 70.079 324.800,71.114 325.946,72.493 327.346 C 73.872 328.746,75.109 329.871,75.242 329.846 C 75.375 329.821,76.905 331.245,78.642 333.010 C 80.379 334.776,82.430 336.664,83.200 337.206 C 83.970 337.748,85.140 338.706,85.800 339.336 C 86.460 339.966,87.538 340.759,88.195 341.100 C 88.852 341.440,89.887 342.251,90.495 342.902 C 91.103 343.552,91.600 343.951,91.600 343.788 C 91.600 343.624,92.075 343.965,92.655 344.545 C 93.235 345.125,93.866 345.600,94.058 345.600 C 94.250 345.600,94.972 346.140,95.663 346.800 C 96.354 347.460,97.122 348.000,97.371 348.000 C 97.620 348.000,98.083 348.360,98.400 348.800 C 98.717 349.240,99.257 349.600,99.600 349.600 C 99.943 349.600,100.483 349.960,100.800 350.400 C 101.117 350.840,101.614 351.200,101.905 351.200 C 102.196 351.200,102.820 351.560,103.292 352.000 C 103.764 352.440,104.387 352.800,104.675 352.800 C 104.964 352.800,105.200 352.980,105.200 353.200 C 105.200 353.420,105.436 353.600,105.725 353.600 C 106.013 353.600,106.636 353.960,107.108 354.400 C 107.580 354.840,108.244 355.200,108.583 355.200 C 108.922 355.200,109.200 355.380,109.200 355.600 C 109.200 355.820,109.371 356.000,109.580 356.000 C 109.789 356.000,111.004 356.630,112.280 357.399 C 113.556 358.168,114.915 358.798,115.300 358.799 C 115.685 358.800,116.000 358.980,116.000 359.200 C 116.000 359.420,116.360 359.600,116.800 359.600 C 117.240 359.600,117.600 359.780,117.600 360.000 C 117.600 360.220,117.960 360.400,118.400 360.400 C 118.840 360.400,119.200 360.580,119.200 360.800 C 119.200 361.020,119.560 361.200,120.000 361.200 C 120.440 361.200,120.800 361.380,120.800 361.600 C 120.800 361.820,121.160 362.000,121.600 362.000 C 122.040 362.000,122.400 362.180,122.400 362.400 C 122.400 362.620,122.760 362.800,123.200 362.800 C 123.640 362.800,124.000 362.980,124.000 363.200 C 124.000 363.420,124.360 363.600,124.800 363.600 C 125.240 363.600,125.600 363.780,125.600 364.000 C 125.600 364.220,126.050 364.400,126.600 364.400 C 127.150 364.400,127.600 364.580,127.600 364.800 C 127.600 365.020,127.960 365.200,128.400 365.200 C 128.840 365.200,129.200 365.380,129.200 365.600 C 129.200 365.820,129.560 366.000,130.000 366.000 C 130.440 366.000,130.800 366.180,130.800 366.400 C 130.800 366.620,131.340 366.800,132.000 366.800 C 132.660 366.800,133.200 366.980,133.200 367.200 C 133.200 367.420,133.549 367.600,133.976 367.600 C 134.403 367.600,134.864 367.780,135.000 368.000 C 135.136 368.220,135.687 368.400,136.224 368.400 C 136.761 368.400,137.200 368.580,137.200 368.800 C 137.200 369.020,137.740 369.200,138.400 369.200 C 139.060 369.200,139.600 369.380,139.600 369.600 C 139.600 369.820,140.140 370.000,140.800 370.000 C 141.460 370.000,142.000 370.180,142.000 370.400 C 142.000 370.620,142.349 370.800,142.776 370.800 C 143.203 370.800,143.664 370.980,143.800 371.200 C 143.936 371.420,144.476 371.600,145.000 371.600 C 145.524 371.600,146.064 371.780,146.200 372.000 C 146.336 372.220,146.966 372.400,147.600 372.400 C 148.234 372.400,148.864 372.580,149.000 372.800 C 149.136 373.020,149.867 373.200,150.624 373.200 C 151.381 373.200,152.000 373.380,152.000 373.600 C 152.000 373.820,152.462 374.000,153.026 374.000 C 153.591 374.000,154.360 374.165,154.736 374.366 C 155.112 374.567,156.675 374.858,158.210 375.012 C 159.744 375.166,161.060 375.451,161.133 375.646 C 161.207 375.841,162.152 376.000,163.233 376.000 C 164.315 376.000,165.200 376.180,165.200 376.400 C 165.200 376.620,166.100 376.800,167.200 376.800 C 168.300 376.800,169.200 376.980,169.200 377.200 C 169.200 377.429,170.400 377.600,172.000 377.600 C 173.600 377.600,174.800 377.771,174.800 378.000 C 174.800 378.225,175.925 378.400,177.376 378.400 C 178.793 378.400,180.064 378.580,180.200 378.800 C 180.343 379.032,182.537 379.200,185.424 379.200 C 188.475 379.200,190.400 379.355,190.400 379.600 C 190.400 379.856,193.867 380.000,200.000 380.000 C 206.133 380.000,209.600 379.856,209.600 379.600 C 209.600 379.355,211.525 379.200,214.576 379.200 C 217.463 379.200,219.657 379.032,219.800 378.800 C 219.936 378.580,221.387 378.400,223.024 378.400 C 224.741 378.400,226.000 378.231,226.000 378.000 C 226.000 377.778,227.067 377.600,228.400 377.600 C 229.733 377.600,230.800 377.422,230.800 377.200 C 230.800 376.980,231.779 376.800,232.976 376.800 C 234.173 376.800,235.264 376.620,235.400 376.400 C 235.536 376.180,236.357 376.000,237.224 376.000 C 238.091 376.000,238.800 375.852,238.800 375.672 C 238.800 375.491,240.285 375.129,242.100 374.866 C 247.011 374.156,247.985 373.948,248.227 373.556 C 248.348 373.360,248.966 373.200,249.600 373.200 C 250.234 373.200,250.864 373.020,251.000 372.800 C 251.136 372.580,251.766 372.400,252.400 372.400 C 253.034 372.400,253.664 372.220,253.800 372.000 C 253.936 371.780,254.399 371.600,254.829 371.600 C 255.259 371.600,255.968 371.420,256.405 371.200 C 256.842 370.980,257.558 370.620,257.995 370.400 C 258.432 370.180,259.141 370.000,259.571 370.000 C 260.001 370.000,260.464 369.820,260.600 369.600 C 260.736 369.380,261.287 369.200,261.824 369.200 C 262.361 369.200,262.800 369.020,262.800 368.800 C 262.800 368.580,263.340 368.400,264.000 368.400 C 264.660 368.400,265.200 368.220,265.200 368.000 C 265.200 367.780,265.560 367.600,266.000 367.600 C 266.440 367.600,266.800 367.420,266.800 367.200 C 266.800 366.980,267.340 366.800,268.000 366.800 C 268.660 366.800,269.200 366.620,269.200 366.400 C 269.200 366.180,269.560 366.000,270.000 366.000 C 270.440 366.000,270.800 365.820,270.800 365.600 C 270.800 365.380,271.250 365.200,271.800 365.200 C 272.350 365.200,272.800 365.020,272.800 364.800 C 272.800 364.580,273.160 364.400,273.600 364.400 C 274.040 364.400,274.400 364.220,274.400 364.000 C 274.400 363.780,274.760 363.600,275.200 363.600 C 275.640 363.600,276.000 363.420,276.000 363.200 C 276.000 362.980,276.360 362.800,276.800 362.800 C 277.240 362.800,277.600 362.620,277.600 362.400 C 277.600 362.180,277.960 362.000,278.400 362.000 C 278.840 362.000,279.200 361.820,279.200 361.600 C 279.200 361.380,279.560 361.200,280.000 361.200 C 280.440 361.200,280.800 361.020,280.800 360.800 C 280.800 360.580,281.160 360.400,281.600 360.400 C 282.040 360.400,282.400 360.220,282.400 360.000 C 282.400 359.780,282.760 359.600,283.200 359.600 C 283.640 359.600,284.000 359.420,284.000 359.200 C 284.000 358.980,284.291 358.800,284.646 358.800 C 285.470 358.800,289.200 356.782,289.200 356.336 C 289.200 356.151,289.472 356.000,289.805 356.000 C 290.514 356.000,291.830 355.289,292.955 354.300 C 293.393 353.915,293.987 353.600,294.275 353.600 C 294.564 353.600,294.800 353.420,294.800 353.200 C 294.800 352.980,295.036 352.800,295.325 352.800 C 295.613 352.800,296.236 352.440,296.708 352.000 C 297.180 351.560,297.804 351.200,298.095 351.200 C 298.386 351.200,298.883 350.840,299.200 350.400 C 299.517 349.960,300.057 349.600,300.400 349.600 C 300.743 349.600,301.283 349.240,301.600 348.800 C 301.917 348.360,302.380 348.000,302.629 348.000 C 302.878 348.000,303.646 347.460,304.337 346.800 C 305.028 346.140,305.750 345.600,305.942 345.600 C 306.134 345.600,306.765 345.125,307.345 344.545 C 307.925 343.965,308.400 343.624,308.400 343.788 C 308.400 343.951,308.897 343.552,309.505 342.902 C 310.113 342.251,311.235 341.395,312.000 341.000 C 312.765 340.605,313.842 339.806,314.395 339.225 C 314.948 338.644,316.022 337.733,316.782 337.199 C 319.661 335.178,335.184 319.660,337.188 316.800 C 337.728 316.030,338.662 314.931,339.265 314.357 C 339.868 313.784,340.415 313.071,340.481 312.773 C 340.631 312.091,341.066 311.507,342.713 309.778 C 343.436 309.020,343.906 308.400,343.759 308.400 C 343.611 308.400,343.965 307.925,344.545 307.345 C 345.125 306.765,345.600 306.134,345.600 305.942 C 345.600 305.750,346.140 305.028,346.800 304.337 C 347.460 303.646,348.000 302.878,348.000 302.629 C 348.000 302.380,348.360 301.917,348.800 301.600 C 349.240 301.283,349.600 300.743,349.600 300.400 C 349.600 300.057,349.960 299.517,350.400 299.200 C 350.840 298.883,351.200 298.386,351.200 298.095 C 351.200 297.804,351.560 297.180,352.000 296.708 C 352.440 296.236,352.800 295.613,352.800 295.325 C 352.800 295.036,352.980 294.800,353.200 294.800 C 353.420 294.800,353.600 294.564,353.600 294.275 C 353.600 293.987,353.915 293.393,354.300 292.955 C 355.289 291.830,356.000 290.514,356.000 289.805 C 356.000 289.472,356.135 289.200,356.300 289.200 C 356.724 289.199,358.800 285.414,358.800 284.641 C 358.800 284.288,358.980 284.000,359.200 284.000 C 359.420 284.000,359.600 283.640,359.600 283.200 C 359.600 282.760,359.780 282.400,360.000 282.400 C 360.220 282.400,360.400 282.040,360.400 281.600 C 360.400 281.160,360.580 280.800,360.800 280.800 C 361.020 280.800,361.200 280.440,361.200 280.000 C 361.200 279.560,361.380 279.200,361.600 279.200 C 361.820 279.200,362.000 278.840,362.000 278.400 C 362.000 277.960,362.180 277.600,362.400 277.600 C 362.620 277.600,362.800 277.240,362.800 276.800 C 362.800 276.360,362.980 276.000,363.200 276.000 C 363.420 276.000,363.600 275.640,363.600 275.200 C 363.600 274.760,363.780 274.400,364.000 274.400 C 364.220 274.400,364.400 274.051,364.400 273.624 C 364.400 273.197,364.580 272.736,364.800 272.600 C 365.020 272.464,365.200 272.003,365.200 271.576 C 365.200 271.149,365.380 270.800,365.600 270.800 C 365.820 270.800,366.000 270.440,366.000 270.000 C 366.000 269.560,366.180 269.200,366.400 269.200 C 366.620 269.200,366.800 268.660,366.800 268.000 C 366.800 267.340,366.980 266.800,367.200 266.800 C 367.420 266.800,367.600 266.440,367.600 266.000 C 367.600 265.560,367.780 265.200,368.000 265.200 C 368.220 265.200,368.400 264.660,368.400 264.000 C 368.400 263.340,368.580 262.800,368.800 262.800 C 369.020 262.800,369.200 262.361,369.200 261.824 C 369.200 261.287,369.380 260.736,369.600 260.600 C 369.820 260.464,370.000 260.001,370.000 259.571 C 370.000 259.141,370.180 258.432,370.400 257.995 C 370.620 257.558,370.980 256.842,371.200 256.405 C 371.420 255.968,371.600 255.259,371.600 254.829 C 371.600 254.399,371.780 253.936,372.000 253.800 C 372.220 253.664,372.400 253.034,372.400 252.400 C 372.400 251.766,372.580 251.136,372.800 251.000 C 373.020 250.864,373.200 250.234,373.200 249.600 C 373.200 248.966,373.380 248.336,373.600 248.200 C 373.820 248.064,374.000 247.502,374.000 246.950 C 374.000 246.399,374.177 245.616,374.394 245.212 C 374.610 244.807,374.906 243.199,375.051 241.638 C 375.196 240.077,375.469 238.800,375.657 238.800 C 375.846 238.800,376.000 238.091,376.000 237.224 C 376.000 236.357,376.180 235.536,376.400 235.400 C 376.620 235.264,376.800 234.173,376.800 232.976 C 376.800 231.779,376.980 230.800,377.200 230.800 C 377.422 230.800,377.600 229.733,377.600 228.400 C 377.600 227.067,377.778 226.000,378.000 226.000 C 378.231 226.000,378.400 224.741,378.400 223.024 C 378.400 221.387,378.580 219.936,378.800 219.800 C 379.032 219.657,379.200 217.463,379.200 214.576 C 379.200 211.525,379.355 209.600,379.600 209.600 C 379.856 209.600,380.000 206.141,380.000 200.024 C 380.000 194.071,379.849 190.354,379.600 190.200 C 379.370 190.058,379.200 187.937,379.200 185.200 C 379.200 182.463,379.030 180.342,378.800 180.200 C 378.580 180.064,378.400 178.613,378.400 176.976 C 378.400 175.259,378.231 174.000,378.000 174.000 C 377.778 174.000,377.600 172.933,377.600 171.600 C 377.600 170.267,377.422 169.200,377.200 169.200 C 376.980 169.200,376.800 168.221,376.800 167.024 C 376.800 165.827,376.620 164.736,376.400 164.600 C 376.180 164.464,376.000 163.643,376.000 162.776 C 376.000 161.909,375.846 161.200,375.657 161.200 C 375.469 161.200,375.196 159.923,375.051 158.362 C 374.906 156.801,374.610 155.193,374.394 154.788 C 374.177 154.384,374.000 153.601,374.000 153.050 C 374.000 152.498,373.820 151.936,373.600 151.800 C 373.380 151.664,373.200 151.034,373.200 150.400 C 373.200 149.766,373.020 149.136,372.800 149.000 C 372.580 148.864,372.400 148.234,372.400 147.600 C 372.400 146.966,372.220 146.336,372.000 146.200 C 371.780 146.064,371.600 145.601,371.600 145.171 C 371.600 144.741,371.392 143.987,371.138 143.495 C 370.144 141.574,370.000 141.184,370.000 140.429 C 370.000 139.999,369.820 139.536,369.600 139.400 C 369.380 139.264,369.200 138.713,369.200 138.176 C 369.200 137.639,369.020 137.200,368.800 137.200 C 368.580 137.200,368.400 136.660,368.400 136.000 C 368.400 135.340,368.220 134.800,368.000 134.800 C 367.780 134.800,367.600 134.440,367.600 134.000 C 367.600 133.560,367.420 133.200,367.200 133.200 C 366.980 133.200,366.800 132.660,366.800 132.000 C 366.800 131.340,366.620 130.800,366.400 130.800 C 366.180 130.800,366.000 130.440,366.000 130.000 C 366.000 129.560,365.820 129.200,365.600 129.200 C 365.380 129.200,365.200 128.851,365.200 128.424 C 365.200 127.997,365.020 127.536,364.800 127.400 C 364.580 127.264,364.400 126.803,364.400 126.376 C 364.400 125.949,364.220 125.600,364.000 125.600 C 363.780 125.600,363.600 125.240,363.600 124.800 C 363.600 124.360,363.420 124.000,363.200 124.000 C 362.980 124.000,362.800 123.640,362.800 123.200 C 362.800 122.760,362.620 122.400,362.400 122.400 C 362.180 122.400,362.000 122.040,362.000 121.600 C 362.000 121.160,361.820 120.800,361.600 120.800 C 361.380 120.800,361.200 120.440,361.200 120.000 C 361.200 119.560,361.020 119.200,360.800 119.200 C 360.580 119.200,360.400 118.840,360.400 118.400 C 360.400 117.960,360.220 117.600,360.000 117.600 C 359.780 117.600,359.600 117.240,359.600 116.800 C 359.600 116.360,359.420 116.000,359.200 116.000 C 358.980 116.000,358.800 115.685,358.799 115.300 C 358.798 114.915,358.168 113.556,357.399 112.280 C 356.630 111.004,356.000 109.789,356.000 109.580 C 356.000 109.371,355.820 109.200,355.600 109.200 C 355.380 109.200,355.200 108.922,355.200 108.583 C 355.200 108.244,354.840 107.580,354.400 107.108 C 353.960 106.636,353.600 106.013,353.600 105.725 C 353.600 105.436,353.420 105.200,353.200 105.200 C 352.980 105.200,352.800 104.964,352.800 104.675 C 352.800 104.387,352.440 103.764,352.000 103.292 C 351.560 102.820,351.200 102.196,351.200 101.905 C 351.200 101.614,350.840 101.117,350.400 100.800 C 349.960 100.483,349.600 99.943,349.600 99.600 C 349.600 99.257,349.240 98.717,348.800 98.400 C 348.360 98.083,348.000 97.627,348.000 97.387 C 348.000 97.147,347.680 96.602,347.289 96.175 C 346.898 95.749,346.140 94.770,345.604 94.000 C 345.068 93.230,344.353 92.381,344.015 92.113 C 343.677 91.845,343.554 91.620,343.742 91.613 C 343.931 91.606,343.552 91.103,342.902 90.495 C 342.251 89.887,341.398 88.770,341.007 88.013 C 340.615 87.256,339.607 85.975,338.765 85.167 C 337.924 84.359,337.326 83.607,337.437 83.496 C 337.548 83.386,336.100 81.757,334.219 79.876 C 332.339 77.996,330.800 76.264,330.800 76.029 C 330.800 75.793,330.519 75.600,330.176 75.600 C 329.833 75.600,329.626 75.465,329.716 75.300 C 329.806 75.135,328.737 73.872,327.340 72.493 C 325.943 71.114,324.800 70.065,324.800 70.161 C 324.800 70.257,323.315 68.864,321.500 67.066 C 319.685 65.267,317.570 63.350,316.800 62.805 C 316.030 62.259,314.809 61.225,314.087 60.507 C 312.914 59.340,312.588 59.157,311.784 59.216 C 311.665 59.224,310.855 58.490,309.984 57.583 C 309.113 56.676,308.400 56.084,308.400 56.267 C 308.399 56.450,307.973 56.105,307.453 55.500 C 306.933 54.895,306.348 54.400,306.153 54.399 C 305.959 54.399,305.170 53.859,304.400 53.200 C 303.630 52.541,302.815 52.001,302.588 52.001 C 302.362 52.000,301.917 51.640,301.600 51.200 C 301.283 50.760,300.743 50.400,300.400 50.400 C 300.057 50.400,299.524 50.050,299.215 49.621 C 298.907 49.193,298.531 48.919,298.379 49.013 C 298.228 49.106,297.586 48.737,296.952 48.192 C 296.318 47.647,295.575 47.201,295.300 47.200 C 295.025 47.200,294.800 47.020,294.800 46.800 C 294.800 46.580,294.564 46.400,294.275 46.400 C 293.987 46.400,293.402 46.079,292.975 45.687 C 292.549 45.295,291.480 44.639,290.600 44.231 C 289.720 43.822,288.522 43.153,287.938 42.744 C 287.354 42.335,286.589 42.000,286.238 42.000 C 285.887 42.000,285.600 41.820,285.600 41.600 C 285.600 41.380,285.240 41.200,284.800 41.200 C 284.360 41.200,284.000 41.020,284.000 40.800 C 284.000 40.580,283.640 40.400,283.200 40.400 C 282.760 40.400,282.400 40.220,282.400 40.000 C 282.400 39.780,282.040 39.600,281.600 39.600 C 281.160 39.600,280.800 39.420,280.800 39.200 C 280.800 38.980,280.440 38.800,280.000 38.800 C 279.560 38.800,279.200 38.620,279.200 38.400 C 279.200 38.180,278.840 38.000,278.400 38.000 C 277.960 38.000,277.600 37.820,277.600 37.600 C 277.600 37.380,277.240 37.200,276.800 37.200 C 276.360 37.200,276.000 37.020,276.000 36.800 C 276.000 36.580,275.640 36.400,275.200 36.400 C 274.760 36.400,274.400 36.220,274.400 36.000 C 274.400 35.780,274.040 35.600,273.600 35.600 C 273.160 35.600,272.800 35.420,272.800 35.200 C 272.800 34.980,272.350 34.800,271.800 34.800 C 271.250 34.800,270.800 34.620,270.800 34.400 C 270.800 34.180,270.440 34.000,270.000 34.000 C 269.560 34.000,269.200 33.820,269.200 33.600 C 269.200 33.380,268.660 33.200,268.000 33.200 C 267.340 33.200,266.800 33.020,266.800 32.800 C 266.800 32.580,266.440 32.400,266.000 32.400 C 265.560 32.400,265.200 32.220,265.200 32.000 C 265.200 31.780,264.660 31.600,264.000 31.600 C 263.340 31.600,262.800 31.420,262.800 31.200 C 262.800 30.980,262.361 30.800,261.824 30.800 C 261.287 30.800,260.758 30.656,260.649 30.479 C 260.540 30.303,259.528 29.907,258.400 29.600 C 257.272 29.293,256.260 28.897,256.151 28.721 C 256.042 28.544,255.524 28.400,255.000 28.400 C 254.476 28.400,253.936 28.220,253.800 28.000 C 253.664 27.780,253.059 27.600,252.456 27.600 C 251.853 27.600,251.144 27.384,250.880 27.120 C 250.616 26.856,250.400 26.768,250.400 26.925 C 250.400 27.082,249.742 26.936,248.939 26.600 C 248.135 26.264,247.394 26.072,247.293 26.173 C 247.192 26.275,246.408 26.076,245.550 25.733 C 244.692 25.390,243.632 25.203,243.195 25.317 C 242.758 25.432,242.400 25.362,242.400 25.163 C 242.400 24.963,241.590 24.800,240.600 24.800 C 239.610 24.800,238.800 24.620,238.800 24.400 C 238.800 24.180,238.080 24.000,237.200 24.000 C 236.320 24.000,235.600 23.820,235.600 23.600 C 235.600 23.378,234.533 23.200,233.200 23.200 C 231.867 23.200,230.800 23.022,230.800 22.800 C 230.800 22.578,229.733 22.400,228.400 22.400 C 227.067 22.400,226.000 22.222,226.000 22.000 C 226.000 21.769,224.741 21.600,223.024 21.600 C 221.387 21.600,219.936 21.420,219.800 21.200 C 219.657 20.968,217.463 20.800,214.576 20.800 C 211.525 20.800,209.600 20.645,209.600 20.400 C 209.600 20.144,206.133 20.000,200.000 20.000 C 194.255 20.000,190.400 20.151,190.400 20.377 M146.400 129.887 C 149.163 130.801,149.274 130.905,175.236 156.839 C 188.649 170.238,199.842 181.199,200.111 181.197 C 200.380 181.195,211.845 169.946,225.588 156.199 C 242.777 139.007,251.086 130.966,252.210 130.437 C 261.137 126.241,270.905 132.322,270.905 142.075 C 270.905 147.776,271.890 146.590,243.669 174.885 L 218.650 199.971 221.025 202.476 C 222.331 203.853,233.665 215.245,246.211 227.790 C 272.136 253.715,271.003 252.315,270.995 258.400 C 270.984 266.176,266.162 271.000,258.400 271.000 C 252.406 271.000,254.070 272.374,225.626 243.941 C 211.756 230.076,200.229 218.792,200.013 218.866 C 199.797 218.940,188.410 230.180,174.710 243.844 C 146.359 272.120,147.716 271.000,141.800 271.000 C 133.844 271.000,128.485 265.530,128.868 257.800 C 129.130 252.519,128.465 253.302,156.181 225.600 C 169.938 211.850,181.195 200.355,181.197 200.055 C 181.199 199.755,169.969 188.279,156.243 174.552 C 138.415 156.724,131.059 149.109,130.493 147.897 C 125.431 137.057,135.073 126.140,146.400 129.887 " stroke="none" fill="#fc3c3c" fill-rule="evenodd"></path><path id="path2" d="M140.200 129.170 C 139.404 129.353,140.009 129.446,142.000 129.446 C 143.991 129.446,144.596 129.353,143.800 129.170 C 143.140 129.019,142.330 128.895,142.000 128.895 C 141.670 128.895,140.860 129.019,140.200 129.170 M256.400 129.182 C 255.352 129.388,255.732 129.461,257.911 129.473 C 259.512 129.481,260.772 129.447,260.711 129.397 C 260.336 129.089,257.578 128.951,256.400 129.182 M149.970 132.132 C 150.989 133.254,151.208 133.393,151.187 132.900 C 151.181 132.735,150.686 132.254,150.087 131.832 L 149.000 131.064 149.970 132.132 M247.368 134.421 C 243.094 138.766,243.070 138.933,247.312 134.809 C 249.230 132.944,250.800 131.369,250.800 131.309 C 250.800 130.990,250.263 131.477,247.368 134.421 M153.402 135.535 C 154.281 136.379,155.085 136.999,155.188 136.914 C 155.424 136.718,152.570 134.000,152.129 134.000 C 151.950 134.000,152.523 134.691,153.402 135.535 M270.493 139.600 C 270.493 140.370,270.575 140.685,270.676 140.300 C 270.776 139.915,270.776 139.285,270.676 138.900 C 270.575 138.515,270.493 138.830,270.493 139.600 M129.072 140.700 C 128.945 141.525,128.980 142.830,129.150 143.600 C 129.397 144.721,129.461 144.422,129.470 142.100 C 129.484 138.825,129.403 138.542,129.072 140.700 M270.493 144.400 C 270.493 145.170,270.575 145.485,270.676 145.100 C 270.776 144.715,270.776 144.085,270.676 143.700 C 270.575 143.315,270.493 143.630,270.493 144.400 M232.896 148.900 C 230.209 151.595,227.880 153.980,227.719 154.200 C 227.559 154.420,229.806 152.263,232.714 149.406 C 235.621 146.549,238.000 144.164,238.000 144.106 C 238.000 143.817,237.427 144.355,232.896 148.900 M165.287 147.400 C 165.880 147.950,166.506 148.400,166.678 148.400 C 166.851 148.400,166.507 147.950,165.913 147.400 C 165.320 146.850,164.694 146.400,164.522 146.400 C 164.349 146.400,164.693 146.850,165.287 147.400 M169.579 151.634 C 171.166 153.193,172.539 154.394,172.630 154.304 C 172.834 154.100,167.405 148.800,166.992 148.800 C 166.828 148.800,167.992 150.075,169.579 151.634 M243.633 174.335 C 229.901 188.121,218.593 199.620,218.503 199.889 C 218.344 200.368,222.066 204.400,222.667 204.400 C 222.835 204.400,221.994 203.409,220.798 202.198 L 218.624 199.997 243.712 174.879 C 265.013 153.552,269.490 148.957,268.700 149.235 C 268.645 149.255,257.365 160.550,243.633 174.335 M134.000 152.167 C 134.000 152.588,135.205 153.728,135.421 153.512 C 135.522 153.411,135.244 153.002,134.802 152.602 C 134.361 152.203,134.000 152.007,134.000 152.167 M136.564 155.000 C 137.114 155.550,137.693 156.000,137.852 156.000 C 138.010 156.000,137.717 155.550,137.200 155.000 C 136.683 154.450,136.104 154.000,135.912 154.000 C 135.720 154.000,136.014 154.450,136.564 155.000 M215.977 165.811 C 210.747 171.079,211.012 170.800,211.240 170.800 C 211.335 170.800,213.567 168.640,216.200 166.000 C 218.833 163.360,220.890 161.200,220.771 161.200 C 220.652 161.200,218.495 163.275,215.977 165.811 M180.800 162.533 C 180.800 162.709,182.780 164.833,185.200 167.253 C 187.620 169.673,189.600 171.503,189.600 171.320 C 189.600 171.136,187.620 169.012,185.200 166.600 C 182.780 164.188,180.800 162.358,180.800 162.533 M146.400 164.548 C 146.400 164.707,146.850 165.286,147.400 165.836 C 147.950 166.386,148.400 166.680,148.400 166.488 C 148.400 166.296,147.950 165.717,147.400 165.200 C 146.850 164.683,146.400 164.390,146.400 164.548 M148.800 166.999 C 148.800 167.380,151.588 170.146,151.776 169.953 C 151.859 169.869,151.223 169.107,150.363 168.259 C 149.503 167.412,148.800 166.845,148.800 166.999 M152.964 171.400 C 153.514 171.950,154.093 172.400,154.252 172.400 C 154.410 172.400,154.117 171.950,153.600 171.400 C 153.083 170.850,152.504 170.400,152.312 170.400 C 152.120 170.400,152.414 170.850,152.964 171.400 M202.365 179.397 C 200.316 181.483,200.060 181.541,198.800 180.200 C 198.283 179.650,197.693 179.200,197.488 179.200 C 197.283 179.200,197.693 179.740,198.400 180.400 C 200.092 181.980,200.293 181.942,202.600 179.600 C 203.683 178.500,204.471 177.600,204.350 177.600 C 204.229 177.600,203.336 178.409,202.365 179.397 M162.800 180.948 C 162.800 181.107,163.250 181.686,163.800 182.236 C 164.350 182.786,164.800 183.080,164.800 182.888 C 164.800 182.696,164.350 182.117,163.800 181.600 C 163.250 181.083,162.800 180.790,162.800 180.948 M165.200 183.367 C 165.200 183.788,166.405 184.928,166.621 184.712 C 166.722 184.611,166.444 184.202,166.002 183.802 C 165.561 183.403,165.200 183.207,165.200 183.367 M167.600 185.770 C 167.600 186.180,170.381 188.953,170.587 188.747 C 170.674 188.659,170.038 187.883,169.173 187.023 C 168.308 186.163,167.600 185.599,167.600 185.770 M180.013 198.129 C 180.006 198.309,180.270 198.727,180.600 199.057 C 181.438 199.895,181.349 200.618,180.300 201.488 C 179.805 201.899,178.953 202.767,178.408 203.417 C 177.862 204.068,178.357 203.707,179.508 202.615 C 180.658 201.523,181.600 200.418,181.600 200.159 C 181.600 199.626,180.034 197.621,180.013 198.129 M165.977 215.811 C 160.747 221.079,161.012 220.800,161.240 220.800 C 161.335 220.800,163.567 218.640,166.200 216.000 C 168.833 213.360,170.890 211.200,170.771 211.200 C 170.652 211.200,168.495 213.275,165.977 215.811 M230.800 212.533 C 230.800 212.709,232.780 214.833,235.200 217.253 C 237.620 219.673,239.600 221.503,239.600 221.320 C 239.600 221.136,237.620 219.012,235.200 216.600 C 232.780 214.188,230.800 212.358,230.800 212.533 M180.049 238.000 C 169.269 248.780,160.573 257.600,160.723 257.600 C 160.874 257.600,169.737 248.862,180.418 238.182 C 199.226 219.377,201.200 217.616,201.200 219.643 C 201.200 219.839,201.425 219.994,201.700 219.987 C 202.238 219.972,200.533 218.400,199.980 218.400 C 199.797 218.400,190.828 227.220,180.049 238.000 M202.964 221.400 C 203.514 221.950,204.093 222.400,204.252 222.400 C 204.410 222.400,204.117 221.950,203.600 221.400 C 203.083 220.850,202.504 220.400,202.312 220.400 C 202.120 220.400,202.414 220.850,202.964 221.400 M149.168 232.617 C 146.435 235.376,144.116 237.761,144.014 237.917 C 143.911 238.073,146.206 235.863,149.114 233.006 C 152.021 230.149,154.400 227.764,154.400 227.706 C 154.400 227.383,153.698 228.042,149.168 232.617 M251.547 233.600 C 253.967 236.020,256.091 238.000,256.267 238.000 C 256.442 238.000,254.612 236.020,252.200 233.600 C 249.788 231.180,247.664 229.200,247.480 229.200 C 247.297 229.200,249.127 231.180,251.547 233.600 M212.800 230.948 C 212.800 231.107,213.250 231.686,213.800 232.236 C 214.350 232.786,214.800 233.080,214.800 232.888 C 214.800 232.696,214.350 232.117,213.800 231.600 C 213.250 231.083,212.800 230.790,212.800 230.948 M215.200 233.367 C 215.200 233.788,216.405 234.928,216.621 234.712 C 216.722 234.611,216.444 234.202,216.002 233.802 C 215.561 233.403,215.200 233.207,215.200 233.367 M217.600 235.770 C 217.600 236.180,220.381 238.953,220.587 238.747 C 220.674 238.659,220.038 237.883,219.173 237.023 C 218.308 236.163,217.600 235.599,217.600 235.770 M134.700 247.100 C 133.005 248.805,131.484 250.380,131.321 250.600 C 131.158 250.820,132.594 249.474,134.512 247.609 C 136.430 245.744,138.000 244.169,138.000 244.109 C 138.000 243.824,137.570 244.213,134.700 247.100 M264.400 246.116 C 264.400 246.262,265.391 247.420,266.602 248.691 C 267.813 249.961,269.081 251.585,269.420 252.300 C 270.075 253.680,270.542 254.075,270.128 252.900 C 269.604 251.412,264.400 245.249,264.400 246.116 M230.000 248.188 C 230.000 248.598,232.789 251.344,232.996 251.137 C 233.089 251.044,232.453 250.277,231.583 249.432 C 230.712 248.588,230.000 248.028,230.000 248.188 M234.000 252.167 C 234.000 252.588,235.205 253.728,235.421 253.512 C 235.522 253.411,235.244 253.002,234.802 252.602 C 234.361 252.203,234.000 252.007,234.000 252.167 M236.702 255.171 C 237.301 255.815,237.869 256.265,237.964 256.170 C 238.185 255.948,236.366 254.000,235.937 254.000 C 235.759 254.000,236.103 254.527,236.702 255.171 M270.468 254.400 C 270.488 255.439,271.118 257.146,271.132 256.200 C 271.138 255.760,270.989 255.040,270.800 254.600 C 270.589 254.110,270.461 254.032,270.468 254.400 M129.029 255.429 C 128.881 256.015,128.838 256.572,128.932 256.666 C 129.027 256.760,129.224 256.358,129.371 255.771 C 129.519 255.185,129.562 254.628,129.468 254.534 C 129.373 254.440,129.176 254.842,129.029 255.429 M159.260 258.642 C 158.962 258.978,158.799 259.332,158.895 259.429 C 158.992 259.526,159.398 259.244,159.798 258.802 C 160.197 258.361,160.361 258.007,160.162 258.015 C 159.963 258.024,159.557 258.305,159.260 258.642 M128.856 260.400 C 128.856 260.730,129.011 261.360,129.200 261.800 C 129.417 262.304,129.544 262.378,129.544 262.000 C 129.544 261.670,129.389 261.040,129.200 260.600 C 128.983 260.096,128.856 260.022,128.856 260.400 M154.200 263.844 C 150.897 267.350,147.950 269.588,145.483 270.461 C 143.917 271.015,143.748 271.140,144.800 270.963 C 147.397 270.529,157.733 262.342,156.788 261.469 C 156.685 261.374,155.520 262.442,154.200 263.844 M246.400 264.548 C 246.400 264.707,246.850 265.286,247.400 265.836 C 247.950 266.386,248.400 266.680,248.400 266.488 C 248.400 266.296,247.950 265.717,247.400 265.200 C 246.850 264.683,246.400 264.390,246.400 264.548 M132.400 267.400 C 133.146 268.170,133.847 268.800,133.957 268.800 C 134.067 268.800,133.546 268.170,132.800 267.400 C 132.054 266.630,131.353 266.000,131.243 266.000 C 131.133 266.000,131.654 266.630,132.400 267.400 M267.178 267.500 L 265.800 269.000 267.300 267.622 C 268.696 266.338,268.984 266.000,268.678 266.000 C 268.612 266.000,267.937 266.675,267.178 267.500 M248.812 267.025 C 248.828 267.492,251.943 269.864,253.011 270.221 C 253.445 270.366,253.170 270.088,252.400 269.602 C 251.630 269.116,250.505 268.253,249.900 267.684 C 249.295 267.116,248.806 266.819,248.812 267.025 M254.600 270.800 C 255.040 270.989,255.670 271.144,256.000 271.144 C 256.378 271.144,256.304 271.017,255.800 270.800 C 255.360 270.611,254.730 270.456,254.400 270.456 C 254.022 270.456,254.096 270.583,254.600 270.800 " stroke="none" fill="#fc5f5f" fill-rule="evenodd"></path><path id="path3" d="M270.493 142.000 C 270.493 142.770,270.575 143.085,270.676 142.700 C 270.776 142.315,270.776 141.685,270.676 141.300 C 270.575 140.915,270.493 141.230,270.493 142.000 M250.581 167.300 L 249.000 169.000 250.700 167.419 C 252.281 165.948,252.584 165.600,252.281 165.600 C 252.216 165.600,251.451 166.365,250.581 167.300 M233.785 184.100 L 231.800 186.200 233.900 184.215 C 235.851 182.371,236.183 182.000,235.885 182.000 C 235.822 182.000,234.877 182.945,233.785 184.100 M183.785 234.100 L 181.800 236.200 183.900 234.215 C 185.055 233.123,186.000 232.178,186.000 232.115 C 186.000 231.817,185.629 232.149,183.785 234.100 M166.981 250.900 L 165.400 252.600 167.100 251.019 C 168.681 249.548,168.984 249.200,168.681 249.200 C 168.616 249.200,167.851 249.965,166.981 250.900 M128.909 258.400 C 128.909 259.390,128.987 259.795,129.082 259.300 C 129.178 258.805,129.178 257.995,129.082 257.500 C 128.987 257.005,128.909 257.410,128.909 258.400 M270.909 258.400 C 270.909 259.390,270.987 259.795,271.082 259.300 C 271.178 258.805,271.178 257.995,271.082 257.500 C 270.987 257.005,270.909 257.410,270.909 258.400 M132.600 267.200 C 133.459 268.080,134.252 268.800,134.362 268.800 C 134.472 268.800,133.859 268.080,133.000 267.200 C 132.141 266.320,131.348 265.600,131.238 265.600 C 131.128 265.600,131.741 266.320,132.600 267.200 M140.905 271.087 C 141.514 271.179,142.414 271.177,142.905 271.082 C 143.397 270.987,142.900 270.911,141.800 270.914 C 140.700 270.917,140.297 270.995,140.905 271.087 M257.305 271.087 C 257.914 271.179,258.814 271.177,259.305 271.082 C 259.797 270.987,259.300 270.911,258.200 270.914 C 257.100 270.917,256.697 270.995,257.305 271.087 " stroke="none" fill="#fc8484" fill-rule="evenodd"></path><path id="path4" d="M136.537 130.815 C 132.105 132.965,129.600 137.004,129.600 142.000 C 129.600 147.562,128.596 146.360,156.887 174.674 C 180.131 197.938,182.095 200.007,181.570 200.674 C 181.049 201.338,181.060 201.353,181.700 200.851 C 182.085 200.549,182.400 200.180,182.400 200.031 C 182.400 199.883,171.143 188.520,157.385 174.780 C 129.235 146.669,130.000 147.583,130.000 142.054 C 130.000 135.078,135.056 130.000,142.000 130.000 C 147.563 130.000,146.358 128.994,174.695 157.307 C 199.280 181.872,200.010 182.560,200.695 181.813 C 201.370 181.076,201.370 181.067,200.674 181.592 C 200.012 182.093,197.754 179.947,174.674 156.887 C 146.274 128.510,147.572 129.590,141.889 129.610 C 139.511 129.619,138.564 129.832,136.537 130.815 M252.470 130.847 C 251.079 131.522,250.003 132.136,250.079 132.213 C 250.156 132.289,251.294 131.826,252.609 131.185 C 257.468 128.814,263.374 129.922,267.161 133.917 C 268.426 135.251,268.683 135.421,268.045 134.499 C 264.819 129.840,257.895 128.216,252.470 130.847 M240.996 141.286 C 236.378 145.953,233.122 149.328,233.759 148.786 C 235.645 147.183,249.950 132.800,249.659 132.800 C 249.513 132.800,245.614 136.619,240.996 141.286 M269.868 139.400 C 270.171 141.377,270.402 141.714,270.394 140.167 C 270.391 139.525,270.216 138.730,270.005 138.400 C 269.745 137.991,269.701 138.310,269.868 139.400 M270.060 143.667 C 270.027 144.254,269.896 145.064,269.770 145.467 C 269.552 146.160,269.565 146.161,269.995 145.490 C 270.246 145.099,270.377 144.289,270.286 143.690 L 270.120 142.600 270.060 143.667 M243.204 174.161 L 217.808 199.800 242.530 175.200 C 263.191 154.640,269.699 147.998,268.727 148.461 C 268.657 148.494,257.172 160.059,243.204 174.161 M224.595 157.687 C 221.298 161.035,219.126 163.330,219.770 162.787 C 222.075 160.841,231.158 151.600,230.765 151.600 C 230.669 151.600,227.892 154.339,224.595 157.687 M217.170 165.100 L 216.200 166.200 217.400 165.200 C 218.060 164.650,218.675 164.155,218.767 164.100 C 218.858 164.045,218.755 164.000,218.536 164.000 C 218.318 164.000,217.703 164.495,217.170 165.100 M214.801 167.398 C 214.286 167.948,213.939 168.464,214.032 168.546 C 214.124 168.628,214.619 168.178,215.130 167.547 C 216.276 166.135,216.074 166.044,214.801 167.398 M207.395 174.887 C 204.098 178.235,201.926 180.530,202.570 179.987 C 204.875 178.041,213.958 168.800,213.565 168.800 C 213.469 168.800,210.692 171.539,207.395 174.887 M242.800 225.400 C 256.549 239.150,267.888 250.400,267.998 250.400 C 268.108 250.400,256.949 239.150,243.200 225.400 C 229.451 211.650,218.112 200.400,218.002 200.400 C 217.892 200.400,229.051 211.650,242.800 225.400 M174.595 207.687 C 171.298 211.035,169.126 213.330,169.770 212.787 C 172.075 210.841,181.158 201.600,180.765 201.600 C 180.669 201.600,177.892 204.339,174.595 207.687 M167.170 215.100 L 166.200 216.200 167.400 215.200 C 168.060 214.650,168.675 214.155,168.767 214.100 C 168.858 214.045,168.755 214.000,168.536 214.000 C 168.318 214.000,167.703 214.495,167.170 215.100 M164.801 217.398 C 164.286 217.948,163.939 218.464,164.032 218.546 C 164.124 218.628,164.619 218.178,165.130 217.547 C 166.276 216.135,166.074 216.044,164.801 217.398 M173.987 243.402 C 160.010 257.371,148.671 268.800,148.788 268.800 C 148.906 268.800,160.431 257.370,174.400 243.400 C 188.369 229.430,199.708 218.001,199.599 218.002 C 199.489 218.003,187.964 229.433,173.987 243.402 M225.199 242.905 C 238.948 256.707,250.273 268.000,250.365 268.000 C 250.618 268.000,208.736 225.988,203.118 220.605 C 201.513 219.067,211.449 229.102,225.199 242.905 M157.395 224.887 C 154.098 228.235,151.926 230.530,152.570 229.987 C 154.875 228.041,163.958 218.800,163.565 218.800 C 163.469 218.800,160.692 221.539,157.395 224.887 M148.401 233.798 C 147.886 234.348,147.539 234.864,147.632 234.946 C 147.724 235.028,148.219 234.578,148.730 233.947 C 149.876 232.535,149.674 232.444,148.401 233.798 M140.995 241.287 C 137.698 244.635,135.526 246.930,136.170 246.387 C 138.475 244.441,147.558 235.200,147.165 235.200 C 147.069 235.200,144.292 237.939,140.995 241.287 M132.948 249.384 C 130.289 252.504,129.542 254.219,129.385 257.576 L 129.244 260.600 129.585 257.649 C 129.981 254.230,130.989 252.048,133.373 249.452 C 134.308 248.433,134.937 247.600,134.771 247.600 C 134.605 247.600,133.785 248.403,132.948 249.384 M270.528 258.400 C 270.528 259.830,270.601 260.415,270.689 259.700 C 270.778 258.985,270.778 257.815,270.689 257.100 C 270.601 256.385,270.528 256.970,270.528 258.400 M129.625 261.304 C 129.578 262.641,131.224 265.457,133.086 267.226 L 134.955 269.000 132.951 266.748 C 131.779 265.431,130.678 263.689,130.298 262.548 C 129.941 261.477,129.638 260.917,129.625 261.304 M270.046 261.467 C 270.021 261.724,269.884 262.264,269.741 262.667 C 269.540 263.236,269.594 263.297,269.979 262.942 C 270.252 262.691,270.389 262.151,270.284 261.742 C 270.179 261.334,270.072 261.210,270.046 261.467 M266.783 267.080 C 265.802 268.114,265.352 268.699,265.783 268.380 C 266.690 267.708,267.571 266.851,268.349 265.883 C 269.414 264.558,268.545 265.223,266.783 267.080 M146.200 269.622 C 145.320 270.038,144.834 270.384,145.120 270.390 C 145.702 270.401,148.000 269.284,148.000 268.990 C 148.000 268.756,148.118 268.714,146.200 269.622 M252.000 269.019 C 252.000 269.313,254.449 270.450,254.809 270.324 C 255.004 270.256,254.451 269.898,253.582 269.530 C 252.712 269.161,252.000 268.931,252.000 269.019 M261.800 270.000 C 261.029 270.331,261.031 270.345,261.876 270.372 C 262.358 270.387,262.864 270.220,263.000 270.000 C 263.292 269.527,262.901 269.527,261.800 270.000 M140.291 270.689 C 141.001 270.777,142.261 270.779,143.091 270.692 C 143.921 270.605,143.340 270.533,141.800 270.531 C 140.260 270.529,139.581 270.600,140.291 270.689 M257.100 270.689 C 257.815 270.778,258.985 270.778,259.700 270.689 C 260.415 270.601,259.830 270.528,258.400 270.528 C 256.970 270.528,256.385 270.601,257.100 270.689 " stroke="none" fill="#fc9c9c" fill-rule="evenodd"></path></g></svg>