<svg width="33" height="34" viewBox="0 0 33 34" fill="none" xmlns="http://www.w3.org/2000/svg">
<g id="Green Check">
<path id="Vector" d="M16.0937 33.1561C24.982 33.1561 32.1873 25.9507 32.1873 17.0624C32.1873 8.17413 24.982 0.96875 16.0937 0.96875C7.20538 0.96875 0 8.17413 0 17.0624C0 25.9507 7.20538 33.1561 16.0937 33.1561Z" fill="#0FA052"/>
<path id="Vector_2" d="M14.8865 24.4374C14.7047 24.4374 14.5277 24.3745 14.3836 24.256L8.34874 19.2856C8.00194 18.9998 7.94561 18.4787 8.22321 18.1217C8.50243 17.7646 9.00775 17.7066 9.35456 17.9924L14.7192 22.4112L22.6764 10.7091C22.9307 10.333 23.4328 10.2435 23.7973 10.5053C24.1618 10.7679 24.2495 11.284 23.9952 11.6593L15.5464 24.0854C15.4192 24.2734 15.2221 24.3977 15.0016 24.4308C14.963 24.4349 14.9244 24.4374 14.8865 24.4374Z" fill="white"/>
</g>
</svg>
