<svg width="26" height="26" viewBox="0 0 26 26" fill="none" xmlns="http://www.w3.org/2000/svg">
<path d="M5.09503 0C2.29316 0 0 2.29311 0 5.09503V20.9058C0 23.7077 2.29311 26 5.09503 26H20.9058C23.7077 26 26 23.7077 26 20.9058V5.09503C26 2.29316 23.7077 0 20.9058 0H5.09503ZM6.3765 4.29052C7.71994 4.29052 8.54744 5.17246 8.57298 6.33176C8.57298 7.46547 7.71989 8.3722 6.35052 8.3722H6.32531C5.00745 8.3722 4.15565 7.46552 4.15565 6.33176C4.15565 5.17249 5.03323 4.29052 6.37648 4.29052H6.3765ZM17.9536 9.70895C20.5373 9.70895 22.4742 11.3977 22.4742 15.0266V21.8012H18.5477V15.4808C18.5477 13.8926 17.9794 12.809 16.5584 12.809C15.4736 12.809 14.8271 13.5393 14.5432 14.2449C14.4395 14.4973 14.414 14.8498 14.414 15.2029V21.8012H10.4875C10.4875 21.8012 10.539 11.0946 10.4875 9.98602H14.4148V11.6592C14.9366 10.8541 15.8699 9.70892 17.9536 9.70892V9.70895ZM4.38726 9.98688H8.31375V21.8013H4.38726V9.98688V9.98688Z" fill="#505F98"/>
</svg>
