<svg width="42" height="42" viewBox="0 0 42 42" fill="none" xmlns="http://www.w3.org/2000/svg">
<path d="M18.9 27.3H23.1V31.5H18.9V27.3ZM18.9 10.5H23.1V23.1H18.9V10.5ZM21 0C9.387 0 0 9.45 0 21C0 26.5695 2.21249 31.911 6.15076 35.8492C8.10079 37.7993 10.4158 39.3461 12.9636 40.4015C15.5115 41.4568 18.2422 42 21 42C26.5695 42 31.911 39.7875 35.8492 35.8492C39.7875 31.911 42 26.5695 42 21C42 18.2422 41.4568 15.5115 40.4015 12.9636C39.3461 10.4158 37.7993 8.10079 35.8492 6.15076C33.8992 4.20073 31.5842 2.65388 29.0364 1.59853C26.4885 0.543181 23.7578 0 21 0ZM21 37.8C16.5444 37.8 12.2712 36.03 9.12061 32.8794C5.97 29.7288 4.2 25.4556 4.2 21C4.2 16.5444 5.97 12.2712 9.12061 9.12061C12.2712 5.97 16.5444 4.2 21 4.2C25.4556 4.2 29.7288 5.97 32.8794 9.12061C36.03 12.2712 37.8 16.5444 37.8 21C37.8 25.4556 36.03 29.7288 32.8794 32.8794C29.7288 36.03 25.4556 37.8 21 37.8Z" fill="#DB2929"/>
</svg>
